{"glyphs":{"0":{"ha":888,"x_min":51,"x_max":836,"o":"m 590 268 q 621 359 614 308 q 628 503 628 410 q 621 644 628 594 q 590 735 614 694 q 443 815 546 815 q 297 736 342 815 q 267 644 274 694 q 260 503 260 594 q 267 360 260 411 q 297 269 274 310 q 443 189 340 189 q 590 268 546 189 m 51 503 q 63 710 51 631 q 121 860 75 789 q 240 974 161 925 q 443 1022 319 1022 q 646 974 567 1022 q 767 860 725 925 q 825 710 814 789 q 836 503 836 632 q 825 292 836 371 q 767 143 814 214 q 647 28 726 76 q 443 -19 568 -19 q 241 29 319 -19 q 121 143 163 78 q 63 295 75 215 q 51 503 51 375 z "},"1":{"ha":574,"x_min":42,"x_max":476,"o":"m 476 -10 l 269 -10 l 269 785 l 124 717 l 42 901 l 269 1013 l 476 1013 l 476 -10 z "},"2":{"ha":811,"x_min":51,"x_max":760,"o":"m 256 718 q 317 785 275 758 q 406 811 358 811 q 465 799 436 811 q 527 744 506 782 q 549 663 549 707 q 533 590 549 621 q 516 564 528 579 q 493 539 504 549 l 51 193 l 51 4 l 760 4 l 760 207 l 371 207 l 625 394 q 678 449 656 418 q 714 511 701 481 q 744 658 744 581 q 689 851 744 764 q 538 976 633 939 q 403 1006 474 1006 q 222 951 306 1006 q 97 803 139 897 q 78 750 81 769 l 246 694 l 256 718 z "},"3":{"ha":839,"x_min":51,"x_max":788,"o":"m 621 519 q 741 415 694 478 q 788 279 788 353 q 744 126 788 193 q 619 21 701 58 q 419 -17 536 -17 q 147 68 243 -17 q 51 300 51 153 l 244 300 q 288 211 244 247 q 419 175 331 175 q 553 211 508 175 q 597 300 597 247 q 554 391 597 354 q 422 428 511 428 l 353 428 l 353 608 l 425 608 q 539 643 497 608 q 581 722 581 678 q 543 797 581 767 q 429 828 506 828 q 315 797 351 828 q 278 722 278 767 l 85 722 q 176 940 85 860 q 429 1019 267 1019 q 611 984 533 1019 q 730 886 689 949 q 771 743 771 824 q 730 617 771 675 q 621 519 689 560 z "},"4":{"ha":883,"x_min":51,"x_max":832,"o":"m 725 396 l 832 396 l 832 196 l 725 196 l 725 -10 l 533 -10 l 533 196 l 51 196 l 51 383 l 533 1013 l 725 1013 l 725 396 m 533 396 l 533 718 l 283 396 l 533 396 z "},"5":{"ha":839,"x_min":51,"x_max":788,"o":"m 447 663 q 628 617 551 663 q 747 494 706 572 q 788 319 788 417 q 740 147 788 225 q 609 23 693 68 q 419 -22 525 -22 q 224 21 319 -22 q 76 136 128 64 q 65 151 74 140 q 51 169 57 161 l 235 261 l 246 247 q 319 200 271 218 q 419 182 367 182 q 545 222 499 182 q 592 319 592 261 q 545 419 592 379 q 419 460 499 460 q 325 448 369 460 q 254 413 281 436 l 107 494 l 119 1010 l 726 1010 l 726 808 l 304 808 l 300 626 q 372 654 342 646 q 447 663 403 663 z "},"6":{"ha":815,"x_min":51,"x_max":764,"o":"m 407 182 q 524 217 476 182 q 571 299 571 251 q 524 381 571 346 q 407 415 476 415 q 292 381 339 415 q 246 299 246 346 q 292 217 246 251 q 407 182 339 182 m 51 299 q 86 436 51 364 l 478 1018 l 654 906 l 453 615 q 501 612 483 615 q 547 599 518 608 q 704 491 644 568 q 764 299 764 414 q 717 137 764 210 q 588 22 669 64 q 407 -19 506 -19 q 227 22 308 -19 q 99 137 146 64 q 51 299 51 210 z "},"7":{"ha":842,"x_min":51,"x_max":790,"o":"m 790 790 l 296 -15 l 111 78 l 536 790 l 51 790 l 51 996 l 790 996 l 790 790 z "},"8":{"ha":839,"x_min":51,"x_max":788,"o":"m 421 161 q 506 179 468 161 q 565 226 543 197 q 586 289 586 256 q 565 350 586 321 q 506 397 543 379 q 421 415 468 415 q 335 397 374 415 q 276 350 297 379 q 254 289 254 321 q 301 199 254 238 q 421 161 349 161 m 51 279 q 94 422 51 357 q 211 525 138 486 q 117 620 151 564 q 82 743 82 676 q 129 884 82 821 q 255 983 176 947 q 421 1018 333 1018 q 586 983 508 1018 q 711 884 664 947 q 758 743 758 821 q 724 620 758 676 q 629 525 690 564 q 744 422 701 486 q 788 279 788 357 q 736 126 788 194 q 601 18 685 57 q 421 -21 517 -21 q 239 18 324 -21 q 103 126 154 57 q 51 279 51 194 m 293 738 q 329 671 293 700 q 421 642 365 642 q 511 671 475 642 q 547 738 547 700 q 511 804 547 775 q 421 833 475 833 q 329 804 365 833 q 293 738 293 775 z "},"9":{"ha":815,"x_min":51,"x_max":764,"o":"m 408 579 q 523 616 476 579 q 569 703 569 653 q 523 790 569 753 q 408 826 476 826 q 293 790 340 826 q 246 703 246 753 q 293 616 246 653 q 408 579 340 579 m 51 703 q 99 865 51 792 q 228 979 147 938 q 408 1021 310 1021 q 588 979 507 1021 q 717 865 669 938 q 764 703 764 792 q 731 567 764 625 l 339 -12 l 161 97 l 358 385 q 299 396 339 386 q 240 414 258 406 q 94 533 136 453 q 51 703 51 613 z "}," ":{"ha":319,"x_min":0,"x_max":0,"o":""},"A":{"ha":1240,"x_min":64,"x_max":1176,"o":"m 1176 -25 l 954 -25 l 849 232 l 392 232 l 286 -25 l 64 -25 l 503 1028 l 738 1028 l 1176 -25 m 747 468 l 621 775 l 493 468 l 747 468 z "},"B":{"ha":935,"x_min":88,"x_max":901,"o":"m 88 -25 l 613 -25 q 758 15 692 -25 q 863 121 824 54 q 901 268 901 188 q 866 419 901 350 q 771 526 831 488 q 878 742 878 613 q 839 886 878 821 q 734 990 800 951 q 589 1028 668 1028 l 88 1028 l 88 -25 m 301 408 l 574 408 q 644 378 615 408 q 674 303 674 347 q 644 231 674 260 q 574 203 615 203 l 301 203 l 301 408 m 301 814 l 558 814 q 630 785 600 814 q 660 715 660 757 q 632 647 660 674 q 563 619 604 621 l 301 619 l 301 814 z "},"C":{"ha":996,"x_min":75,"x_max":961,"o":"m 594 -36 q 322 36 440 -36 q 140 231 204 108 q 75 501 75 354 q 139 772 75 649 q 321 967 203 894 q 592 1039 439 1039 q 794 998 699 1039 q 961 882 889 957 l 828 721 q 721 784 789 760 q 590 808 653 808 q 429 767 499 808 q 322 656 360 726 q 285 501 285 586 q 323 345 285 415 q 431 234 361 275 q 593 193 501 193 q 722 217 656 193 q 828 282 789 242 l 961 121 q 794 6 889 47 q 594 -36 700 -36 z "},"D":{"ha":1044,"x_min":89,"x_max":968,"o":"m 439 188 q 596 230 524 188 q 711 344 668 272 q 754 501 754 417 q 711 658 754 586 q 596 773 668 731 q 439 815 524 815 l 301 815 l 301 188 l 439 188 m 89 1028 l 443 1028 q 706 957 585 1028 q 897 765 826 886 q 968 501 968 644 q 897 238 968 358 q 706 46 826 117 q 443 -25 585 -25 l 89 -25 l 89 1028 z "},"E":{"ha":864,"x_min":72,"x_max":818,"o":"m 818 819 l 281 819 l 281 621 l 772 621 l 772 411 l 281 411 l 281 185 l 818 185 l 818 -25 l 72 -25 l 72 1028 l 818 1028 l 818 819 z "},"F":{"ha":850,"x_min":86,"x_max":818,"o":"m 818 819 l 296 819 l 296 608 l 733 608 l 733 396 l 296 396 l 296 -25 l 86 -25 l 86 1028 l 818 1028 l 818 819 z "},"G":{"ha":1219,"x_min":79,"x_max":1133,"o":"m 1131 574 q 1133 528 1133 554 q 1129 421 1133 483 q 969 85 1106 206 q 613 -36 833 -36 q 326 35 447 -36 q 142 228 206 106 q 79 501 79 350 q 142 774 79 653 q 326 967 206 896 q 613 1038 447 1038 q 899 964 783 1038 q 1067 785 1015 890 l 881 679 q 778 783 847 740 q 611 825 708 825 q 438 783 511 825 q 326 667 365 740 q 288 501 288 593 q 326 335 288 410 q 438 219 365 261 q 611 176 511 176 q 787 217 707 176 q 897 369 867 258 l 639 369 l 639 574 l 1131 574 z "},"H":{"ha":1067,"x_min":89,"x_max":978,"o":"m 978 -25 l 767 -25 l 767 411 l 300 411 l 300 -25 l 89 -25 l 89 1028 l 300 1028 l 300 619 l 767 619 l 767 1028 l 978 1028 l 978 -25 z "},"I":{"ha":389,"x_min":89,"x_max":300,"o":"m 300 1028 l 300 -25 l 89 -25 l 89 1028 l 300 1028 z "},"J":{"ha":785,"x_min":58,"x_max":700,"o":"m 700 283 q 655 123 700 196 q 533 8 610 50 q 365 -35 456 -35 q 182 17 265 -35 q 58 154 99 68 l 263 242 q 304 196 275 214 q 369 178 333 178 q 453 210 419 178 q 488 286 488 242 l 488 1028 l 700 1028 l 700 283 z "},"K":{"ha":1110,"x_min":88,"x_max":1049,"o":"m 629 572 l 1049 -25 l 783 -25 l 482 408 l 299 200 l 299 -25 l 88 -25 l 88 1026 l 299 1026 l 299 517 l 751 1029 l 1043 1029 l 629 572 z "},"L":{"ha":844,"x_min":86,"x_max":785,"o":"m 299 186 l 785 186 l 785 -25 l 86 -25 l 86 1028 l 299 1028 l 299 186 z "},"M":{"ha":1415,"x_min":88,"x_max":1324,"o":"m 1324 -25 l 1110 -25 l 1110 743 l 811 208 l 601 208 l 300 743 l 300 -25 l 88 -25 l 88 1028 l 397 1028 l 706 471 l 1011 1028 l 1324 1028 l 1324 -25 z "},"N":{"ha":1218,"x_min":85,"x_max":1133,"o":"m 1133 -25 l 838 -25 l 299 758 l 299 -25 l 85 -25 l 85 1028 l 368 1028 l 921 246 l 921 1028 l 1133 1028 l 1133 -25 z "},"O":{"ha":1225,"x_min":79,"x_max":1146,"o":"m 613 175 q 783 218 710 175 q 897 335 857 261 q 936 501 936 410 q 897 666 936 592 q 783 783 857 740 q 613 826 710 826 q 442 783 515 826 q 328 666 368 740 q 289 501 289 592 q 328 335 289 410 q 442 218 368 261 q 613 175 515 175 m 79 501 q 147 772 79 649 q 337 967 215 894 q 613 1039 458 1039 q 888 967 767 1039 q 1078 772 1010 894 q 1146 501 1146 649 q 1078 231 1146 354 q 888 36 1010 108 q 613 -36 767 -36 q 337 36 458 -36 q 147 231 215 108 q 79 501 79 354 z "},"P":{"ha":982,"x_min":88,"x_max":918,"o":"m 558 508 q 663 553 619 508 q 707 660 707 599 q 663 765 707 721 q 558 808 619 808 l 297 808 l 297 508 l 558 508 m 88 1028 l 551 1028 q 735 978 651 1028 q 869 844 819 929 q 918 660 918 760 q 869 476 918 561 q 735 342 819 392 q 551 292 651 292 l 297 292 l 297 -25 l 88 -25 l 88 1028 z "},"Q":{"ha":1226,"x_min":79,"x_max":1161,"o":"m 914 363 q 931 408 928 392 q 936 464 933 425 l 939 500 q 899 667 939 592 q 784 785 858 742 q 613 828 710 828 q 441 785 515 828 q 327 667 367 742 q 288 500 288 592 q 327 334 288 408 q 441 217 367 260 q 613 174 515 174 q 710 183 682 176 q 772 211 738 190 l 643 353 l 800 494 l 914 363 m 79 500 q 147 770 79 647 q 337 965 215 893 q 613 1038 458 1038 q 888 965 767 1038 q 1078 770 1010 893 q 1146 500 1146 647 q 1122 344 1142 408 q 1061 207 1103 279 l 1161 100 l 1007 -42 l 917 60 q 783 -15 843 6 q 613 -36 722 -36 q 337 36 458 -36 q 147 231 215 108 q 79 500 79 353 z "},"R":{"ha":1025,"x_min":89,"x_max":964,"o":"m 556 507 q 660 552 617 507 q 704 660 704 597 q 660 765 704 721 q 556 808 617 808 l 292 808 l 292 507 l 556 507 m 89 1028 l 588 1028 q 752 982 678 1028 q 870 854 826 936 q 914 668 914 772 q 851 466 904 542 q 704 329 797 390 l 964 -25 l 704 -25 l 472 292 l 292 292 l 292 -25 l 89 -25 l 89 1028 z "},"S":{"ha":1018,"x_min":79,"x_max":958,"o":"m 749 754 q 721 783 736 771 q 676 808 706 794 q 515 847 603 847 q 456 843 485 847 q 351 765 368 828 q 349 742 349 754 q 369 678 349 704 q 410 646 390 657 q 440 632 421 638 q 486 621 458 626 l 558 604 q 769 544 697 572 q 878 481 842 515 q 936 392 914 446 q 958 275 958 338 q 944 181 958 228 q 885 88 928 135 q 789 8 843 42 q 631 -44 690 -36 q 533 -53 581 -53 q 279 10 407 -53 q 151 106 201 49 q 79 208 100 163 l 276 288 q 374 199 300 238 q 453 167 418 176 q 526 157 489 157 q 601 165 560 157 q 689 196 644 175 q 743 249 731 219 q 750 278 750 261 q 731 328 750 311 q 669 360 713 344 q 518 397 625 375 l 440 414 q 296 468 353 432 q 242 507 265 486 q 210 539 218 528 q 160 635 178 576 q 142 753 142 694 q 154 839 142 801 q 260 981 185 926 q 422 1051 336 1036 q 510 1058 467 1058 q 771 997 654 1058 q 924 872 872 949 l 749 754 z "},"T":{"ha":886,"x_min":60,"x_max":826,"o":"m 826 819 l 553 819 l 553 -25 l 339 -25 l 339 819 l 60 819 l 60 1028 l 826 1028 l 826 819 z "},"U":{"ha":1044,"x_min":90,"x_max":960,"o":"m 960 400 q 900 183 960 283 q 740 24 840 83 q 525 -35 640 -35 q 310 24 410 -35 q 150 183 210 83 q 90 400 90 283 l 90 1028 l 303 1028 l 303 408 q 333 293 303 346 q 415 210 364 240 q 525 179 465 179 q 635 210 583 179 q 717 293 686 240 q 747 408 747 346 l 747 1028 l 960 1028 l 960 400 z "},"V":{"ha":1232,"x_min":64,"x_max":1168,"o":"m 740 -25 l 507 -25 l 64 1028 l 289 1028 l 628 228 l 943 1028 l 1168 1028 l 740 -25 z "},"W":{"ha":1710,"x_min":74,"x_max":1636,"o":"m 1300 -25 l 1097 -25 l 881 672 l 614 -25 l 418 -25 l 74 1028 l 290 1028 l 528 294 l 763 1026 l 992 1026 l 1207 294 l 1421 1028 l 1636 1028 l 1300 -25 z "},"X":{"ha":1201,"x_min":64,"x_max":1138,"o":"m 735 503 l 1138 -25 l 882 -25 l 603 339 l 326 -25 l 64 -25 l 468 503 l 64 1028 l 326 1028 l 603 665 l 879 1026 l 1138 1028 l 735 503 z "},"Y":{"ha":1172,"x_min":64,"x_max":1108,"o":"m 689 386 l 689 -25 l 482 -25 l 482 386 l 64 1028 l 314 1028 l 585 611 l 858 1028 l 1108 1028 l 689 386 z "},"Z":{"ha":990,"x_min":33,"x_max":957,"o":"m 957 832 l 338 183 l 957 183 l 957 -25 l 33 -25 l 33 169 l 639 818 l 33 818 l 33 1028 l 957 1028 l 957 832 z "},"a":{"ha":919,"x_min":60,"x_max":832,"o":"m 439 163 q 522 186 483 163 q 583 251 560 210 q 607 343 607 293 q 583 436 607 394 q 522 501 560 478 q 439 525 483 525 q 313 476 354 525 q 271 343 271 426 q 313 212 271 261 q 439 163 354 163 m 60 343 q 102 533 60 447 q 226 671 144 619 q 417 722 307 722 q 528 698 475 722 q 621 628 582 674 l 621 725 l 832 725 l 832 -22 l 621 -24 l 621 57 q 528 -12 582 13 q 417 -36 474 -36 q 226 15 307 -36 q 102 153 144 67 q 60 343 60 239 z "},"b":{"ha":882,"x_min":88,"x_max":822,"o":"m 463 185 q 575 229 539 185 q 611 349 611 274 q 575 466 611 422 q 463 510 539 510 q 358 463 401 510 q 314 349 314 415 q 358 232 314 279 q 463 185 401 185 m 88 1058 l 294 1058 l 294 619 q 387 683 333 661 q 485 706 440 706 q 666 657 589 706 q 783 527 743 608 q 822 349 822 446 q 783 168 822 250 q 666 38 743 86 q 485 -11 589 -11 q 383 6 432 -11 q 294 76 335 24 l 294 -1 l 88 0 l 88 1058 z "},"c":{"ha":693,"x_min":31,"x_max":682,"o":"m 407 178 q 533 232 479 178 l 682 88 q 560 3 629 33 q 413 -28 490 -28 q 209 25 296 -28 q 76 167 122 78 q 31 365 31 257 q 76 565 31 475 q 209 707 122 654 q 413 760 296 760 q 560 729 490 760 q 682 644 629 699 l 533 500 q 407 554 476 554 q 273 502 318 554 q 228 365 228 450 q 273 230 228 282 q 407 178 318 178 z "},"d":{"ha":885,"x_min":60,"x_max":797,"o":"m 418 185 q 524 230 481 185 q 568 349 568 275 q 524 465 568 421 q 418 510 481 510 q 306 465 342 510 q 269 349 269 421 q 306 229 269 274 q 418 185 342 185 m 60 349 q 99 527 60 446 q 215 657 139 608 q 396 706 292 706 q 494 684 440 706 q 585 619 549 663 l 585 1058 l 797 1058 l 797 0 l 585 0 l 585 76 q 497 7 550 25 q 396 -11 443 -11 q 215 38 292 -11 q 99 168 139 86 q 60 349 60 250 z "},"e":{"ha":856,"x_min":60,"x_max":792,"o":"m 594 440 q 520 524 560 499 q 428 549 481 549 q 325 523 367 549 q 251 440 283 497 l 594 440 m 60 350 q 103 541 60 454 q 231 679 147 628 q 428 731 315 731 q 658 658 586 731 q 753 526 729 585 q 792 336 792 454 q 788 268 792 297 l 256 268 q 319 186 275 217 q 429 156 364 156 q 517 174 483 156 q 563 218 551 192 l 749 140 q 632 21 714 69 q 428 -28 550 -28 q 231 23 315 -28 q 103 160 147 74 q 60 350 60 247 z "},"f":{"ha":654,"x_min":40,"x_max":626,"o":"m 158 -35 l 158 531 l 40 531 l 40 739 l 158 739 l 158 817 q 193 961 158 893 q 289 1070 228 1029 q 424 1111 350 1111 q 532 1090 475 1111 q 626 1038 589 1069 l 485 871 q 424 892 460 892 q 388 875 399 892 q 378 817 378 858 l 378 739 l 606 739 l 606 531 l 378 531 l 378 -35 l 158 -35 z "},"g":{"ha":921,"x_min":60,"x_max":833,"o":"m 436 178 q 517 201 479 178 q 578 265 556 225 q 600 356 600 306 q 578 444 600 404 q 517 508 556 485 q 436 531 479 531 q 314 483 354 531 q 274 356 274 435 q 314 226 274 275 q 436 178 354 178 m 60 354 q 102 551 60 465 q 225 684 144 636 q 417 732 306 732 q 522 712 465 732 q 621 640 579 692 l 621 735 l 833 735 l 833 22 q 774 -191 833 -104 q 619 -319 714 -278 q 417 -361 524 -361 q 216 -317 314 -361 q 68 -196 118 -272 l 246 -76 q 328 -142 278 -125 q 417 -160 378 -160 q 497 -147 449 -160 q 583 -102 544 -135 q 621 -12 621 -69 l 621 69 q 417 -25 539 -25 q 225 23 306 -25 q 102 156 144 71 q 60 354 60 242 z "},"h":{"ha":893,"x_min":94,"x_max":821,"o":"m 621 347 q 589 460 621 415 q 475 506 557 506 q 388 482 426 506 q 326 422 349 458 q 304 347 304 385 l 304 -31 l 94 -31 l 94 1058 l 304 1058 l 304 642 q 395 699 342 682 q 478 715 449 715 q 672 668 594 715 q 785 544 749 621 q 821 381 821 468 l 821 -31 l 621 -31 l 621 347 z "},"i":{"ha":413,"x_min":107,"x_max":313,"o":"m 313 1106 l 313 900 l 107 900 l 107 1106 l 313 1106 m 107 735 l 313 735 l 313 -31 l 107 -31 l 107 735 z "},"j":{"ha":379,"x_min":-146,"x_max":296,"o":"m 1 -125 q 31 -137 14 -137 q 63 -124 49 -137 q 76 -82 76 -111 l 76 735 l 296 735 l 296 -82 q 253 -228 296 -165 q 147 -324 210 -290 q 31 -357 85 -357 q -62 -338 -12 -357 q -146 -289 -111 -319 l 1 -125 m 83 1106 l 289 1106 l 289 900 l 83 900 l 83 1106 z "},"k":{"ha":860,"x_min":93,"x_max":815,"o":"m 301 444 l 553 719 l 815 719 l 514 390 l 790 -31 l 554 -31 l 376 249 l 301 156 l 301 -31 l 93 -31 l 93 1058 l 301 1058 l 301 444 z "},"l":{"ha":358,"x_min":75,"x_max":283,"o":"m 283 1058 l 283 -31 l 75 -31 l 75 1058 l 283 1058 z "},"m":{"ha":1368,"x_min":96,"x_max":1282,"o":"m 1074 364 q 1055 438 1074 401 q 1003 498 1036 475 q 931 521 971 521 q 826 484 861 521 q 792 364 792 447 l 792 -24 l 586 -24 l 586 364 q 551 474 586 428 q 447 519 517 519 q 347 478 389 519 q 304 364 304 436 l 304 -24 l 96 -24 l 96 726 l 304 726 l 304 618 q 370 697 322 668 q 475 726 418 726 q 612 687 560 726 q 706 576 664 647 q 810 685 756 643 q 946 726 865 726 q 1188 638 1094 726 q 1282 372 1282 549 l 1282 -24 l 1074 -24 l 1074 364 z "},"n":{"ha":900,"x_min":86,"x_max":828,"o":"m 619 358 q 449 525 619 525 q 337 478 382 525 q 294 358 292 432 l 294 -24 l 86 -24 l 86 726 l 294 726 l 294 635 q 374 703 318 681 q 474 726 431 726 q 725 647 622 726 q 828 394 828 568 l 828 -24 l 619 -24 l 619 358 z "},"o":{"ha":833,"x_min":60,"x_max":774,"o":"m 417 168 q 540 219 494 168 q 585 350 585 269 q 540 482 585 431 q 417 533 494 533 q 294 481 340 533 q 249 350 249 429 q 294 219 249 271 q 417 168 340 168 m 60 350 q 104 540 60 453 q 231 679 149 628 q 417 731 313 731 q 603 679 521 731 q 729 540 685 628 q 774 350 774 453 q 728 160 774 247 q 602 22 683 74 q 417 -29 521 -29 q 231 22 313 -29 q 105 160 150 74 q 60 350 60 247 z "},"p":{"ha":929,"x_min":94,"x_max":869,"o":"m 492 163 q 620 217 571 163 q 669 356 669 272 q 621 493 669 439 q 492 547 572 547 q 405 522 446 547 q 340 452 364 496 q 315 356 315 408 q 340 258 315 303 q 405 188 364 214 q 492 163 446 163 m 94 735 l 304 735 l 304 643 q 406 714 340 693 q 511 735 471 735 q 697 683 615 735 q 824 545 779 632 q 869 356 869 458 q 824 165 869 253 q 697 26 779 78 q 511 -25 615 -25 q 401 -7 464 -25 q 304 69 339 11 l 304 -361 l 94 -361 l 94 735 z "},"q":{"ha":922,"x_min":60,"x_max":835,"o":"m 438 163 q 524 188 483 163 q 590 258 565 214 q 614 356 614 303 q 590 452 614 408 q 524 522 565 496 q 438 547 483 547 q 308 493 357 547 q 260 356 260 439 q 309 217 260 272 q 438 163 358 163 m 60 356 q 105 545 60 458 q 232 683 150 632 q 418 735 314 735 q 524 714 458 735 q 625 643 589 693 l 625 735 l 835 735 l 835 -361 l 625 -361 l 625 69 q 528 -7 590 11 q 418 -25 465 -25 q 232 26 314 -25 q 105 165 150 78 q 60 356 60 253 z "},"r":{"ha":532,"x_min":79,"x_max":493,"o":"m 289 610 q 387 701 325 671 q 493 731 449 731 l 493 535 q 383 507 429 535 q 313 437 336 479 q 289 350 289 394 l 289 -24 l 79 -24 l 79 731 l 289 731 l 289 610 z "},"s":{"ha":724,"x_min":57,"x_max":668,"o":"m 486 460 q 450 499 475 481 q 339 529 401 529 q 285 515 299 529 q 279 503 279 510 q 285 491 279 496 q 301 479 290 486 l 354 457 l 407 442 q 545 393 500 415 q 614 344 590 371 q 653 279 639 317 q 668 201 668 242 q 643 100 668 149 q 597 44 624 67 q 532 -3 571 21 q 457 -30 499 -19 q 379 -40 415 -40 q 179 18 278 -40 q 106 88 143 40 q 57 160 68 136 l 228 267 q 251 228 242 242 q 282 201 261 214 q 342 172 318 179 q 401 167 367 165 q 442 178 426 171 q 458 189 450 181 q 463 200 463 193 q 453 215 463 208 q 422 224 440 219 l 339 247 l 285 263 q 235 280 249 274 q 201 299 222 286 q 132 357 160 322 q 93 424 107 385 q 79 507 79 464 q 97 596 79 556 q 202 703 128 669 q 350 736 276 736 q 454 723 400 736 q 557 679 508 710 q 653 579 618 636 l 486 460 z "},"t":{"ha":688,"x_min":40,"x_max":621,"o":"m 621 60 q 533 -2 579 21 q 431 -25 488 -25 q 306 13 365 -25 q 210 113 247 50 q 174 244 174 175 l 174 565 l 40 565 l 40 771 l 174 771 l 174 1024 l 393 1024 l 393 771 l 607 771 l 607 565 l 393 565 l 393 244 q 431 194 393 194 q 447 198 440 194 q 471 218 453 201 l 621 60 z "},"u":{"ha":901,"x_min":88,"x_max":829,"o":"m 296 344 q 467 178 296 178 q 578 224 533 178 q 621 344 624 271 l 621 726 l 829 726 l 829 -24 l 621 -24 l 621 68 q 541 -1 597 22 q 442 -24 485 -24 q 190 56 293 -24 q 88 308 88 135 l 88 726 l 296 726 l 296 344 z "},"v":{"ha":918,"x_min":46,"x_max":872,"o":"m 542 -24 l 364 -24 l 46 726 l 278 726 l 458 254 l 640 726 l 872 726 l 542 -24 z "},"w":{"ha":1217,"x_min":53,"x_max":1164,"o":"m 943 -24 l 743 -24 l 610 442 l 476 -24 l 275 -24 l 53 726 l 271 726 l 381 294 l 501 726 l 715 726 l 836 294 l 946 726 l 1164 726 l 943 -24 z "},"x":{"ha":913,"x_min":46,"x_max":867,"o":"m 592 351 l 860 -24 l 617 -24 l 457 183 l 303 -24 l 57 -24 l 319 351 l 46 726 l 293 726 l 457 510 l 619 726 l 867 726 l 592 351 z "},"y":{"ha":907,"x_min":46,"x_max":861,"o":"m 429 -361 l 213 -361 l 333 -40 l 46 726 l 268 726 l 451 231 l 635 726 l 861 726 l 429 -361 z "},"z":{"ha":767,"x_min":57,"x_max":710,"o":"m 710 517 l 351 185 l 710 185 l 710 -24 l 57 -24 l 57 174 l 417 517 l 57 517 l 57 726 l 710 726 l 710 517 z "},"ㄱ":{"ha":1214,"x_min":203,"x_max":1011,"o":"m 1011 864 l 1011 172 l 797 172 l 797 692 l 203 692 l 203 864 l 1011 864 z "},"ㄲ":{"ha":1214,"x_min":108,"x_max":1090,"o":"m 589 864 l 589 172 l 375 172 l 375 692 l 108 692 l 108 864 l 589 864 m 642 864 l 1090 864 l 1090 172 l 875 172 l 875 692 l 642 692 l 642 864 z "},"ㄳ":{"ha":1214,"x_min":117,"x_max":1156,"o":"m 561 860 l 561 335 q 691 461 653 381 q 729 651 729 542 l 729 869 l 933 869 l 933 651 q 984 440 933 528 q 1156 313 1035 353 l 1044 157 q 832 347 899 213 q 618 157 763 213 l 561 236 l 561 172 l 349 172 l 349 686 l 117 686 l 117 860 l 561 860 z "},"ㄴ":{"ha":1214,"x_min":200,"x_max":1019,"o":"m 418 863 l 418 368 l 1019 368 l 1019 197 l 200 197 l 200 863 l 418 863 z "},"ㄵ":{"ha":1214,"x_min":121,"x_max":1124,"o":"m 339 864 l 339 326 q 532 347 447 331 l 535 326 q 662 472 625 379 q 700 692 699 565 l 538 692 l 538 864 l 1068 864 l 1068 692 l 904 692 q 955 450 906 550 q 1124 303 1004 350 l 1008 144 q 801 351 868 207 q 606 146 740 208 l 544 225 l 550 178 q 399 156 474 161 q 199 151 324 151 l 121 151 l 121 864 l 339 864 z "},"ㄶ":{"ha":1214,"x_min":118,"x_max":1088,"o":"m 332 850 l 332 339 q 532 361 446 343 l 551 192 q 396 171 474 176 q 196 165 318 165 l 118 165 l 118 850 l 332 850 m 518 783 l 708 783 l 708 881 l 918 881 l 918 783 l 1088 783 l 1088 611 l 518 611 l 518 783 m 565 358 q 597 476 565 424 q 684 559 629 529 q 806 589 739 589 q 927 559 872 589 q 1014 476 982 529 q 1046 358 1046 424 q 1014 240 1046 293 q 927 158 982 188 q 806 128 872 128 q 684 158 739 128 q 597 240 629 188 q 565 358 565 293 m 746 358 q 763 308 746 325 q 806 292 779 292 q 849 308 832 292 q 865 358 865 325 q 849 406 865 390 q 806 422 832 422 q 763 406 779 422 q 746 358 746 390 z "},"ㄷ":{"ha":1214,"x_min":206,"x_max":1013,"o":"m 1003 867 l 1003 694 l 424 694 l 424 342 l 1013 342 l 1013 171 l 206 171 l 206 867 l 1003 867 z "},"ㄸ":{"ha":1214,"x_min":144,"x_max":1069,"o":"m 567 867 l 567 694 l 357 694 l 357 368 q 574 392 483 372 l 593 215 q 431 194 513 200 q 224 189 350 189 l 144 189 l 144 867 l 567 867 m 646 867 l 1064 867 l 1064 694 l 861 694 l 861 363 l 1069 363 l 1069 190 l 646 190 l 646 867 z "},"ㄹ":{"ha":1214,"x_min":193,"x_max":1021,"o":"m 1003 881 l 1003 450 l 400 450 l 400 353 l 1021 353 l 1021 176 l 194 176 l 194 619 l 797 619 l 797 710 l 193 710 l 193 881 l 1003 881 z "},"ㄺ":{"ha":1214,"x_min":125,"x_max":1068,"o":"m 571 872 l 571 439 l 340 439 l 340 344 q 629 372 499 346 l 646 203 q 469 178 558 183 q 217 172 381 172 l 126 172 l 126 611 l 357 611 l 357 700 l 125 700 l 125 872 l 571 872 m 613 872 l 1068 872 l 1068 174 l 853 174 l 853 700 l 613 700 l 613 872 z "},"ㄻ":{"ha":1214,"x_min":119,"x_max":1104,"o":"m 565 872 l 565 439 l 335 439 l 335 344 q 468 353 411 347 q 582 371 525 358 l 601 201 q 438 177 521 182 q 206 172 354 172 l 121 172 l 121 611 l 350 611 l 350 700 l 119 700 l 119 872 l 565 872 m 631 875 l 1104 875 l 1104 175 l 631 175 l 631 875 m 915 346 l 915 703 l 821 703 l 821 346 l 915 346 z "},"ㄼ":{"ha":1214,"x_min":119,"x_max":1101,"o":"m 565 872 l 565 439 l 335 439 l 335 343 q 465 351 410 346 q 576 369 521 357 l 596 200 q 433 176 514 181 q 204 171 353 171 l 121 171 l 121 611 l 350 611 l 350 700 l 119 700 l 119 872 l 565 872 m 619 875 l 821 875 l 821 692 l 900 692 l 900 875 l 1101 875 l 1101 171 l 619 171 l 619 875 m 900 344 l 900 518 l 821 518 l 821 344 l 900 344 z "},"ㄽ":{"ha":1214,"x_min":113,"x_max":1150,"o":"m 558 872 l 558 439 l 328 439 l 328 344 q 579 371 467 346 l 582 343 q 702 471 667 390 q 738 661 738 551 l 738 879 l 943 879 l 943 661 q 990 449 943 536 q 1150 321 1036 363 l 1038 168 q 840 351 904 221 q 642 168 779 222 l 593 235 l 597 201 q 433 177 515 182 q 199 172 350 172 l 114 172 l 114 611 l 346 611 l 346 700 l 113 700 l 113 872 l 558 872 z "},"ㄾ":{"ha":1214,"x_min":119,"x_max":1086,"o":"m 565 872 l 565 439 l 335 439 l 335 344 q 586 371 474 346 l 604 201 q 438 177 521 182 q 206 172 356 172 l 121 172 l 121 611 l 350 611 l 350 700 l 119 700 l 119 872 l 565 872 m 631 874 l 1072 874 l 1072 701 l 843 701 l 843 608 l 1058 608 l 1058 436 l 843 436 l 843 342 l 1086 342 l 1086 171 l 631 171 l 631 874 z "},"ㄿ":{"ha":1214,"x_min":121,"x_max":1125,"o":"m 554 872 l 554 439 l 336 439 l 336 344 q 465 353 410 347 q 575 371 519 358 l 594 200 q 433 177 514 182 q 206 172 351 172 l 122 172 l 122 611 l 342 611 l 342 700 l 121 700 l 121 872 l 554 872 m 601 343 l 654 343 l 654 699 l 601 699 l 601 871 l 1125 871 l 1125 699 l 1072 699 l 1072 343 l 1125 343 l 1125 172 l 601 172 l 601 343 m 888 343 l 888 699 l 840 699 l 840 343 l 888 343 z "},"ㅀ":{"ha":1214,"x_min":132,"x_max":1147,"o":"m 546 872 l 546 453 l 349 453 l 349 344 q 582 369 486 349 l 600 200 q 440 177 521 182 q 217 172 360 172 l 133 172 l 133 615 l 331 615 l 331 710 l 132 710 l 132 872 l 546 872 m 604 813 l 778 813 l 778 911 l 989 911 l 989 813 l 1147 813 l 1147 642 l 604 642 l 604 813 m 636 388 q 667 505 636 453 q 753 587 699 557 q 875 617 808 617 q 997 587 942 617 q 1083 505 1051 557 q 1115 388 1115 453 q 1083 269 1115 322 q 997 185 1051 215 q 875 156 942 156 q 753 185 808 156 q 667 269 699 215 q 636 388 636 322 m 817 388 q 833 338 817 354 q 875 321 849 321 q 918 338 901 321 q 935 388 935 354 q 918 435 935 419 q 875 451 901 451 q 833 435 849 451 q 817 388 817 419 z "},"ㅁ":{"ha":1214,"x_min":204,"x_max":1013,"o":"m 1013 856 l 1013 185 l 204 185 l 204 856 l 1013 856 m 797 356 l 797 683 l 419 683 l 419 356 l 797 356 z "},"ㅂ":{"ha":1214,"x_min":204,"x_max":1011,"o":"m 419 881 l 419 700 l 796 700 l 796 881 l 1011 881 l 1011 171 l 204 171 l 204 881 l 419 881 m 796 360 l 796 510 l 419 510 l 419 360 l 796 360 z "},"ㅃ":{"ha":1214,"x_min":147,"x_max":1083,"o":"m 344 868 l 344 689 l 400 689 l 400 868 l 599 868 l 599 172 l 147 172 l 147 868 l 344 868 m 400 347 l 400 515 l 344 515 l 344 347 l 400 347 m 632 869 l 829 869 l 829 690 l 886 690 l 886 869 l 1083 869 l 1083 174 l 632 174 l 632 869 m 886 349 l 886 517 l 829 517 l 829 349 l 886 349 z "},"ㅄ":{"ha":1214,"x_min":144,"x_max":1179,"o":"m 960 869 l 960 651 q 1010 440 960 528 q 1179 313 1060 353 l 1071 157 q 856 347 925 211 q 642 157 789 213 l 597 221 l 597 172 l 144 172 l 144 868 l 343 868 l 343 689 l 399 689 l 399 868 l 597 868 l 597 340 q 718 466 682 386 q 754 651 754 546 l 754 869 l 960 869 m 399 347 l 399 515 l 343 515 l 343 347 l 399 347 z "},"ㅅ":{"ha":1214,"x_min":140,"x_max":1072,"o":"m 714 881 l 714 703 q 797 458 714 561 q 1072 318 879 356 l 971 144 q 607 389 715 204 q 242 144 497 204 l 140 318 q 416 458 333 356 q 499 703 499 561 l 499 881 l 714 881 z "},"ㅆ":{"ha":1214,"x_min":50,"x_max":1201,"o":"m 506 842 l 506 793 q 625 428 506 554 q 749 793 749 556 l 749 842 l 967 842 l 967 793 q 1019 530 967 642 q 1201 364 1072 418 l 1085 207 q 853 461 922 278 q 624 193 783 269 q 399 461 465 271 q 169 207 331 279 l 50 364 q 233 530 179 418 q 286 793 286 642 l 286 842 l 506 842 z "},"ㅇ":{"ha":1214,"x_min":201,"x_max":1015,"o":"m 608 882 q 812 835 718 882 q 960 705 906 788 q 1015 519 1015 622 q 960 333 1015 417 q 812 201 906 249 q 608 154 718 154 q 405 201 499 154 q 256 333 311 249 q 201 519 201 417 q 256 705 201 622 q 405 835 311 788 q 608 882 499 882 m 408 519 q 465 388 408 436 q 608 339 522 339 q 751 388 694 339 q 808 519 808 436 q 751 651 808 603 q 608 699 694 699 q 465 651 522 699 q 408 519 408 603 z "},"ㅈ":{"ha":1214,"x_min":156,"x_max":1058,"o":"m 1022 879 l 1022 707 l 714 707 l 714 701 q 794 458 714 561 q 1058 315 875 354 l 960 150 q 607 411 707 214 q 254 150 507 214 l 156 315 q 419 458 339 354 q 500 701 500 561 l 500 707 l 203 707 l 203 879 l 1022 879 z "},"ㅉ":{"ha":1214,"x_min":29,"x_max":1224,"o":"m 597 881 l 597 708 l 485 708 q 524 504 492 588 q 625 374 556 421 q 727 504 694 421 q 767 708 760 588 l 651 708 l 651 881 l 1144 881 l 1144 708 l 985 708 q 1051 476 996 574 q 1224 328 1107 378 l 1099 156 q 885 368 957 221 q 785 228 849 286 q 626 138 722 171 l 625 138 q 465 230 528 172 q 365 369 401 288 q 153 156 296 222 l 29 328 q 199 476 144 378 q 265 708 254 574 l 106 708 l 106 881 l 597 881 z "},"ㅊ":{"ha":1214,"x_min":140,"x_max":1069,"o":"m 499 775 l 499 964 l 714 964 l 714 775 l 1022 775 l 1022 599 l 736 599 q 1069 306 736 351 l 975 138 q 606 371 701 188 q 236 138 508 188 l 140 306 q 474 599 474 351 l 192 599 l 192 775 l 499 775 z "},"ㅋ":{"ha":1214,"x_min":192,"x_max":1025,"o":"m 1025 879 l 1025 160 l 807 160 l 807 404 l 214 363 l 192 544 l 807 569 l 807 707 l 229 707 l 229 879 l 1025 879 z "},"ㅌ":{"ha":1214,"x_min":197,"x_max":1017,"o":"m 1006 869 l 1006 697 l 417 697 l 417 610 l 996 610 l 996 438 l 417 438 l 417 342 l 1017 342 l 1017 169 l 197 169 l 197 869 l 1006 869 z "},"ㅍ":{"ha":1214,"x_min":178,"x_max":1040,"o":"m 1022 871 l 1022 699 l 922 699 l 922 331 l 1040 331 l 1040 157 l 178 157 l 178 331 l 299 331 l 299 699 l 196 699 l 196 871 l 1022 871 m 707 331 l 707 699 l 514 699 l 514 331 l 707 331 z "},"ㅎ":{"ha":1214,"x_min":192,"x_max":1024,"o":"m 504 838 l 504 985 l 721 985 l 721 838 l 1024 838 l 1024 663 l 192 663 l 192 838 l 504 838 m 268 354 q 313 488 268 429 q 435 578 357 546 q 611 611 514 611 q 787 578 708 611 q 910 488 865 546 q 954 354 954 429 q 910 223 954 281 q 787 133 865 165 q 611 100 708 100 q 435 133 514 100 q 313 223 357 165 q 268 354 268 281 m 490 354 q 524 297 490 315 q 611 279 557 279 q 699 297 667 279 q 731 354 731 315 q 699 411 731 393 q 611 429 667 429 q 524 411 557 429 q 490 354 490 393 z "},"ㅏ":{"ha":1214,"x_min":456,"x_max":913,"o":"m 674 1133 l 674 667 l 913 667 l 913 489 l 674 489 l 674 -125 l 456 -125 l 456 1133 l 674 1133 z "},"ㅐ":{"ha":1214,"x_min":350,"x_max":889,"o":"m 889 1136 l 889 -122 l 683 -122 l 683 501 l 553 501 l 553 -72 l 350 -72 l 350 1117 l 553 1117 l 553 676 l 683 676 l 683 1136 l 889 1136 z "},"ㅑ":{"ha":1214,"x_min":429,"x_max":883,"o":"m 646 1133 l 646 844 l 883 844 l 883 665 l 646 665 l 646 478 l 883 478 l 883 303 l 646 303 l 646 -125 l 429 -125 l 429 1133 l 646 1133 z "},"ㅒ":{"ha":1214,"x_min":350,"x_max":879,"o":"m 879 1131 l 879 -128 l 672 -128 l 672 322 l 553 322 l 553 -79 l 350 -79 l 350 1117 l 553 1117 l 553 871 l 672 871 l 672 1131 l 879 1131 m 672 499 l 672 693 l 553 693 l 553 499 l 672 499 z "},"ㅓ":{"ha":1214,"x_min":376,"x_max":840,"o":"m 840 1136 l 840 -122 l 622 -122 l 622 507 l 376 507 l 376 683 l 622 683 l 622 1136 l 840 1136 z "},"ㅔ":{"ha":1214,"x_min":289,"x_max":931,"o":"m 931 1136 l 931 -122 l 725 -122 l 725 1136 l 931 1136 m 289 678 l 443 678 l 443 1111 l 646 1111 l 646 -83 l 443 -83 l 443 501 l 289 501 l 289 678 z "},"ㅕ":{"ha":1214,"x_min":372,"x_max":843,"o":"m 843 1132 l 843 -126 l 626 -126 l 626 307 l 372 307 l 372 482 l 626 482 l 626 678 l 372 678 l 372 856 l 626 856 l 626 1132 l 843 1132 z "},"ㅖ":{"ha":1214,"x_min":268,"x_max":922,"o":"m 446 839 l 446 1110 l 647 1110 l 647 -85 l 446 -85 l 446 311 l 268 311 l 268 486 l 446 486 l 446 664 l 274 664 l 274 839 l 446 839 m 717 1135 l 922 1135 l 922 -124 l 717 -124 l 717 1135 z "},"ㅗ":{"ha":1214,"x_min":35,"x_max":1181,"o":"m 499 403 l 499 864 l 714 864 l 714 403 l 1181 403 l 1181 229 l 35 229 l 35 403 l 499 403 z "},"ㅘ":{"ha":1214,"x_min":18,"x_max":1199,"o":"m 515 746 l 515 336 q 778 357 654 343 l 796 203 q 39 149 506 149 l 18 325 q 303 328 201 325 l 303 746 l 515 746 m 836 1133 l 1053 1133 l 1053 660 l 1199 660 l 1199 481 l 1053 481 l 1053 -125 l 836 -125 l 836 1133 z "},"ㅙ":{"ha":1214,"x_min":38,"x_max":1178,"o":"m 465 742 l 465 374 q 651 390 569 381 l 667 235 q 57 190 442 190 l 38 364 q 267 367 182 364 l 267 742 l 465 742 m 707 1119 l 908 1119 l 908 640 l 971 640 l 971 1138 l 1178 1138 l 1178 -121 l 971 -121 l 971 465 l 908 465 l 908 -75 l 707 -75 l 707 1119 z "},"ㅚ":{"ha":1214,"x_min":79,"x_max":1135,"o":"m 594 735 l 594 372 q 860 394 739 379 l 876 238 q 511 197 700 207 q 104 188 322 188 l 79 361 q 379 364 272 361 l 379 735 l 594 735 m 915 1140 l 1135 1140 l 1135 -118 l 915 -118 l 915 1140 z "},"ㅛ":{"ha":1214,"x_min":35,"x_max":1181,"o":"m 274 365 l 274 850 l 486 850 l 486 365 l 729 365 l 729 850 l 942 850 l 942 365 l 1181 365 l 1181 192 l 35 192 l 35 365 l 274 365 z "},"ㅜ":{"ha":1214,"x_min":35,"x_max":1181,"o":"m 1181 733 l 1181 558 l 715 558 l 715 60 l 500 60 l 500 558 l 35 558 l 35 733 l 1181 733 z "},"ㅝ":{"ha":1214,"x_min":44,"x_max":1157,"o":"m 1157 1139 l 1157 -119 l 939 -119 l 939 200 l 706 200 l 706 365 l 939 365 l 939 1139 l 1157 1139 m 44 614 q 484 622 290 615 q 856 651 678 629 l 868 497 q 569 461 738 475 l 569 -29 l 350 -29 l 350 449 q 69 443 218 443 l 44 614 z "},"ㅞ":{"ha":1214,"x_min":36,"x_max":1179,"o":"m 1179 1142 l 1179 -117 l 972 -117 l 972 1142 l 1179 1142 m 36 594 q 663 622 426 594 l 679 478 q 475 450 582 461 l 475 -33 l 268 -33 l 268 436 q 56 431 113 431 l 36 594 m 550 369 l 715 369 l 715 1121 l 918 1121 l 918 -74 l 715 -74 l 715 204 l 550 204 l 550 369 z "},"ㅟ":{"ha":1214,"x_min":69,"x_max":1144,"o":"m 1144 1133 l 1144 -125 l 926 -125 l 926 1133 l 1144 1133 m 69 575 q 496 581 300 575 q 865 607 692 588 l 879 453 q 592 418 749 432 l 592 -31 l 374 -31 l 374 407 q 96 401 244 401 l 69 575 z "},"ㅠ":{"ha":1214,"x_min":35,"x_max":1181,"o":"m 1181 739 l 1181 564 l 929 564 l 929 60 l 711 60 l 711 564 l 493 564 l 493 60 l 278 60 l 278 564 l 35 564 l 35 739 l 1181 739 z "},"ㅡ":{"ha":1214,"x_min":35,"x_max":1181,"o":"m 1181 619 l 1181 443 l 35 443 l 35 619 l 1181 619 z "},"ㅢ":{"ha":1214,"x_min":68,"x_max":1142,"o":"m 1142 1139 l 1142 -119 l 924 -119 l 924 1139 l 1142 1139 m 68 404 q 494 410 306 404 q 854 433 683 415 l 865 278 q 503 242 688 250 q 88 233 318 233 l 68 404 z "},"ㅣ":{"ha":1214,"x_min":503,"x_max":718,"o":"m 718 1139 l 718 -119 l 503 -119 l 503 1139 l 718 1139 z "},"가":{"ha":1214,"x_min":13,"x_max":1197,"o":"m 1036 1140 l 1036 672 l 1197 672 l 1197 494 l 1036 494 l 1036 -125 l 818 -125 l 818 1140 l 1036 1140 m 13 244 q 335 497 224 354 q 472 838 447 639 l 86 838 l 86 1013 l 693 1013 q 565 465 693 697 q 132 81 436 233 l 13 244 z "},"각":{"ha":1214,"x_min":11,"x_max":1194,"o":"m 1038 1139 l 1038 858 l 1194 858 l 1194 679 l 1038 679 l 1038 408 l 821 408 l 821 1139 l 1038 1139 m 11 568 q 315 702 206 615 q 446 901 424 789 l 78 901 l 78 1072 l 682 1072 q 533 644 682 814 q 100 401 383 474 l 11 568 m 182 358 l 1038 358 l 1038 -128 l 821 -128 l 821 189 l 182 189 l 182 358 z "},"간":{"ha":1214,"x_min":19,"x_max":1194,"o":"m 1038 1138 l 1038 801 l 1194 801 l 1194 625 l 1038 625 l 1038 243 l 819 243 l 819 1138 l 1038 1138 m 19 524 q 325 665 215 574 q 457 874 435 756 l 76 874 l 76 1046 l 694 1046 q 547 606 694 781 q 110 353 399 432 l 19 524 m 204 335 l 422 335 l 422 65 l 1072 65 l 1072 -108 l 204 -108 l 204 335 z "},"갇":{"ha":1214,"x_min":14,"x_max":1194,"o":"m 1038 1139 l 1038 876 l 1194 876 l 1194 699 l 1038 699 l 1038 439 l 821 439 l 821 1139 l 1038 1139 m 14 567 q 315 702 207 615 q 446 900 424 789 l 78 900 l 78 1071 l 682 1071 q 533 642 682 813 q 100 397 385 471 l 14 567 m 204 388 l 1049 388 l 1049 217 l 421 217 l 421 57 l 1072 57 l 1072 -115 l 204 -115 l 204 388 z "},"갈":{"ha":1214,"x_min":24,"x_max":1194,"o":"m 1038 1139 l 1038 906 l 1194 906 l 1194 729 l 1038 729 l 1038 514 l 821 514 l 821 1139 l 1038 1139 m 24 654 q 329 760 225 686 q 450 928 433 833 l 89 928 l 89 1099 l 694 1099 q 101 478 694 589 l 24 654 m 186 469 l 1038 469 l 1038 100 l 401 100 l 401 56 l 1068 56 l 1068 -115 l 188 -115 l 188 258 l 822 258 l 822 300 l 186 300 l 186 469 z "},"갉":{"ha":1214,"x_min":24,"x_max":1194,"o":"m 1038 1139 l 1038 897 l 1194 897 l 1194 721 l 1038 721 l 1038 483 l 821 483 l 821 1139 l 1038 1139 m 24 638 q 333 748 231 674 q 451 922 435 822 l 89 922 l 89 1093 l 696 1093 q 549 675 696 831 q 101 461 403 519 l 24 638 m 142 431 l 571 431 l 571 86 l 351 86 l 351 43 q 538 49 478 44 q 647 68 597 54 l 667 -90 q 526 -112 604 -108 q 232 -117 447 -117 l 143 -117 l 143 233 l 360 233 l 360 272 l 142 272 l 142 431 m 619 431 l 1038 431 l 1038 -119 l 824 -119 l 824 263 l 619 263 l 619 431 z "},"갊":{"ha":1214,"x_min":24,"x_max":1194,"o":"m 546 435 l 546 93 l 332 93 l 332 56 q 459 60 408 57 q 560 72 510 64 l 575 -89 q 426 -106 501 -103 q 201 -110 350 -110 l 122 -110 l 122 240 l 335 240 l 335 275 l 121 275 l 121 435 l 546 435 m 24 650 q 332 754 229 682 q 450 922 435 826 l 88 922 l 88 1093 l 696 1093 q 547 680 696 832 q 100 475 399 528 l 24 650 m 603 435 l 1038 435 l 1038 -110 l 603 -110 l 603 435 m 851 47 l 851 278 l 788 278 l 788 47 l 851 47 m 821 1139 l 1038 1139 l 1038 900 l 1194 900 l 1194 724 l 1038 724 l 1038 489 l 821 489 l 821 1139 z "},"갋":{"ha":1214,"x_min":24,"x_max":1194,"o":"m 1038 1139 l 1038 896 l 1194 896 l 1194 721 l 1038 721 l 1038 476 l 821 476 l 821 1139 l 1038 1139 m 24 657 q 332 761 229 689 q 450 929 435 833 l 88 929 l 88 1100 l 696 1100 q 547 687 696 839 q 100 481 399 535 l 24 657 m 124 421 l 544 421 l 544 85 l 336 85 l 336 39 q 560 58 471 40 l 574 -97 q 431 -112 501 -110 q 203 -115 360 -115 l 125 -115 l 125 222 l 333 222 l 333 263 l 124 263 l 124 421 m 599 432 l 792 432 l 792 318 l 843 318 l 843 432 l 1038 432 l 1038 -115 l 599 -115 l 599 432 m 843 50 l 843 160 l 792 160 l 792 50 l 843 50 z "},"감":{"ha":1214,"x_min":14,"x_max":1194,"o":"m 1038 1139 l 1038 881 l 1194 881 l 1194 704 l 1038 704 l 1038 439 l 821 439 l 821 1139 l 1038 1139 m 14 571 q 315 704 207 618 q 446 900 424 790 l 78 900 l 78 1071 l 683 1071 q 534 643 683 813 q 100 401 385 474 l 14 571 m 204 394 l 1038 394 l 1038 -115 l 204 -115 l 204 394 m 824 56 l 824 225 l 418 225 l 418 56 l 824 56 z "},"갑":{"ha":1214,"x_min":22,"x_max":1194,"o":"m 1038 1139 l 1038 881 l 1194 881 l 1194 704 l 1038 704 l 1038 453 l 819 453 l 819 1139 l 1038 1139 m 22 611 q 324 727 222 650 q 443 906 425 804 l 94 906 l 94 1076 l 688 1076 q 541 658 688 817 q 101 438 394 500 l 22 611 m 199 407 l 415 407 l 415 307 l 821 307 l 821 407 l 1038 407 l 1038 -115 l 199 -115 l 199 407 m 821 58 l 821 140 l 415 140 l 415 58 l 821 58 z "},"값":{"ha":1214,"x_min":22,"x_max":1194,"o":"m 1038 1139 l 1038 890 l 1194 890 l 1194 714 l 1038 714 l 1038 453 l 821 453 l 821 1139 l 1038 1139 m 22 611 q 324 728 222 650 q 443 907 425 806 l 85 907 l 85 1078 l 686 1078 q 541 658 686 817 q 101 436 396 500 l 22 611 m 150 390 l 349 390 l 349 290 l 422 290 l 422 390 l 618 390 l 618 58 q 738 170 700 103 q 776 318 776 238 l 776 406 l 982 406 l 982 318 q 1028 151 982 224 q 1176 40 1075 79 l 1065 -122 q 878 42 940 -74 q 694 -122 814 -74 l 618 -12 l 618 -110 l 150 -110 l 150 390 m 422 54 l 422 133 l 349 133 l 349 54 l 422 54 z "},"갓":{"ha":1214,"x_min":17,"x_max":1194,"o":"m 696 1047 q 545 604 696 782 q 106 347 394 426 l 17 521 q 323 664 213 572 q 456 875 433 756 l 92 875 l 92 1047 l 696 1047 m 138 49 q 427 167 338 78 q 517 364 517 256 l 517 389 l 733 389 l 733 364 q 769 232 733 296 q 891 118 806 168 q 1113 49 976 68 l 1029 -124 q 784 -42 885 -100 q 626 103 683 17 q 467 -42 568 17 q 221 -124 365 -100 l 138 49 m 821 1139 l 1038 1139 l 1038 829 l 1194 829 l 1194 653 l 1038 653 l 1038 308 l 821 308 l 821 1139 z "},"갔":{"ha":1214,"x_min":17,"x_max":1194,"o":"m 1038 1139 l 1038 876 l 1194 876 l 1194 699 l 1038 699 l 1038 440 l 821 440 l 821 1139 l 1038 1139 m 17 568 q 316 703 208 617 q 446 901 424 790 l 85 901 l 85 1072 l 686 1072 q 537 641 686 813 q 101 396 388 469 l 17 568 m 60 39 q 231 162 179 81 q 282 347 282 243 l 282 389 l 494 389 l 494 347 q 524 200 494 269 q 615 81 553 131 q 709 203 679 133 q 739 347 739 274 l 739 389 l 956 389 l 956 347 q 1176 39 956 110 l 1068 -118 q 842 85 908 -61 q 617 -131 772 -71 q 390 82 458 -72 q 168 -118 324 -62 l 60 39 z "},"강":{"ha":1214,"x_min":19,"x_max":1194,"o":"m 1038 1139 l 1038 861 l 1194 861 l 1194 682 l 1038 682 l 1038 419 l 821 419 l 821 1139 l 1038 1139 m 19 547 q 317 687 208 597 q 447 889 425 776 l 81 889 l 81 1061 l 686 1061 q 538 626 686 800 q 107 375 390 451 l 19 547 m 189 138 q 243 277 189 217 q 395 370 297 338 q 619 403 493 403 q 845 370 747 403 q 997 277 943 338 q 1051 138 1051 217 q 997 -4 1051 57 q 845 -98 943 -65 q 619 -131 747 -131 q 394 -98 492 -131 q 243 -4 297 -65 q 189 138 189 57 m 403 138 q 619 39 403 39 q 838 138 838 39 q 619 236 838 236 q 403 138 403 236 z "},"갖":{"ha":1214,"x_min":22,"x_max":1194,"o":"m 1038 1139 l 1038 869 l 1194 869 l 1194 692 l 1038 692 l 1038 453 l 821 453 l 821 1139 l 1038 1139 m 22 599 q 324 718 221 639 q 446 901 426 797 l 85 901 l 85 1072 l 688 1072 q 101 424 688 557 l 22 599 m 138 42 q 394 113 307 60 q 501 235 481 165 l 193 235 l 193 403 l 1050 403 l 1050 235 l 746 235 q 854 113 767 168 q 1107 39 942 58 l 1031 -126 q 781 -58 883 -110 q 624 68 679 -7 q 214 -124 506 -89 l 138 42 z "},"갗":{"ha":1214,"x_min":24,"x_max":1194,"o":"m 692 1071 q 100 453 692 563 l 24 626 q 328 732 224 658 q 450 900 432 806 l 89 900 l 89 1071 l 692 1071 m 133 39 q 400 103 313 54 q 504 217 488 151 l 181 217 l 181 383 l 510 383 l 510 497 l 729 497 l 729 383 l 1050 383 l 1050 217 l 735 217 q 838 103 751 151 q 1104 39 925 54 l 1031 -124 q 779 -65 882 -110 q 619 47 676 -21 q 461 -65 564 -21 q 210 -124 358 -110 l 133 39 m 821 1139 l 1038 1139 l 1038 886 l 1194 886 l 1194 711 l 1038 711 l 1038 453 l 821 453 l 821 1139 z "},"같":{"ha":1214,"x_min":26,"x_max":1194,"o":"m 1036 1139 l 1036 897 l 1194 897 l 1194 721 l 1036 721 l 1036 483 l 821 483 l 821 1139 l 1036 1139 m 26 633 q 335 727 235 661 q 451 883 436 793 l 89 883 l 89 1056 l 696 1056 q 552 654 696 799 q 111 463 408 510 l 26 633 m 192 438 l 1043 438 l 1043 281 l 410 281 l 410 238 l 1029 238 l 1029 88 l 410 88 l 410 42 l 1067 42 l 1067 -115 l 192 -115 l 192 438 z "},"갚":{"ha":1214,"x_min":21,"x_max":1194,"o":"m 1038 1139 l 1038 889 l 1194 889 l 1194 711 l 1038 711 l 1038 465 l 821 465 l 821 1139 l 1038 1139 m 21 611 q 324 724 218 647 q 450 899 431 800 l 96 899 l 96 1069 l 693 1069 q 542 654 693 814 q 101 436 392 494 l 21 611 m 190 56 l 339 56 l 339 247 l 200 247 l 200 415 l 1057 415 l 1057 247 l 918 247 l 918 56 l 1071 56 l 1071 -115 l 190 -115 l 190 56 m 706 56 l 706 247 l 553 247 l 553 56 l 706 56 z "},"갛":{"ha":1214,"x_min":24,"x_max":1194,"o":"m 1038 1139 l 1038 900 l 1194 900 l 1194 724 l 1038 724 l 1038 489 l 821 489 l 821 1139 l 1038 1139 m 24 638 q 333 742 236 672 q 444 914 429 813 l 78 914 l 78 1085 l 686 1085 q 546 671 686 819 q 100 467 406 522 l 24 638 m 165 431 l 504 431 l 504 538 l 719 538 l 719 431 l 1058 431 l 1058 269 l 165 269 l 165 431 m 247 58 q 344 193 247 144 q 611 242 442 242 q 877 193 781 242 q 974 58 974 144 q 877 -80 974 -31 q 611 -129 781 -129 q 344 -80 442 -129 q 247 58 247 -31 m 453 58 q 489 28 453 36 q 611 21 525 21 q 734 28 697 21 q 771 58 771 36 q 733 85 771 78 q 611 93 694 93 q 490 85 528 93 q 453 58 453 78 z "},"개":{"ha":1214,"x_min":13,"x_max":1124,"o":"m 1124 1139 l 1124 -126 l 918 -126 l 918 507 l 840 507 l 840 -75 l 639 -75 l 639 1106 l 840 1106 l 840 678 l 918 678 l 918 1139 l 1124 1139 m 13 275 q 269 509 185 382 q 372 814 353 636 l 82 814 l 82 988 l 585 988 q 544 637 585 790 q 404 356 503 483 q 136 126 306 228 l 13 275 z "},"객":{"ha":1214,"x_min":13,"x_max":1119,"o":"m 1119 1139 l 1119 401 l 914 401 l 914 686 l 840 686 l 840 403 l 639 403 l 639 1117 l 840 1117 l 840 861 l 914 861 l 914 1139 l 1119 1139 m 13 551 q 256 689 174 608 q 358 882 338 769 l 78 882 l 78 1053 l 581 1053 q 469 647 581 806 q 111 396 357 488 l 13 551 m 228 353 l 1119 353 l 1119 -128 l 904 -128 l 904 182 l 228 182 l 228 353 z "},"갠":{"ha":1214,"x_min":14,"x_max":1153,"o":"m 1119 1139 l 1119 196 l 913 196 l 913 619 l 840 619 l 840 228 l 638 228 l 638 1115 l 840 1115 l 840 793 l 913 793 l 913 1139 l 1119 1139 m 14 499 q 253 644 174 561 q 353 846 332 728 l 82 846 l 82 1018 l 576 1018 q 469 603 576 765 q 119 342 363 442 l 14 499 m 244 301 l 461 301 l 461 65 l 1153 65 l 1153 -108 l 244 -108 l 244 301 z "},"갣":{"ha":1214,"x_min":24,"x_max":1139,"o":"m 1129 356 l 1129 186 l 468 186 l 468 57 l 1139 57 l 1139 -115 l 253 -115 l 253 356 l 1129 356 m 24 540 q 263 683 185 601 q 358 882 340 765 l 82 882 l 82 1053 l 582 1053 q 538 759 582 883 q 393 542 493 635 q 126 385 293 450 l 24 540 m 638 1117 l 840 1117 l 840 854 l 913 854 l 913 1139 l 1119 1139 l 1119 401 l 913 401 l 913 679 l 840 679 l 840 411 l 638 411 l 638 1117 z "},"갤":{"ha":1214,"x_min":19,"x_max":1157,"o":"m 1119 1139 l 1119 514 l 913 514 l 913 729 l 840 729 l 840 522 l 638 522 l 638 1115 l 840 1115 l 840 900 l 913 900 l 913 1139 l 1119 1139 m 19 618 q 249 731 172 664 q 347 896 326 799 l 86 896 l 86 1065 l 575 1065 q 467 685 575 829 q 121 463 360 542 l 19 618 m 246 468 l 1119 468 l 1119 101 l 463 101 l 463 54 l 1157 54 l 1157 -115 l 247 -115 l 247 257 l 906 257 l 906 301 l 246 301 l 246 468 z "},"갬":{"ha":1214,"x_min":24,"x_max":1119,"o":"m 1119 1139 l 1119 419 l 914 419 l 914 690 l 840 690 l 840 428 l 638 428 l 638 1115 l 840 1115 l 840 864 l 914 864 l 914 1139 l 1119 1139 m 24 540 q 264 683 186 601 q 358 882 342 765 l 82 882 l 82 1053 l 582 1053 q 538 759 582 883 q 393 542 493 635 q 126 385 293 450 l 24 540 m 249 368 l 1119 368 l 1119 -108 l 249 -108 l 249 368 m 907 63 l 907 200 l 463 200 l 463 63 l 907 63 z "},"갭":{"ha":1214,"x_min":22,"x_max":1119,"o":"m 1119 1139 l 1119 460 l 914 460 l 914 701 l 840 701 l 840 467 l 639 467 l 639 1115 l 840 1115 l 840 875 l 914 875 l 914 1139 l 1119 1139 m 22 564 q 254 703 176 624 q 353 894 332 782 l 86 894 l 86 1065 l 578 1065 q 471 660 578 819 q 125 407 364 501 l 22 564 m 249 408 l 464 408 l 464 314 l 906 314 l 906 408 l 1119 408 l 1119 -108 l 249 -108 l 249 408 m 906 61 l 906 147 l 464 147 l 464 61 l 906 61 z "},"갯":{"ha":1214,"x_min":18,"x_max":1178,"o":"m 585 1038 q 477 616 585 783 q 128 344 369 449 l 18 501 q 260 655 178 567 q 361 865 342 743 l 83 865 l 83 1038 l 585 1038 m 182 47 q 410 113 324 65 q 535 224 497 161 q 572 351 572 286 l 572 379 l 788 379 l 788 351 q 825 224 788 286 q 949 113 863 161 q 1178 47 1036 65 l 1096 -124 q 842 -44 946 -101 q 681 97 739 13 q 517 -44 621 13 q 264 -124 413 -101 l 182 47 m 638 1117 l 839 1117 l 839 847 l 913 847 l 913 1139 l 1119 1139 l 1119 314 l 913 314 l 913 672 l 839 672 l 839 435 l 638 435 l 638 1117 z "},"갰":{"ha":1214,"x_min":15,"x_max":1201,"o":"m 1118 1139 l 1118 440 l 913 440 l 913 682 l 839 682 l 839 442 l 638 442 l 638 1117 l 839 1117 l 839 857 l 913 857 l 913 1139 l 1118 1139 m 15 551 q 253 689 174 608 q 353 881 333 769 l 81 881 l 81 1053 l 579 1053 q 470 646 579 804 q 118 394 361 488 l 15 551 m 81 44 q 253 165 200 85 q 306 347 306 244 l 306 389 l 517 389 l 517 347 q 546 203 517 272 q 638 85 575 135 q 733 206 703 138 q 763 347 763 274 l 763 389 l 978 389 l 978 347 q 1201 44 978 113 l 1097 -114 q 865 89 935 -60 q 642 -126 793 -67 q 414 85 485 -69 q 188 -114 344 -58 l 81 44 z "},"갱":{"ha":1214,"x_min":14,"x_max":1126,"o":"m 1119 1139 l 1119 389 l 914 389 l 914 683 l 840 683 l 840 428 l 639 428 l 639 1117 l 840 1117 l 840 858 l 914 858 l 914 1139 l 1119 1139 m 14 525 q 256 674 175 588 q 357 881 338 760 l 89 881 l 89 1053 l 583 1053 q 474 633 583 799 q 117 367 364 467 l 14 525 m 243 132 q 298 265 243 208 q 453 353 353 322 q 686 385 553 385 q 918 353 818 385 q 1072 265 1018 322 q 1126 132 1126 208 q 1072 -3 1126 54 q 918 -92 1018 -61 q 686 -124 818 -124 q 453 -92 553 -124 q 298 -3 353 -61 q 243 132 243 54 m 461 132 q 686 42 461 42 q 910 132 910 42 q 853 199 910 178 q 686 221 797 221 q 517 199 574 221 q 461 132 461 178 z "},"갸":{"ha":1214,"x_min":13,"x_max":1196,"o":"m 1036 1140 l 1036 839 l 1196 839 l 1196 663 l 1036 663 l 1036 465 l 1196 465 l 1196 286 l 1036 286 l 1036 -125 l 818 -125 l 818 1140 l 1036 1140 m 13 244 q 335 497 224 354 q 472 838 447 639 l 86 838 l 86 1013 l 693 1013 q 565 465 693 697 q 132 81 436 233 l 13 244 z "},"갹":{"ha":1214,"x_min":11,"x_max":1194,"o":"m 1038 1139 l 1038 988 l 1194 988 l 1194 814 l 1038 814 l 1038 715 l 1194 715 l 1194 543 l 1038 543 l 1038 408 l 821 408 l 821 1139 l 1038 1139 m 11 568 q 315 702 206 615 q 446 901 424 789 l 78 901 l 78 1072 l 682 1072 q 533 644 682 814 q 100 401 383 474 l 11 568 m 182 358 l 1038 358 l 1038 -128 l 821 -128 l 821 189 l 182 189 l 182 358 z "},"갼":{"ha":1214,"x_min":19,"x_max":1194,"o":"m 1038 1138 l 1038 940 l 1194 940 l 1194 765 l 1038 765 l 1038 638 l 1194 638 l 1194 463 l 1038 463 l 1038 243 l 819 243 l 819 1138 l 1038 1138 m 19 524 q 325 665 215 574 q 457 874 435 756 l 76 874 l 76 1046 l 694 1046 q 547 606 694 781 q 110 353 399 432 l 19 524 m 204 335 l 422 335 l 422 65 l 1072 65 l 1072 -108 l 204 -108 l 204 335 z "},"걀":{"ha":1214,"x_min":24,"x_max":1193,"o":"m 1038 1139 l 1038 1029 l 1193 1029 l 1193 860 l 1038 860 l 1038 785 l 1193 785 l 1193 614 l 1038 614 l 1038 514 l 821 514 l 821 1139 l 1038 1139 m 24 654 q 329 760 225 686 q 450 928 433 833 l 89 928 l 89 1099 l 694 1099 q 101 478 694 589 l 24 654 m 186 469 l 1038 469 l 1038 100 l 401 100 l 401 56 l 1068 56 l 1068 -115 l 188 -115 l 188 258 l 822 258 l 822 300 l 186 300 l 186 469 z "},"걋":{"ha":1214,"x_min":17,"x_max":1192,"o":"m 1038 1139 l 1038 961 l 1192 961 l 1192 786 l 1038 786 l 1038 668 l 1192 668 l 1192 493 l 1038 493 l 1038 308 l 821 308 l 821 1139 l 1038 1139 m 17 521 q 323 664 213 572 q 456 875 433 756 l 92 875 l 92 1047 l 696 1047 q 545 605 696 782 q 106 347 394 428 l 17 521 m 138 49 q 427 167 338 78 q 517 364 517 256 l 517 389 l 733 389 l 733 364 q 769 232 733 296 q 891 118 806 168 q 1113 49 976 68 l 1029 -124 q 784 -42 885 -100 q 626 103 683 17 q 467 -42 568 17 q 221 -124 365 -100 l 138 49 z "},"걍":{"ha":1214,"x_min":19,"x_max":1190,"o":"m 1038 1139 l 1038 985 l 1190 985 l 1190 808 l 1038 808 l 1038 722 l 1190 722 l 1190 544 l 1038 544 l 1038 419 l 821 419 l 821 1139 l 1038 1139 m 19 547 q 317 686 210 597 q 447 889 425 775 l 81 889 l 81 1061 l 686 1061 q 538 626 686 800 q 107 375 390 451 l 19 547 m 189 138 q 243 277 189 217 q 395 370 297 338 q 619 403 493 403 q 845 370 747 403 q 997 277 943 338 q 1051 138 1051 217 q 997 -4 1051 57 q 845 -98 943 -65 q 619 -131 747 -131 q 394 -98 492 -131 q 243 -4 297 -65 q 189 138 189 57 m 404 138 q 619 39 404 39 q 838 138 838 39 q 619 236 838 236 q 404 138 404 236 z "},"걔":{"ha":1214,"x_min":13,"x_max":1124,"o":"m 1124 1139 l 1124 -126 l 918 -126 l 918 322 l 840 322 l 840 -75 l 639 -75 l 639 1106 l 840 1106 l 840 847 l 918 847 l 918 1139 l 1124 1139 m 13 275 q 269 509 185 382 q 372 814 353 636 l 82 814 l 82 988 l 585 988 q 544 637 585 790 q 404 356 503 483 q 136 126 306 228 l 13 275 m 918 493 l 918 674 l 840 674 l 840 493 l 918 493 z "},"걘":{"ha":1214,"x_min":14,"x_max":1153,"o":"m 1119 1139 l 1119 196 l 913 196 l 913 458 l 840 458 l 840 228 l 638 228 l 638 1115 l 840 1115 l 840 925 l 913 925 l 913 1139 l 1119 1139 m 14 499 q 253 644 174 561 q 353 846 332 728 l 82 846 l 82 1018 l 576 1018 q 469 603 576 765 q 119 342 363 442 l 14 499 m 244 301 l 461 301 l 461 65 l 1153 65 l 1153 -108 l 244 -108 l 244 301 m 913 629 l 913 753 l 840 753 l 840 629 l 913 629 z "},"걜":{"ha":1214,"x_min":19,"x_max":1157,"o":"m 1119 1139 l 1119 514 l 913 514 l 913 614 l 840 614 l 840 522 l 638 522 l 638 1115 l 840 1115 l 840 1010 l 913 1010 l 913 1139 l 1119 1139 m 19 618 q 249 731 172 664 q 346 894 326 799 l 86 894 l 86 1065 l 575 1065 q 467 685 575 829 q 121 463 360 542 l 19 618 m 246 468 l 1119 468 l 1119 101 l 463 101 l 463 54 l 1157 54 l 1157 -115 l 247 -115 l 247 257 l 906 257 l 906 301 l 246 301 l 246 468 m 913 778 l 913 846 l 840 846 l 840 778 l 913 778 z "},"걥":{"ha":1214,"x_min":22,"x_max":1119,"o":"m 1119 1139 l 1119 460 l 914 460 l 914 576 l 840 576 l 840 467 l 639 467 l 639 1115 l 840 1115 l 840 1003 l 914 1003 l 914 1139 l 1119 1139 m 22 564 q 254 703 176 624 q 353 894 332 782 l 86 894 l 86 1065 l 578 1065 q 471 660 578 819 q 125 407 364 501 l 22 564 m 249 408 l 464 408 l 464 314 l 906 314 l 906 408 l 1119 408 l 1119 -108 l 249 -108 l 249 408 m 906 61 l 906 147 l 464 147 l 464 61 l 906 61 m 914 747 l 914 831 l 840 831 l 840 747 l 914 747 z "},"거":{"ha":1214,"x_min":14,"x_max":1104,"o":"m 1104 1138 l 1104 -128 l 886 -128 l 886 490 l 669 490 l 669 665 l 886 665 l 886 1138 l 1104 1138 m 14 247 q 258 410 165 324 q 399 600 351 496 q 461 839 447 704 l 76 839 l 76 1011 l 682 1011 q 634 632 682 797 q 464 327 586 467 q 125 79 342 188 l 14 247 z "},"걱":{"ha":1214,"x_min":40,"x_max":1104,"o":"m 693 1071 q 549 645 693 815 q 125 399 404 475 l 40 567 q 331 703 226 617 q 458 900 436 789 l 113 900 l 113 1071 l 693 1071 m 232 360 l 1104 360 l 1104 -122 l 886 -122 l 886 190 l 232 190 l 232 360 m 708 843 l 886 843 l 886 1139 l 1104 1139 l 1104 408 l 886 408 l 886 668 l 708 668 l 708 843 z "},"건":{"ha":1214,"x_min":47,"x_max":1135,"o":"m 1103 1139 l 1103 219 l 886 219 l 886 608 l 697 608 l 697 782 l 886 782 l 886 1139 l 1103 1139 m 47 503 q 342 654 232 558 q 478 874 453 750 l 114 874 l 114 1046 l 711 1046 q 563 599 711 782 q 136 331 415 415 l 47 503 m 260 308 l 476 308 l 476 65 l 1135 65 l 1135 -108 l 260 -108 l 260 308 z "},"걷":{"ha":1214,"x_min":36,"x_max":1131,"o":"m 688 1071 q 544 642 688 814 q 121 393 401 471 l 36 561 q 328 699 224 613 q 454 900 432 786 l 107 900 l 107 1071 l 688 1071 m 261 388 l 1107 388 l 1107 217 l 479 217 l 479 57 l 1131 57 l 1131 -115 l 261 -115 l 261 388 m 699 853 l 886 853 l 886 1139 l 1104 1139 l 1104 439 l 886 439 l 886 678 l 699 678 l 699 853 z "},"걸":{"ha":1214,"x_min":47,"x_max":1119,"o":"m 1104 1139 l 1104 514 l 886 514 l 886 718 l 693 718 l 693 889 l 886 889 l 886 1139 l 1104 1139 m 47 647 q 442 929 401 721 l 125 929 l 125 1099 l 676 1099 q 540 694 676 846 q 121 478 403 543 l 47 647 m 257 471 l 1104 471 l 1104 100 l 476 100 l 476 56 l 1119 56 l 1119 -115 l 258 -115 l 258 258 l 886 258 l 886 301 l 257 301 l 257 471 z "},"걺":{"ha":1214,"x_min":49,"x_max":1104,"o":"m 1104 1139 l 1104 496 l 886 496 l 886 700 l 703 700 l 703 872 l 886 872 l 886 1139 l 1104 1139 m 49 639 q 457 924 417 711 l 117 924 l 117 1093 l 693 1093 q 552 686 693 839 q 124 472 411 533 l 49 639 m 179 246 l 403 246 l 403 289 l 179 289 l 179 449 l 614 449 l 614 99 l 390 99 l 390 50 q 517 56 465 51 q 624 69 569 60 l 642 -93 q 489 -111 565 -107 q 260 -115 413 -115 l 179 -115 l 179 246 m 668 449 l 1104 449 l 1104 -115 l 668 -115 l 668 449 m 918 42 l 918 292 l 853 292 l 853 42 l 918 42 z "},"검":{"ha":1214,"x_min":36,"x_max":1104,"o":"m 689 1071 q 544 645 689 815 q 121 399 400 475 l 36 567 q 328 703 224 617 q 456 900 433 789 l 108 900 l 108 1071 l 689 1071 m 260 389 l 1104 389 l 1104 -115 l 260 -115 l 260 389 m 889 56 l 889 219 l 475 219 l 475 56 l 889 56 m 699 853 l 886 853 l 886 1139 l 1104 1139 l 1104 439 l 886 439 l 886 678 l 699 678 l 699 853 z "},"겁":{"ha":1214,"x_min":43,"x_max":1104,"o":"m 1104 1139 l 1104 453 l 886 453 l 886 689 l 696 689 l 696 864 l 886 864 l 886 1139 l 1104 1139 m 43 585 q 458 900 419 672 l 113 900 l 113 1071 l 694 1071 q 556 649 694 810 q 125 415 417 488 l 43 585 m 253 401 l 468 401 l 468 303 l 889 303 l 889 401 l 1104 401 l 1104 -117 l 253 -117 l 253 401 m 889 57 l 889 138 l 468 138 l 468 57 l 889 57 z "},"것":{"ha":1214,"x_min":47,"x_max":1156,"o":"m 1103 1139 l 1103 308 l 885 308 l 885 642 l 697 642 l 697 814 l 885 814 l 885 1139 l 1103 1139 m 47 514 q 340 660 244 571 q 454 874 436 749 l 114 874 l 114 1046 l 688 1046 q 557 606 688 775 q 138 346 426 436 l 47 514 m 179 47 q 400 117 315 67 q 522 230 485 167 q 558 360 558 293 l 558 393 l 775 393 l 775 360 q 812 230 775 293 q 933 117 849 167 q 1156 47 1018 67 l 1069 -124 q 824 -42 925 -100 q 667 100 724 15 q 507 -44 608 14 q 260 -125 406 -101 l 179 47 z "},"겄":{"ha":1214,"x_min":35,"x_max":1204,"o":"m 688 1071 q 543 645 688 815 q 119 399 399 475 l 35 567 q 326 703 221 617 q 453 900 431 789 l 107 900 l 107 1071 l 688 1071 m 83 40 q 256 163 203 82 q 308 349 308 244 l 308 390 l 519 390 l 519 349 q 549 202 519 272 q 640 82 578 132 q 735 203 706 133 q 765 349 765 274 l 765 390 l 979 390 l 979 349 q 1204 40 979 110 l 1099 -117 q 867 86 936 -62 q 640 -129 797 -69 q 417 82 485 -71 q 190 -117 344 -62 l 83 40 m 697 851 l 885 851 l 885 1139 l 1103 1139 l 1103 440 l 885 440 l 885 676 l 697 676 l 697 851 z "},"겅":{"ha":1214,"x_min":39,"x_max":1113,"o":"m 1104 1139 l 1104 433 l 886 433 l 886 656 l 708 656 l 708 829 l 886 829 l 886 1139 l 1104 1139 m 39 551 q 338 685 239 601 q 456 885 438 769 l 114 885 l 114 1057 l 693 1057 q 556 624 693 789 q 124 382 418 460 l 39 551 m 249 147 q 303 290 249 229 q 455 383 357 350 q 681 415 553 415 q 906 383 808 415 q 1058 290 1004 350 q 1113 147 1113 229 q 1058 6 1113 67 q 906 -87 1004 -54 q 681 -121 807 -121 q 456 -87 554 -121 q 303 6 357 -54 q 249 147 249 67 m 463 147 q 681 49 463 49 q 897 147 897 49 q 681 249 897 249 q 463 147 463 249 z "},"겆":{"ha":1214,"x_min":38,"x_max":1157,"o":"m 707 1071 q 557 651 707 813 q 113 424 407 489 l 38 596 q 344 716 238 636 q 469 900 450 796 l 113 900 l 113 1071 l 707 1071 m 189 40 q 449 108 363 57 q 551 225 536 160 l 246 225 l 246 396 l 1108 396 l 1108 225 l 793 225 q 899 108 811 160 q 1157 40 986 57 l 1082 -122 q 831 -60 933 -107 q 674 58 729 -14 q 515 -60 617 -14 q 264 -122 413 -107 l 189 40 m 697 842 l 885 842 l 885 1139 l 1103 1139 l 1103 446 l 885 446 l 885 667 l 697 667 l 697 842 z "},"겉":{"ha":1214,"x_min":44,"x_max":1128,"o":"m 1110 438 l 1110 281 l 478 281 l 478 239 l 1085 239 l 1085 89 l 478 89 l 478 44 l 1128 44 l 1128 -114 l 260 -114 l 260 438 l 1110 438 m 44 613 q 457 917 417 692 l 108 917 l 108 1088 l 694 1088 q 554 671 694 829 q 125 443 414 513 l 44 613 m 697 865 l 886 865 l 886 1139 l 1104 1139 l 1104 489 l 886 489 l 886 690 l 697 690 l 697 865 z "},"겊":{"ha":1214,"x_min":43,"x_max":1128,"o":"m 693 1071 q 549 652 693 818 q 125 413 404 486 l 43 583 q 332 710 228 628 q 458 900 436 793 l 111 900 l 111 1071 l 693 1071 m 215 63 l 375 63 l 375 242 l 231 242 l 231 410 l 1113 410 l 1113 242 l 968 242 l 968 63 l 1128 63 l 1128 -108 l 215 -108 l 215 63 m 754 63 l 754 242 l 589 242 l 589 63 l 754 63 m 696 846 l 886 846 l 886 1139 l 1104 1139 l 1104 465 l 886 465 l 886 671 l 696 671 l 696 846 z "},"겋":{"ha":1214,"x_min":38,"x_max":1111,"o":"m 669 1082 q 538 672 669 821 q 113 458 406 522 l 38 625 q 329 737 236 664 q 438 914 422 810 l 114 914 l 114 1082 l 669 1082 m 217 421 l 556 421 l 556 539 l 774 539 l 774 421 l 1111 421 l 1111 261 l 217 261 l 217 421 m 303 53 q 399 185 303 138 q 664 232 496 232 q 931 185 833 232 q 1028 53 1028 138 q 931 -81 1028 -33 q 664 -128 833 -128 q 399 -81 494 -128 q 303 53 303 -33 m 531 53 q 562 24 531 32 q 664 17 593 17 q 767 24 736 17 q 799 53 799 32 q 767 78 799 71 q 664 85 735 85 q 563 78 594 85 q 531 53 531 71 m 697 889 l 886 889 l 886 1139 l 1104 1139 l 1104 476 l 886 476 l 886 715 l 697 715 l 697 889 z "},"게":{"ha":1214,"x_min":13,"x_max":1132,"o":"m 1132 1139 l 1132 -126 l 926 -126 l 926 1139 l 1132 1139 m 13 281 q 274 515 190 388 q 375 822 357 642 l 89 822 l 89 996 l 589 996 q 556 671 589 813 l 658 671 l 658 1115 l 860 1115 l 860 -74 l 658 -74 l 658 500 l 496 500 q 354 299 443 390 q 132 131 265 207 l 13 281 z "},"겐":{"ha":1214,"x_min":17,"x_max":1169,"o":"m 1119 1139 l 1119 203 l 913 203 l 913 1139 l 1119 1139 m 17 504 q 257 651 178 567 q 356 853 336 735 l 100 853 l 100 1024 l 582 1024 q 549 765 582 881 l 653 765 l 653 1115 l 856 1115 l 856 235 l 653 235 l 653 594 l 465 594 q 124 344 356 439 l 17 504 m 268 318 l 486 318 l 486 65 l 1169 65 l 1169 -108 l 268 -108 l 268 318 z "},"겔":{"ha":1214,"x_min":31,"x_max":1157,"o":"m 1119 1139 l 1119 514 l 913 514 l 913 1139 l 1119 1139 m 31 618 q 258 731 182 664 q 354 896 335 799 l 103 896 l 103 1065 l 583 1065 q 560 864 583 949 l 653 864 l 653 1115 l 856 1115 l 856 515 l 653 515 l 653 694 l 483 694 q 342 560 428 618 q 132 461 256 503 l 31 618 m 246 468 l 1119 468 l 1119 101 l 465 101 l 465 54 l 1157 54 l 1157 -115 l 247 -115 l 247 257 l 903 257 l 903 301 l 246 301 l 246 468 z "},"겜":{"ha":1214,"x_min":32,"x_max":1119,"o":"m 585 1053 q 558 821 585 922 l 654 821 l 654 1115 l 856 1115 l 856 421 l 654 421 l 654 650 l 485 650 q 347 500 432 565 q 138 383 261 435 l 32 540 q 263 683 186 601 q 360 881 340 765 l 103 881 l 103 1053 l 585 1053 m 253 363 l 1119 363 l 1119 -110 l 253 -110 l 253 363 m 906 61 l 906 194 l 467 194 l 467 61 l 906 61 m 914 1139 l 1119 1139 l 1119 413 l 914 413 l 914 1139 z "},"겝":{"ha":1214,"x_min":26,"x_max":1119,"o":"m 579 1057 q 556 839 579 932 l 654 839 l 654 1115 l 856 1115 l 856 454 l 654 454 l 654 667 l 479 667 q 129 424 374 511 l 26 579 q 259 706 185 632 q 351 885 333 779 l 107 885 l 107 1057 l 579 1057 m 249 401 l 464 401 l 464 304 l 906 304 l 906 401 l 1119 401 l 1119 -108 l 249 -108 l 249 401 m 906 63 l 906 139 l 464 139 l 464 63 l 906 63 m 914 1139 l 1119 1139 l 1119 444 l 914 444 l 914 1139 z "},"겟":{"ha":1214,"x_min":22,"x_max":1169,"o":"m 1119 1139 l 1119 328 l 913 328 l 913 1139 l 1119 1139 m 22 501 q 258 655 179 568 q 356 865 336 742 l 93 865 l 93 1038 l 581 1038 q 556 807 581 911 l 653 807 l 653 1117 l 856 1117 l 856 435 l 653 435 l 653 636 l 489 636 q 131 342 379 451 l 22 501 m 168 47 q 397 113 310 65 q 522 224 485 161 q 560 351 560 286 l 560 379 l 776 379 l 776 351 q 814 224 776 286 q 939 113 851 161 q 1169 47 1026 65 l 1088 -124 q 833 -44 938 -101 q 668 97 728 13 q 502 -44 607 13 q 249 -124 397 -101 l 168 47 z "},"겠":{"ha":1214,"x_min":28,"x_max":1201,"o":"m 588 1054 q 561 825 588 926 l 653 825 l 653 1117 l 854 1117 l 854 442 l 653 442 l 653 654 l 489 654 q 132 382 381 482 l 28 540 q 264 683 185 600 q 363 882 343 765 l 101 882 l 101 1054 l 588 1054 m 81 44 q 253 165 200 85 q 306 347 306 244 l 306 389 l 517 389 l 517 347 q 546 203 517 272 q 638 85 575 135 q 733 206 703 138 q 763 347 763 274 l 763 389 l 978 389 l 978 347 q 1201 44 978 113 l 1097 -114 q 865 88 933 -58 q 642 -126 793 -67 q 414 83 486 -69 q 186 -114 342 -60 l 81 44 m 913 1139 l 1118 1139 l 1118 426 l 913 426 l 913 1139 z "},"겡":{"ha":1214,"x_min":21,"x_max":1132,"o":"m 588 1053 q 563 825 588 929 l 654 825 l 654 1117 l 856 1117 l 856 428 l 654 428 l 654 654 l 493 654 q 125 367 383 474 l 21 525 q 261 674 181 589 q 361 881 342 760 l 94 881 l 94 1053 l 588 1053 m 247 131 q 302 264 247 207 q 458 351 357 321 q 690 382 558 382 q 922 351 822 382 q 1077 264 1022 321 q 1132 131 1132 207 q 1077 -3 1132 54 q 922 -92 1022 -61 q 690 -124 822 -124 q 458 -92 558 -124 q 302 -3 357 -61 q 247 131 247 54 m 465 131 q 523 62 465 85 q 690 39 581 39 q 914 131 914 39 q 858 199 914 178 q 690 221 801 221 q 522 199 578 221 q 465 131 465 178 m 914 1139 l 1119 1139 l 1119 389 l 914 389 l 914 1139 z "},"겨":{"ha":1214,"x_min":14,"x_max":1104,"o":"m 682 1011 q 671 826 682 906 l 886 826 l 886 1138 l 1104 1138 l 1104 -128 l 886 -128 l 886 307 l 617 307 l 617 478 l 886 478 l 886 656 l 638 656 q 461 330 585 474 q 125 79 338 186 l 14 247 q 330 499 224 358 q 460 839 436 639 l 78 839 l 78 1011 l 682 1011 z "},"격":{"ha":1214,"x_min":46,"x_max":1104,"o":"m 711 1061 q 703 947 711 1001 l 886 947 l 886 1139 l 1104 1139 l 1104 389 l 886 389 l 886 506 l 635 506 l 635 678 l 886 678 l 886 776 l 656 776 q 460 533 593 632 q 126 381 326 433 l 46 550 q 348 687 239 599 q 479 889 457 775 l 121 889 l 121 1061 l 711 1061 m 232 339 l 1104 339 l 1104 -122 l 886 -122 l 886 168 l 232 168 l 232 339 z "},"겪":{"ha":1214,"x_min":47,"x_max":1104,"o":"m 710 1071 q 703 967 710 1022 l 886 967 l 886 1139 l 1104 1139 l 1104 419 l 886 419 l 886 522 l 635 522 l 635 694 l 886 694 l 886 796 l 658 796 q 463 552 596 651 q 132 401 331 453 l 47 569 q 347 703 239 617 q 478 900 456 789 l 121 900 l 121 1071 l 710 1071 m 185 371 l 624 371 l 624 -128 l 406 -128 l 406 200 l 185 200 l 185 371 m 675 371 l 1104 371 l 1104 -128 l 886 -128 l 886 200 l 675 200 l 675 371 z "},"견":{"ha":1214,"x_min":49,"x_max":1135,"o":"m 1103 1139 l 1103 213 l 886 213 l 886 449 l 631 449 l 631 621 l 886 621 l 886 733 l 653 733 q 456 490 586 592 q 138 333 325 389 l 49 504 q 347 657 235 561 q 482 874 458 753 l 118 874 l 118 1046 l 718 1046 q 706 906 718 972 l 886 906 l 886 1139 l 1103 1139 m 260 301 l 476 301 l 476 65 l 1135 65 l 1135 -108 l 260 -108 l 260 301 z "},"겯":{"ha":1214,"x_min":40,"x_max":1131,"o":"m 694 1071 q 689 978 694 1018 l 886 978 l 886 1139 l 1104 1139 l 1104 439 l 886 439 l 886 528 l 631 528 l 631 700 l 886 700 l 886 806 l 647 806 q 456 556 588 658 q 122 401 324 454 l 40 569 q 333 702 228 617 q 461 900 438 788 l 107 900 l 107 1071 l 694 1071 m 261 388 l 1107 388 l 1107 217 l 479 217 l 479 57 l 1131 57 l 1131 -115 l 261 -115 l 261 388 z "},"결":{"ha":1214,"x_min":47,"x_max":1119,"o":"m 1104 1139 l 1104 510 l 886 510 l 886 585 l 632 585 l 632 746 l 886 746 l 886 831 l 642 831 q 454 608 583 694 q 119 479 325 522 l 47 653 q 449 926 413 719 l 125 926 l 125 1097 l 689 1097 q 683 994 689 1038 l 886 994 l 886 1139 l 1104 1139 m 257 469 l 1104 469 l 1104 100 l 476 100 l 476 56 l 1119 56 l 1119 -115 l 258 -115 l 258 258 l 886 258 l 886 300 l 257 300 l 257 469 z "},"겷":{"ha":1214,"x_min":47,"x_max":1156,"o":"m 1103 1139 l 1103 521 l 885 521 l 885 593 l 629 593 l 629 754 l 885 754 l 885 838 l 639 838 q 453 619 582 704 q 117 492 324 535 l 47 664 q 449 931 408 728 l 124 931 l 124 1103 l 688 1103 q 682 1000 688 1043 l 885 1000 l 885 1139 l 1103 1139 m 179 246 l 381 246 l 381 289 l 179 289 l 179 449 l 592 449 l 592 99 l 389 99 l 389 49 q 521 56 468 51 q 628 69 574 60 l 646 -93 q 493 -111 571 -107 q 258 -115 415 -115 l 179 -115 l 179 246 m 639 390 l 789 390 l 789 481 l 1000 481 l 1000 390 l 1156 390 l 1156 238 l 639 238 l 639 390 m 658 43 q 724 168 658 119 q 892 217 790 217 q 1060 168 993 217 q 1126 43 1126 119 q 1060 -83 1126 -35 q 892 -131 994 -131 q 724 -83 789 -131 q 658 43 658 -35 m 843 43 q 892 11 843 11 q 940 43 940 11 q 927 67 940 61 q 892 72 914 72 q 856 67 869 72 q 843 43 843 61 z "},"겸":{"ha":1214,"x_min":38,"x_max":1104,"o":"m 886 725 l 886 817 l 649 817 q 458 559 590 664 q 121 399 325 454 l 38 567 q 330 703 225 617 q 457 900 435 789 l 108 900 l 108 1071 l 692 1071 q 688 990 692 1031 l 886 990 l 886 1139 l 1104 1139 l 1104 433 l 886 433 l 886 550 l 633 550 l 633 725 l 886 725 m 260 385 l 1104 385 l 1104 -115 l 260 -115 l 260 385 m 889 56 l 889 215 l 475 215 l 475 56 l 889 56 z "},"겹":{"ha":1214,"x_min":44,"x_max":1104,"o":"m 886 722 l 886 813 l 654 813 q 468 567 599 665 q 126 415 338 468 l 44 585 q 461 900 422 671 l 113 900 l 113 1071 l 697 1071 q 693 985 697 1026 l 886 985 l 886 1139 l 1104 1139 l 1104 453 l 886 453 l 886 547 l 640 547 l 640 722 l 886 722 m 253 401 l 468 401 l 468 303 l 889 303 l 889 401 l 1104 401 l 1104 -117 l 253 -117 l 253 401 m 889 57 l 889 138 l 468 138 l 468 57 l 889 57 z "},"겻":{"ha":1214,"x_min":49,"x_max":1156,"o":"m 885 678 l 885 775 l 650 775 q 472 515 597 621 q 138 346 347 410 l 49 515 q 342 661 246 572 q 456 874 438 750 l 114 874 l 114 1046 l 690 1046 q 686 946 690 994 l 885 946 l 885 1139 l 1103 1139 l 1103 301 l 885 301 l 885 506 l 638 506 l 638 678 l 885 678 m 179 47 q 400 117 315 67 q 522 230 485 167 q 558 360 558 293 l 558 388 l 775 388 l 775 360 q 812 230 775 293 q 933 117 849 167 q 1156 47 1018 67 l 1069 -124 q 824 -42 925 -100 q 667 100 724 15 q 507 -44 608 14 q 260 -125 406 -101 l 179 47 z "},"겼":{"ha":1214,"x_min":40,"x_max":1204,"o":"m 885 715 l 885 808 l 649 808 q 122 399 529 508 l 40 567 q 333 701 228 615 q 463 900 439 788 l 107 900 l 107 1071 l 696 1071 q 692 982 696 1026 l 885 982 l 885 1139 l 1103 1139 l 1103 440 l 885 440 l 885 542 l 636 542 l 636 715 l 885 715 m 83 40 q 256 163 203 82 q 308 349 308 244 l 308 390 l 519 390 l 519 349 q 549 202 519 272 q 640 82 578 132 q 735 205 706 135 q 765 349 765 275 l 765 390 l 979 390 l 979 349 q 1204 40 979 110 l 1099 -117 q 867 86 936 -62 q 640 -129 797 -69 q 417 82 485 -71 q 190 -117 344 -62 l 83 40 z "},"경":{"ha":1214,"x_min":42,"x_max":1113,"o":"m 886 694 l 886 785 l 653 785 q 466 537 596 636 q 125 382 336 438 l 42 551 q 342 685 243 601 q 460 885 440 769 l 114 885 l 114 1057 l 697 1057 q 692 956 697 999 l 886 956 l 886 1139 l 1104 1139 l 1104 426 l 886 426 l 886 522 l 638 522 l 638 694 l 886 694 m 249 144 q 303 285 249 225 q 455 376 357 344 q 681 408 553 408 q 906 376 808 408 q 1058 285 1004 344 q 1113 144 1113 225 q 1058 5 1113 65 q 906 -88 1004 -56 q 681 -121 808 -121 q 455 -88 553 -121 q 303 5 357 -56 q 249 144 249 65 m 463 144 q 681 47 463 47 q 897 144 897 47 q 681 243 897 243 q 463 144 463 243 z "},"곁":{"ha":1214,"x_min":44,"x_max":1128,"o":"m 886 742 l 886 829 l 650 829 q 464 588 594 683 q 125 443 333 492 l 44 613 q 457 917 417 692 l 108 917 l 108 1088 l 694 1088 q 689 993 694 1033 l 886 993 l 886 1139 l 1104 1139 l 1104 489 l 886 489 l 886 578 l 631 578 l 631 742 l 886 742 m 260 438 l 1110 438 l 1110 281 l 478 281 l 478 239 l 1085 239 l 1085 89 l 478 89 l 478 44 l 1128 44 l 1128 -114 l 260 -114 l 260 438 z "},"계":{"ha":1214,"x_min":8,"x_max":1133,"o":"m 663 500 l 663 643 l 542 643 q 400 357 499 483 q 129 131 301 231 l 8 281 q 269 515 186 388 q 369 822 351 642 l 89 822 l 89 996 l 582 996 q 572 813 582 894 l 663 813 l 663 1115 l 865 1115 l 865 -74 l 663 -74 l 663 328 l 517 328 l 517 500 l 663 500 m 926 1139 l 1133 1139 l 1133 -126 l 926 -126 l 926 1139 z "},"곈":{"ha":1214,"x_min":14,"x_max":1160,"o":"m 653 611 l 653 719 l 528 719 q 381 499 481 593 q 121 338 282 406 l 14 496 q 253 646 174 560 q 351 853 332 732 l 100 853 l 100 1024 l 576 1024 q 569 890 576 960 l 653 890 l 653 1115 l 856 1115 l 856 235 l 653 235 l 653 439 l 501 439 l 501 611 l 653 611 m 260 318 l 478 318 l 478 65 l 1160 65 l 1160 -108 l 260 -108 l 260 318 m 913 1139 l 1119 1139 l 1119 203 l 913 203 l 913 1139 z "},"곌":{"ha":1214,"x_min":28,"x_max":1157,"o":"m 653 746 l 653 819 l 543 819 q 399 606 500 693 q 131 461 299 518 l 28 618 q 256 732 181 665 q 350 896 331 799 l 103 896 l 103 1065 l 579 1065 q 576 982 579 1035 l 653 982 l 653 1115 l 856 1115 l 856 515 l 653 515 l 653 583 l 522 583 l 522 746 l 653 746 m 246 468 l 1119 468 l 1119 101 l 465 101 l 465 54 l 1157 54 l 1157 -115 l 247 -115 l 247 257 l 903 257 l 903 301 l 246 301 l 246 468 m 913 1139 l 1119 1139 l 1119 514 l 913 514 l 913 1139 z "},"곕":{"ha":1214,"x_min":24,"x_max":1119,"o":"m 654 711 l 654 792 l 539 792 q 397 571 496 663 q 128 415 297 479 l 24 572 q 257 701 182 626 q 349 885 332 776 l 107 885 l 107 1057 l 575 1057 q 571 953 575 1003 l 654 953 l 654 1115 l 856 1115 l 856 446 l 654 446 l 654 549 l 532 549 l 532 711 l 654 711 m 249 393 l 464 393 l 464 300 l 906 300 l 906 393 l 1119 393 l 1119 -108 l 249 -108 l 249 393 m 906 63 l 906 136 l 464 136 l 464 63 l 906 63 m 914 1139 l 1119 1139 l 1119 439 l 914 439 l 914 1139 z "},"곗":{"ha":1214,"x_min":19,"x_max":1169,"o":"m 653 678 l 653 767 l 540 767 q 397 520 497 625 q 129 340 297 415 l 19 499 q 254 654 176 567 q 351 867 332 742 l 93 867 l 93 1039 l 576 1039 q 572 935 576 985 l 653 935 l 653 1117 l 856 1117 l 856 414 l 653 414 l 653 510 l 525 510 l 525 678 l 653 678 m 169 47 q 399 110 311 64 q 523 215 486 156 q 560 338 560 275 l 560 365 l 776 365 l 776 338 q 814 215 776 275 q 939 110 851 156 q 1169 47 1026 64 l 1090 -122 q 833 -47 939 -101 q 668 89 728 7 q 502 -48 607 7 q 246 -122 397 -103 l 169 47 m 913 1139 l 1119 1139 l 1119 301 l 913 301 l 913 1139 z "},"고":{"ha":1214,"x_min":35,"x_max":1181,"o":"m 1086 1042 l 1086 922 q 1077 624 1086 758 q 1032 306 1068 489 l 817 329 q 857 610 847 482 q 867 869 867 738 l 150 869 l 150 1042 l 1086 1042 m 35 186 l 418 186 l 418 611 l 638 611 l 638 186 l 1181 186 l 1181 11 l 35 11 l 35 186 z "},"곡":{"ha":1214,"x_min":38,"x_max":1176,"o":"m 435 571 l 435 794 l 651 794 l 651 571 l 1176 571 l 1176 399 l 38 399 l 38 571 l 435 571 m 153 311 l 1029 311 l 1029 -126 l 813 -126 l 813 140 l 153 140 l 153 311 m 163 1079 l 1046 1079 l 1046 993 q 1040 810 1046 893 q 1014 624 1035 726 l 797 643 q 828 910 825 778 l 163 910 l 163 1079 z "},"곤":{"ha":1214,"x_min":38,"x_max":1176,"o":"m 1046 1071 l 1046 982 q 1040 794 1046 878 q 1011 610 1035 710 l 796 632 q 829 901 824 753 l 163 901 l 163 1071 l 1046 1071 m 38 551 l 435 551 l 435 775 l 651 775 l 651 551 l 1176 551 l 1176 379 l 38 379 l 38 551 m 164 288 l 381 288 l 381 65 l 1069 65 l 1069 -107 l 164 -107 l 164 288 z "},"곧":{"ha":1214,"x_min":38,"x_max":1176,"o":"m 1046 1086 l 1046 985 q 1040 808 1046 883 q 1011 644 1035 732 l 796 667 q 829 917 826 789 l 163 917 l 163 1086 l 1046 1086 m 38 607 l 435 607 l 435 800 l 651 800 l 651 607 l 1176 607 l 1176 438 l 38 438 l 38 607 m 164 356 l 1040 356 l 1040 186 l 381 186 l 381 57 l 1057 57 l 1057 -114 l 164 -114 l 164 356 z "},"골":{"ha":1214,"x_min":38,"x_max":1176,"o":"m 1046 1094 l 1046 1022 q 1042 874 1046 943 q 1024 722 1039 806 l 810 738 q 828 925 825 843 l 163 925 l 163 1094 l 1046 1094 m 38 679 l 435 679 l 435 844 l 651 844 l 651 679 l 1176 679 l 1176 513 l 38 513 l 38 679 m 158 458 l 1046 458 l 1046 97 l 376 97 l 376 46 l 1079 46 l 1079 -122 l 160 -122 l 160 242 l 829 242 l 829 292 l 158 292 l 158 458 z "},"곪":{"ha":1214,"x_min":38,"x_max":1176,"o":"m 1046 1088 l 1046 1004 q 1042 847 1046 918 q 1019 696 1038 775 l 803 718 q 828 919 825 817 l 163 919 l 163 1088 l 1046 1088 m 38 650 l 435 650 l 435 832 l 651 832 l 651 650 l 1176 650 l 1176 481 l 38 481 l 38 650 m 147 424 l 567 424 l 567 85 l 358 85 l 358 36 q 484 40 438 38 q 576 51 531 43 l 590 -103 q 460 -118 528 -115 q 226 -121 393 -121 l 149 -121 l 149 228 l 356 228 l 356 269 l 147 269 l 147 424 m 626 424 l 1053 424 l 1053 -121 l 626 -121 l 626 424 m 872 36 l 872 268 l 807 268 l 807 36 l 872 36 z "},"곬":{"ha":1214,"x_min":38,"x_max":1176,"o":"m 953 439 l 953 318 q 999 143 953 219 q 1150 28 1046 67 l 1036 -124 q 849 51 908 -69 q 663 -124 785 -71 l 578 -10 l 583 -103 q 456 -119 522 -117 q 226 -122 390 -122 l 149 -122 l 149 228 l 356 228 l 356 269 l 147 269 l 147 424 l 567 424 l 567 85 l 358 85 l 358 36 q 481 40 435 38 q 574 51 526 43 l 575 39 q 706 158 664 85 q 747 318 747 232 l 747 439 l 953 439 m 38 656 l 435 656 l 435 839 l 651 839 l 651 656 l 1176 656 l 1176 486 l 38 486 l 38 656 m 163 1096 l 1046 1096 l 1046 1011 q 1042 853 1046 924 q 1019 703 1038 782 l 803 725 q 828 926 825 826 l 163 926 l 163 1096 z "},"곯":{"ha":1214,"x_min":38,"x_max":1176,"o":"m 753 386 l 753 468 l 964 468 l 964 386 l 1135 386 l 1135 233 l 583 233 l 583 386 l 753 386 m 38 675 l 435 675 l 435 850 l 651 850 l 651 675 l 1176 675 l 1176 507 l 38 507 l 38 675 m 142 436 l 544 436 l 544 96 l 344 96 l 344 49 q 487 53 436 50 q 588 65 538 57 l 604 -89 q 469 -104 539 -101 q 221 -107 399 -107 l 143 -107 l 143 240 l 342 240 l 342 282 l 142 282 l 142 436 m 163 1097 l 1046 1097 l 1046 1015 q 1042 862 1046 931 q 1019 714 1038 793 l 803 738 q 828 928 825 840 l 163 928 l 163 1097 m 626 42 q 691 165 626 118 q 858 211 756 211 q 1026 165 961 211 q 1090 42 1090 118 q 1026 -83 1090 -36 q 858 -131 961 -131 q 691 -83 756 -131 q 626 42 626 -36 m 810 42 q 858 7 810 7 q 907 42 907 7 q 894 66 907 60 q 858 72 882 72 q 822 66 835 72 q 810 42 810 60 z "},"곰":{"ha":1214,"x_min":38,"x_max":1176,"o":"m 1039 357 l 1039 -114 l 163 -114 l 163 357 l 1039 357 m 38 611 l 435 611 l 435 810 l 651 810 l 651 611 l 1176 611 l 1176 442 l 38 442 l 38 611 m 163 1090 l 1046 1090 l 1046 990 q 1040 815 1046 890 q 1011 653 1035 739 l 796 676 q 829 921 826 794 l 163 921 l 163 1090 m 825 56 l 825 189 l 376 189 l 376 56 l 825 56 z "},"곱":{"ha":1214,"x_min":38,"x_max":1176,"o":"m 1046 1096 l 1046 1024 q 1040 853 1046 933 q 1014 674 1035 772 l 797 690 q 828 926 822 807 l 163 926 l 163 1096 l 1046 1096 m 38 621 l 435 621 l 435 818 l 651 818 l 651 621 l 1176 621 l 1176 451 l 38 451 l 38 621 m 165 396 l 379 396 l 379 296 l 829 296 l 829 396 l 1044 396 l 1044 -114 l 165 -114 l 165 396 m 829 56 l 829 135 l 379 135 l 379 56 l 829 56 z "},"곳":{"ha":1214,"x_min":38,"x_max":1176,"o":"m 1046 1082 l 1046 981 q 1041 803 1046 879 q 1017 640 1036 728 l 800 660 q 829 914 826 778 l 163 914 l 163 1082 l 1046 1082 m 38 579 l 435 579 l 435 801 l 651 801 l 651 579 l 1176 579 l 1176 408 l 38 408 l 38 579 m 96 44 q 328 103 240 60 q 454 204 417 147 q 492 321 492 261 l 492 347 l 708 347 l 708 321 q 746 204 708 261 q 872 103 783 147 q 1107 44 961 60 l 1031 -122 q 769 -51 876 -104 q 601 82 663 1 q 433 -51 540 1 q 171 -122 325 -104 l 96 44 z "},"공":{"ha":1214,"x_min":38,"x_max":1176,"o":"m 599 357 q 838 328 736 357 q 996 244 940 299 q 1051 114 1051 189 q 996 -15 1051 40 q 838 -100 940 -71 q 599 -129 735 -129 q 360 -99 463 -129 q 203 -15 258 -69 q 147 114 147 40 q 203 244 147 189 q 360 328 258 299 q 599 357 463 357 m 38 588 l 435 588 l 435 794 l 651 794 l 651 588 l 1176 588 l 1176 417 l 38 417 l 38 588 m 163 1086 l 1046 1086 l 1046 983 q 1040 806 1046 882 q 1011 644 1035 731 l 796 665 q 829 915 826 788 l 163 915 l 163 1086 m 364 114 q 422 53 364 72 q 599 35 479 35 q 777 53 718 35 q 836 114 836 72 q 777 176 836 157 q 599 196 718 196 q 422 176 479 196 q 364 114 364 157 z "},"곶":{"ha":1214,"x_min":38,"x_max":1176,"o":"m 1051 390 l 1051 221 l 728 221 q 844 106 754 154 q 1103 40 933 57 l 1028 -124 q 604 63 728 -92 q 182 -124 483 -92 l 108 40 q 367 106 278 57 q 481 221 456 156 l 158 221 l 158 390 l 1051 390 m 38 632 l 435 632 l 435 815 l 651 815 l 651 632 l 1176 632 l 1176 461 l 38 461 l 38 632 m 163 1094 l 1046 1094 l 1046 997 q 1040 832 1046 904 q 1011 678 1035 760 l 797 703 q 828 922 825 813 l 163 922 l 163 1094 z "},"과":{"ha":1214,"x_min":25,"x_max":1194,"o":"m 744 1019 l 744 897 q 739 656 744 761 q 710 421 733 551 l 500 442 q 529 849 529 633 l 85 849 l 85 1019 l 744 1019 m 25 290 q 231 292 158 290 l 231 657 l 442 657 l 442 297 q 778 325 638 307 l 789 167 q 434 126 619 136 q 42 117 249 117 l 25 290 m 825 1139 l 1043 1139 l 1043 642 l 1194 642 l 1194 464 l 1043 464 l 1043 -126 l 825 -126 l 825 1139 z "},"곽":{"ha":1214,"x_min":13,"x_max":1194,"o":"m 744 1061 l 744 967 q 740 792 744 871 q 717 624 735 714 l 507 646 q 529 889 526 758 l 83 889 l 83 1061 l 744 1061 m 13 550 q 221 551 146 550 l 221 776 l 436 776 l 436 558 q 779 592 617 567 l 792 439 q 434 391 618 401 q 31 381 250 381 l 13 550 m 188 300 l 1058 300 l 1058 -128 l 840 -128 l 840 131 l 188 131 l 188 300 m 840 1139 l 1058 1139 l 1058 822 l 1194 822 l 1194 646 l 1058 646 l 1058 344 l 840 344 l 840 1139 z "},"관":{"ha":1214,"x_min":13,"x_max":1193,"o":"m 744 1049 l 744 963 q 740 779 744 864 q 717 594 735 694 l 507 618 q 529 878 526 753 l 83 878 l 83 1049 l 744 1049 m 13 517 q 222 518 147 517 l 222 747 l 436 747 l 436 525 q 781 556 626 535 l 794 403 q 433 358 621 369 q 31 346 246 347 l 13 517 m 192 276 l 410 276 l 410 65 l 1099 65 l 1099 -108 l 192 -108 l 192 276 m 840 1139 l 1058 1139 l 1058 767 l 1193 767 l 1193 590 l 1058 590 l 1058 196 l 840 196 l 840 1139 z "},"괄":{"ha":1214,"x_min":13,"x_max":1194,"o":"m 744 1093 l 744 1011 q 740 854 744 925 q 721 701 736 783 l 510 724 q 528 925 525 821 l 83 925 l 83 1093 l 744 1093 m 13 643 q 219 644 147 643 l 219 826 l 435 826 l 435 649 q 781 672 633 656 l 794 525 q 438 485 621 494 q 29 476 254 476 l 13 643 m 169 431 l 1058 431 l 1058 85 l 389 85 l 389 42 l 1097 42 l 1097 -119 l 171 -119 l 171 232 l 840 232 l 840 274 l 169 274 l 169 431 m 840 1139 l 1058 1139 l 1058 889 l 1194 889 l 1194 714 l 1058 714 l 1058 471 l 840 471 l 840 1139 z "},"괆":{"ha":1214,"x_min":13,"x_max":1194,"o":"m 571 401 l 571 74 l 347 74 l 347 32 q 484 37 435 33 q 582 50 533 40 l 594 -104 q 460 -119 531 -117 q 214 -122 390 -122 l 138 -122 l 138 214 l 361 214 l 361 251 l 136 251 l 136 401 l 571 401 m 13 633 q 219 635 147 633 l 219 818 l 435 818 l 435 639 q 781 664 615 646 l 794 515 q 437 477 621 486 q 29 468 253 468 l 13 633 m 83 1093 l 744 1093 l 744 1010 q 740 851 744 922 q 721 697 736 779 l 510 719 q 528 925 525 818 l 83 925 l 83 1093 m 629 401 l 1058 401 l 1058 -122 l 629 -122 l 629 401 m 874 39 l 874 243 l 814 243 l 814 39 l 874 39 m 840 1139 l 1058 1139 l 1058 885 l 1194 885 l 1194 711 l 1058 711 l 1058 446 l 840 446 l 840 1139 z "},"괌":{"ha":1214,"x_min":13,"x_max":1194,"o":"m 744 1081 l 744 992 q 740 824 744 899 q 718 663 736 750 l 507 678 q 529 910 526 794 l 83 910 l 83 1081 l 744 1081 m 13 592 q 221 593 146 592 l 221 783 l 436 783 l 436 600 q 781 628 610 606 l 794 475 q 437 431 621 442 q 32 419 253 421 l 13 592 m 188 344 l 1058 344 l 1058 -108 l 188 -108 l 188 344 m 844 63 l 844 175 l 400 175 l 400 63 l 844 63 m 840 1139 l 1058 1139 l 1058 847 l 1194 847 l 1194 671 l 1058 671 l 1058 396 l 840 396 l 840 1139 z "},"괍":{"ha":1214,"x_min":10,"x_max":1194,"o":"m 744 1083 l 744 1000 q 740 840 744 913 q 721 683 736 768 l 510 706 q 528 914 525 806 l 83 914 l 83 1083 l 744 1083 m 10 625 q 222 626 147 625 l 222 808 l 436 808 l 436 631 q 786 656 619 638 l 799 503 q 440 465 625 474 q 28 456 254 456 l 10 625 m 188 375 l 403 375 l 403 296 l 843 296 l 843 375 l 1058 375 l 1058 -115 l 188 -115 l 188 375 m 843 58 l 843 132 l 403 132 l 403 58 l 843 58 m 840 1139 l 1058 1139 l 1058 864 l 1194 864 l 1194 686 l 1058 686 l 1058 419 l 840 419 l 840 1139 z "},"괏":{"ha":1214,"x_min":13,"x_max":1194,"o":"m 744 1075 l 744 990 q 738 821 744 897 q 710 654 732 744 l 501 671 q 528 904 525 785 l 83 904 l 83 1075 l 744 1075 m 13 561 q 221 563 147 561 l 221 776 l 436 776 l 436 568 q 783 599 628 578 l 796 444 q 436 401 621 411 q 31 392 251 392 l 13 561 m 125 50 q 426 146 336 71 q 515 314 515 221 l 515 342 l 749 342 l 749 314 q 838 146 749 221 q 1138 50 928 71 l 1060 -122 q 798 -50 904 -103 q 632 82 692 3 q 467 -50 574 3 q 204 -122 360 -103 l 125 50 m 840 1139 l 1058 1139 l 1058 792 l 1194 792 l 1194 613 l 1058 613 l 1058 275 l 840 275 l 840 1139 z "},"괐":{"ha":1214,"x_min":13,"x_max":1194,"o":"m 483 353 l 483 336 q 512 197 483 263 q 604 83 540 132 q 699 199 669 132 q 729 336 729 265 l 729 353 l 944 353 l 944 336 q 1169 47 944 111 l 1064 -110 q 832 85 901 -58 q 604 -124 760 -65 q 379 79 447 -67 q 151 -110 307 -60 l 47 47 q 219 162 165 86 q 272 336 272 238 l 272 353 l 483 353 m 13 590 q 221 592 147 590 l 221 783 l 436 783 l 436 596 q 781 619 636 603 l 794 468 q 435 428 621 438 q 32 418 250 418 l 13 590 m 83 1081 l 744 1081 l 744 992 q 740 824 744 899 q 718 663 736 750 l 507 678 q 529 910 526 794 l 83 910 l 83 1081 m 840 1139 l 1058 1139 l 1058 849 l 1194 849 l 1194 671 l 1058 671 l 1058 396 l 840 396 l 840 1139 z "},"광":{"ha":1214,"x_min":13,"x_max":1194,"o":"m 744 1075 l 744 986 q 740 819 744 893 q 718 657 736 744 l 507 674 q 529 904 526 789 l 83 904 l 83 1075 l 744 1075 m 13 581 q 221 582 147 581 l 221 788 l 436 788 l 436 586 q 781 611 618 593 l 794 460 q 432 419 619 429 q 32 408 244 408 l 13 581 m 174 119 q 228 249 174 194 q 385 334 283 304 q 621 364 486 364 q 858 334 757 364 q 1013 249 958 304 q 1068 119 1068 194 q 1013 -12 1068 44 q 858 -98 958 -68 q 621 -128 757 -128 q 385 -98 486 -128 q 228 -12 283 -68 q 174 119 174 44 m 396 119 q 451 60 396 79 q 621 42 507 42 q 790 60 736 42 q 844 119 844 78 q 790 180 844 161 q 621 199 736 199 q 451 180 507 199 q 396 119 396 161 m 840 1139 l 1058 1139 l 1058 847 l 1194 847 l 1194 668 l 1058 668 l 1058 376 l 840 376 l 840 1139 z "},"괘":{"ha":1214,"x_min":17,"x_max":1153,"o":"m 619 1010 l 619 907 q 614 680 619 782 q 588 447 608 578 l 393 464 q 419 838 417 636 l 61 838 l 61 1010 l 619 1010 m 160 321 l 160 658 l 357 658 l 357 326 q 632 346 504 331 l 642 192 q 43 144 426 144 l 17 321 l 160 321 m 682 1121 l 885 1121 l 885 647 l 946 647 l 946 1139 l 1153 1139 l 1153 -126 l 946 -126 l 946 475 l 885 475 l 885 -74 l 682 -74 l 682 1121 z "},"괜":{"ha":1214,"x_min":15,"x_max":1171,"o":"m 619 1047 l 619 964 q 615 780 619 865 q 593 592 610 694 l 394 610 q 417 875 411 725 l 72 875 l 72 1047 l 619 1047 m 163 514 l 163 751 l 361 751 l 361 518 q 640 540 524 525 l 651 388 q 38 342 425 342 l 15 513 l 163 514 m 215 279 l 435 279 l 435 65 l 1171 65 l 1171 -108 l 215 -108 l 215 279 m 685 1113 l 888 1113 l 888 779 l 940 779 l 940 1139 l 1146 1139 l 1146 189 l 940 189 l 940 606 l 888 606 l 888 211 l 685 211 l 685 1113 z "},"괠":{"ha":1214,"x_min":15,"x_max":1174,"o":"m 619 1074 l 619 1001 q 616 844 619 918 q 599 682 613 769 l 400 699 q 415 906 413 806 l 72 906 l 72 1074 l 619 1074 m 15 626 q 163 628 108 626 l 163 817 l 361 817 l 361 633 q 639 654 518 640 l 650 507 q 40 463 439 465 l 15 626 m 210 418 l 1146 418 l 1146 78 l 426 78 l 426 39 l 1174 39 l 1174 -122 l 211 -122 l 211 225 l 932 225 l 932 263 l 210 263 l 210 418 m 685 1113 l 888 1113 l 888 868 l 940 868 l 940 1139 l 1146 1139 l 1146 460 l 940 460 l 940 694 l 888 694 l 888 464 l 685 464 l 685 1113 z "},"괢":{"ha":1214,"x_min":15,"x_max":1147,"o":"m 633 415 l 633 79 l 389 79 l 389 32 q 642 51 531 35 l 657 -103 q 483 -119 565 -115 q 260 -122 401 -122 l 179 -122 l 179 221 l 422 221 l 422 264 l 178 264 l 178 415 l 633 415 m 15 626 q 164 628 110 626 l 164 817 l 361 817 l 361 633 q 639 654 518 640 l 651 507 q 40 463 439 465 l 15 626 m 74 1074 l 619 1074 l 619 1001 q 616 844 619 918 q 599 682 613 769 l 400 699 q 415 906 413 806 l 74 906 l 74 1074 m 685 1113 l 888 1113 l 888 869 l 940 869 l 940 1139 l 1147 1139 l 1147 460 l 940 460 l 940 696 l 888 696 l 888 464 l 685 464 l 685 1113 m 686 415 l 1147 415 l 1147 -122 l 686 -122 l 686 415 m 950 39 l 950 258 l 886 258 l 886 39 l 950 39 z "},"괩":{"ha":1214,"x_min":14,"x_max":1147,"o":"m 619 1075 l 619 997 q 615 833 619 908 q 594 665 611 757 l 394 678 q 415 907 413 785 l 74 907 l 74 1075 l 619 1075 m 164 599 l 164 799 l 361 799 l 361 603 q 639 624 518 610 l 651 476 q 36 431 424 433 l 14 597 l 164 599 m 224 371 l 440 371 l 440 289 l 932 289 l 932 371 l 1147 371 l 1147 -115 l 224 -115 l 224 371 m 932 58 l 932 125 l 440 125 l 440 58 l 932 58 m 685 1113 l 888 1113 l 888 846 l 940 846 l 940 1139 l 1147 1139 l 1147 413 l 940 413 l 940 672 l 888 672 l 888 425 l 685 425 l 685 1113 z "},"괬":{"ha":1214,"x_min":17,"x_max":1201,"o":"m 618 1061 l 618 985 q 615 819 618 896 q 597 649 611 742 l 399 668 q 415 892 413 779 l 72 892 l 72 1061 l 618 1061 m 17 581 q 163 582 108 581 l 163 794 l 360 794 l 360 588 q 640 611 526 594 l 651 465 q 366 425 521 435 q 38 414 211 415 l 17 581 m 76 47 q 249 167 196 88 q 303 350 303 247 l 303 365 l 514 365 l 514 350 q 543 206 514 274 q 636 88 572 138 q 730 208 700 139 q 760 350 760 276 l 760 365 l 975 365 l 975 350 q 1201 47 975 115 l 1097 -111 q 863 93 932 -56 q 639 -124 793 -62 q 411 86 483 -67 q 181 -111 340 -56 l 76 47 m 685 1113 l 886 1113 l 886 854 l 939 854 l 939 1139 l 1146 1139 l 1146 408 l 939 408 l 939 679 l 886 679 l 886 418 l 685 418 l 685 1113 z "},"괭":{"ha":1214,"x_min":15,"x_max":1147,"o":"m 619 1056 l 619 978 q 616 810 619 888 q 600 640 613 733 l 401 654 q 417 886 414 776 l 74 886 l 74 1056 l 619 1056 m 15 567 q 164 568 110 567 l 164 772 l 361 772 l 361 574 q 636 600 522 583 l 650 453 q 364 413 518 422 q 38 401 210 403 l 15 567 m 217 107 q 340 283 217 221 q 682 344 464 344 q 1024 283 901 344 q 1147 107 1147 221 q 1024 -68 1147 -6 q 682 -131 901 -131 q 340 -68 464 -131 q 217 107 217 -6 m 440 107 q 498 49 440 67 q 682 32 556 32 q 866 49 808 32 q 924 107 924 67 q 865 167 924 149 q 682 185 807 185 q 498 167 556 185 q 440 107 440 149 m 685 1114 l 888 1114 l 888 836 l 940 836 l 940 1139 l 1147 1139 l 1147 351 l 940 351 l 940 664 l 888 664 l 888 394 l 685 394 l 685 1114 z "},"괴":{"ha":1214,"x_min":35,"x_max":1121,"o":"m 786 1004 l 786 890 q 781 665 786 764 q 756 443 776 565 l 542 465 q 565 651 558 565 q 572 832 571 736 l 119 832 l 119 1004 l 786 1004 m 35 279 q 257 281 179 279 l 257 608 l 471 608 l 471 286 q 843 314 678 293 l 860 157 q 481 115 675 125 q 58 106 288 106 l 35 279 m 904 1140 l 1121 1140 l 1121 -131 l 904 -131 l 904 1140 z "},"괵":{"ha":1214,"x_min":36,"x_max":1104,"o":"m 776 1061 l 776 965 q 772 789 776 868 q 749 617 767 710 l 536 640 q 563 889 560 760 l 128 889 l 128 1061 l 776 1061 m 36 549 q 260 550 181 549 l 260 765 l 469 765 l 469 556 q 838 585 688 565 l 847 431 q 480 390 667 400 q 63 379 293 381 l 36 549 m 207 317 l 1104 317 l 1104 -128 l 888 -128 l 888 143 l 207 143 l 207 317 m 888 1139 l 1104 1139 l 1104 371 l 888 371 l 888 1139 z "},"괸":{"ha":1214,"x_min":33,"x_max":1132,"o":"m 778 1058 l 778 947 q 774 767 778 843 q 753 604 769 690 l 540 632 q 567 886 564 742 l 117 886 l 117 1058 l 778 1058 m 33 518 q 267 519 185 518 l 267 753 l 478 753 l 478 524 q 835 549 667 531 l 846 397 q 474 357 664 367 q 57 347 283 347 l 33 518 m 238 276 l 456 276 l 456 65 l 1132 65 l 1132 -108 l 238 -108 l 238 276 m 889 1139 l 1106 1139 l 1106 196 l 889 196 l 889 1139 z "},"괼":{"ha":1214,"x_min":35,"x_max":1143,"o":"m 769 1086 l 769 1004 q 765 846 769 918 q 740 692 760 774 l 531 715 q 553 918 550 818 l 126 918 l 126 1086 l 769 1086 m 35 636 q 263 638 183 636 l 263 815 l 472 815 l 472 642 q 835 667 661 649 l 846 519 q 478 481 665 490 q 60 471 290 472 l 35 636 m 217 424 l 1104 424 l 1104 81 l 435 81 l 435 38 l 1143 38 l 1143 -122 l 218 -122 l 218 226 l 890 226 l 890 269 l 217 269 l 217 424 m 889 1139 l 1104 1139 l 1104 471 l 889 471 l 889 1139 z "},"굄":{"ha":1214,"x_min":36,"x_max":1104,"o":"m 1104 1139 l 1104 376 l 888 376 l 888 1139 l 1104 1139 m 36 571 q 260 574 99 571 l 260 768 l 469 768 l 469 581 q 835 611 671 590 l 846 465 q 483 419 668 431 q 60 406 297 408 l 36 571 m 129 1068 l 775 1068 l 775 981 q 772 813 775 889 q 753 649 768 738 l 538 665 q 558 897 556 786 l 129 897 l 129 1068 m 224 331 l 1104 331 l 1104 -115 l 224 -115 l 224 331 m 890 56 l 890 160 l 439 160 l 439 56 l 890 56 z "},"굅":{"ha":1214,"x_min":36,"x_max":1104,"o":"m 1104 1136 l 1104 424 l 888 424 l 888 1136 l 1104 1136 m 36 608 q 265 610 185 608 l 265 794 l 476 794 l 476 614 q 835 639 664 621 l 846 490 q 488 453 667 463 q 60 442 310 444 l 36 608 m 129 1085 l 779 1085 l 779 1003 q 776 839 779 914 q 757 676 772 764 l 544 694 q 564 915 561 799 l 129 915 l 129 1085 m 229 379 l 443 379 l 443 290 l 889 290 l 889 379 l 1104 379 l 1104 -115 l 229 -115 l 229 379 m 889 58 l 889 126 l 443 126 l 443 58 l 889 58 z "},"굇":{"ha":1214,"x_min":35,"x_max":1160,"o":"m 1103 1139 l 1103 288 l 886 288 l 886 1139 l 1103 1139 m 35 575 q 258 576 181 575 l 258 765 l 467 765 l 467 581 q 833 604 678 588 l 846 451 q 474 412 663 421 q 60 403 285 403 l 35 575 m 129 1071 l 774 1071 l 774 961 q 769 792 774 864 q 750 642 765 719 l 538 667 q 557 900 554 764 l 129 900 l 129 1071 m 165 44 q 391 110 304 63 q 515 219 478 158 q 551 344 551 281 l 551 360 l 774 360 l 774 344 q 810 219 774 281 q 933 110 847 158 q 1160 44 1019 63 l 1079 -125 q 824 -45 928 -103 q 663 97 719 13 q 500 -45 604 13 q 244 -125 396 -103 l 165 44 z "},"굉":{"ha":1214,"x_min":36,"x_max":1108,"o":"m 1104 1139 l 1104 371 l 888 371 l 888 1139 l 1104 1139 m 36 569 q 260 571 182 569 l 260 768 l 469 768 l 469 576 q 835 600 681 583 l 846 453 q 482 415 665 424 q 60 404 299 406 l 36 569 m 129 1072 l 775 1072 l 775 978 q 771 801 775 879 q 750 636 767 724 l 539 660 q 560 903 557 771 l 129 903 l 129 1072 m 203 113 q 324 291 203 226 q 656 356 446 356 q 987 291 865 356 q 1108 113 1108 226 q 1053 -17 1108 38 q 896 -101 999 -72 q 656 -131 793 -131 q 415 -101 518 -131 q 258 -17 313 -72 q 203 113 203 38 m 431 113 q 486 55 431 72 q 656 38 542 38 q 826 55 771 38 q 882 113 882 72 q 826 172 882 154 q 656 190 771 190 q 485 172 540 190 q 431 113 431 154 z "},"교":{"ha":1214,"x_min":35,"x_max":1181,"o":"m 1093 1042 l 1093 926 q 1085 638 1093 769 q 1049 331 1078 507 l 833 350 q 867 622 858 499 q 875 869 875 746 l 143 869 l 143 1042 l 1093 1042 m 35 186 l 254 186 l 254 575 l 468 575 l 468 186 l 567 186 l 567 575 l 779 575 l 779 186 l 1181 186 l 1181 11 l 35 11 l 35 186 z "},"굔":{"ha":1214,"x_min":38,"x_max":1176,"o":"m 1065 1075 l 1065 983 q 1061 797 1065 881 q 1042 611 1057 713 l 828 629 q 849 904 846 760 l 153 904 l 153 1075 l 1065 1075 m 38 533 l 251 533 l 251 754 l 465 754 l 465 533 l 574 533 l 574 754 l 786 754 l 786 533 l 1176 533 l 1176 363 l 38 363 l 38 533 m 164 283 l 381 283 l 381 65 l 1069 65 l 1069 -107 l 164 -107 l 164 283 z "},"굘":{"ha":1214,"x_min":38,"x_max":1176,"o":"m 1065 1100 l 1065 1015 q 1062 863 1065 931 q 1046 717 1058 794 l 833 736 q 849 929 846 835 l 153 929 l 153 1100 l 1065 1100 m 38 676 l 254 676 l 254 853 l 468 853 l 468 676 l 568 676 l 568 853 l 781 853 l 781 676 l 1176 676 l 1176 508 l 38 508 l 38 676 m 158 458 l 1046 458 l 1046 97 l 376 97 l 376 46 l 1079 46 l 1079 -122 l 160 -122 l 160 242 l 829 242 l 829 292 l 158 292 l 158 458 z "},"굠":{"ha":1214,"x_min":38,"x_max":1176,"o":"m 1039 357 l 1039 -114 l 163 -114 l 163 357 l 1039 357 m 38 603 l 251 603 l 251 789 l 465 789 l 465 603 l 574 603 l 574 789 l 786 789 l 786 603 l 1176 603 l 1176 432 l 38 432 l 38 603 m 153 1093 l 1065 1093 l 1065 1010 q 1061 836 1065 915 q 1042 664 1057 757 l 829 682 q 849 924 846 797 l 153 924 l 153 1093 m 825 56 l 825 189 l 376 189 l 376 56 l 825 56 z "},"굡":{"ha":1214,"x_min":38,"x_max":1176,"o":"m 1061 1099 l 1061 1029 q 1056 853 1061 938 q 1035 667 1051 769 l 821 689 q 843 928 840 815 l 147 928 l 147 1099 l 1061 1099 m 38 619 l 251 619 l 251 817 l 465 817 l 465 619 l 558 619 l 558 817 l 774 817 l 774 619 l 1176 619 l 1176 449 l 38 449 l 38 619 m 165 396 l 379 396 l 379 296 l 829 296 l 829 396 l 1044 396 l 1044 -115 l 165 -115 l 165 396 m 829 56 l 829 135 l 379 135 l 379 56 l 829 56 z "},"굣":{"ha":1214,"x_min":35,"x_max":1181,"o":"m 1083 1088 l 1083 981 q 1078 799 1083 876 q 1056 633 1074 722 l 842 651 q 867 918 864 768 l 157 918 l 157 1088 l 1083 1088 m 35 575 l 257 575 l 257 797 l 471 797 l 471 575 l 565 575 l 565 797 l 778 797 l 778 575 l 1181 575 l 1181 401 l 35 401 l 35 575 m 96 44 q 328 103 240 60 q 454 204 417 147 q 492 321 492 261 l 492 347 l 708 347 l 708 321 q 746 204 708 261 q 872 103 783 147 q 1107 44 961 60 l 1031 -122 q 769 -51 876 -104 q 601 82 663 1 q 432 -51 539 1 q 171 -122 325 -104 l 96 44 z "},"굥":{"ha":1214,"x_min":38,"x_max":1176,"o":"m 1065 1086 l 1065 997 q 1061 820 1065 901 q 1042 643 1057 739 l 828 663 q 849 915 846 782 l 153 915 l 153 1086 l 1065 1086 m 38 578 l 251 578 l 251 776 l 465 776 l 465 578 l 574 578 l 574 776 l 786 776 l 786 578 l 1176 578 l 1176 406 l 38 406 l 38 578 m 147 114 q 203 244 147 189 q 360 328 258 299 q 599 357 463 357 q 838 328 736 357 q 996 244 940 299 q 1051 114 1051 189 q 996 -15 1051 40 q 838 -100 940 -71 q 599 -129 735 -129 q 360 -99 463 -129 q 203 -15 258 -69 q 147 114 147 40 m 364 114 q 422 53 364 72 q 599 35 479 35 q 777 53 718 35 q 836 114 836 72 q 777 176 836 157 q 599 196 718 196 q 422 176 479 196 q 364 114 364 157 z "},"구":{"ha":1214,"x_min":35,"x_max":1181,"o":"m 1054 1069 l 1054 957 q 1049 743 1054 836 q 1024 533 1044 650 l 1181 533 l 1181 360 l 708 360 l 708 -126 l 489 -126 l 489 360 l 35 360 l 35 533 l 808 533 q 833 717 826 632 q 840 899 839 803 l 160 899 l 160 1069 l 1054 1069 z "},"국":{"ha":1214,"x_min":35,"x_max":1181,"o":"m 1053 1088 l 1053 982 q 1049 815 1053 886 q 1031 660 1046 743 l 1181 660 l 1181 488 l 714 488 l 714 339 l 1051 339 l 1051 -128 l 835 -128 l 835 169 l 149 169 l 149 339 l 499 339 l 499 488 l 35 488 l 35 660 l 813 660 q 839 915 836 772 l 172 915 l 172 1088 l 1053 1088 z "},"군":{"ha":1214,"x_min":35,"x_max":1181,"o":"m 1054 1083 l 1054 971 q 1050 787 1054 865 q 1031 617 1046 708 l 1181 617 l 1181 446 l 728 446 l 728 197 l 508 197 l 508 446 l 35 446 l 35 617 l 813 617 q 833 762 828 694 q 839 914 838 829 l 172 914 l 172 1083 l 1054 1083 m 161 308 l 378 308 l 378 65 l 1067 65 l 1067 -107 l 161 -107 l 161 308 z "},"굳":{"ha":1214,"x_min":35,"x_max":1181,"o":"m 1053 1088 l 1053 983 q 1049 818 1053 889 q 1032 665 1046 747 l 1181 665 l 1181 494 l 714 494 l 714 358 l 1047 358 l 1047 190 l 383 190 l 383 56 l 1067 56 l 1067 -114 l 167 -114 l 167 358 l 499 358 l 499 494 l 35 494 l 35 665 l 814 665 q 839 917 836 778 l 172 917 l 172 1088 l 1053 1088 z "},"굴":{"ha":1214,"x_min":35,"x_max":1181,"o":"m 1053 1093 l 1053 1004 q 1049 857 1053 922 q 1032 717 1046 792 l 1181 717 l 1181 546 l 714 546 l 714 457 l 1046 457 l 1046 96 l 376 96 l 376 46 l 1078 46 l 1078 -122 l 160 -122 l 160 240 l 829 240 l 829 290 l 158 290 l 158 457 l 499 457 l 499 546 l 35 546 l 35 717 l 814 717 q 838 924 835 819 l 172 924 l 172 1093 l 1053 1093 z "},"굵":{"ha":1214,"x_min":35,"x_max":1181,"o":"m 1053 1094 l 1053 1006 q 1049 857 1053 922 q 1032 715 1046 792 l 1181 715 l 1181 543 l 714 543 l 714 428 l 1051 428 l 1051 -128 l 839 -128 l 839 257 l 636 257 l 636 401 l 576 401 l 576 78 l 360 78 l 360 36 q 546 42 486 38 q 656 60 606 46 l 676 -96 q 530 -117 613 -112 q 238 -121 447 -121 l 150 -121 l 150 226 l 369 226 l 369 269 l 149 269 l 149 428 l 499 428 l 499 543 l 35 543 l 35 715 l 814 715 q 838 922 835 818 l 172 922 l 172 1094 l 1053 1094 z "},"굶":{"ha":1214,"x_min":35,"x_max":1181,"o":"m 1053 1093 l 1053 1004 q 1049 852 1053 919 q 1031 706 1046 785 l 1181 706 l 1181 533 l 713 533 l 713 424 l 1053 424 l 1053 -122 l 626 -122 l 626 371 l 567 371 l 567 83 l 358 83 l 358 36 q 484 40 438 38 q 576 51 531 43 l 590 -103 q 460 -119 528 -117 q 225 -122 393 -122 l 149 -122 l 149 226 l 356 226 l 356 269 l 147 269 l 147 424 l 497 424 l 497 533 l 35 533 l 35 706 l 813 706 q 838 922 835 811 l 172 922 l 172 1093 l 1053 1093 m 872 36 l 872 268 l 807 268 l 807 36 l 872 36 z "},"굻":{"ha":1214,"x_min":35,"x_max":1181,"o":"m 1053 1094 l 1053 1015 q 1049 867 1053 936 q 1033 719 1046 799 l 1181 719 l 1181 547 l 704 547 l 704 406 l 544 406 l 544 88 l 344 88 l 344 49 q 487 53 436 50 q 588 65 538 57 l 604 -89 q 469 -104 539 -101 q 221 -107 399 -107 l 143 -107 l 143 235 l 342 235 l 342 271 l 142 271 l 142 425 l 485 425 l 485 547 l 35 547 l 35 719 l 814 719 q 838 925 835 824 l 172 925 l 172 1094 l 1053 1094 m 583 374 l 753 374 l 753 468 l 964 468 l 964 374 l 1135 374 l 1135 219 l 583 219 l 583 374 m 626 38 q 691 158 626 113 q 858 204 756 204 q 1026 158 961 204 q 1090 38 1090 113 q 1026 -85 1090 -39 q 858 -131 961 -131 q 691 -85 756 -131 q 626 38 626 -39 m 808 38 q 858 4 808 4 q 907 38 907 4 q 858 69 907 69 q 808 38 808 69 z "},"굼":{"ha":1214,"x_min":35,"x_max":1181,"o":"m 1050 1092 l 1050 988 q 1047 820 1050 892 q 1028 665 1043 749 l 1181 665 l 1181 493 l 714 493 l 714 357 l 1043 357 l 1043 -114 l 167 -114 l 167 357 l 499 357 l 499 493 l 35 493 l 35 665 l 810 665 q 836 921 833 778 l 167 921 l 167 1092 l 1050 1092 m 829 56 l 829 189 l 379 189 l 379 56 l 829 56 z "},"굽":{"ha":1214,"x_min":35,"x_max":1181,"o":"m 1050 1094 l 1050 990 q 1047 828 1050 897 q 1031 678 1043 758 l 1181 678 l 1181 508 l 708 508 l 708 360 l 492 360 l 492 508 l 35 508 l 35 678 l 813 678 q 836 924 833 788 l 167 924 l 167 1094 l 1050 1094 m 160 411 l 375 411 l 375 304 l 828 304 l 828 411 l 1044 411 l 1044 -114 l 160 -114 l 160 411 m 828 54 l 828 139 l 375 139 l 375 54 l 828 54 z "},"굿":{"ha":1214,"x_min":35,"x_max":1181,"o":"m 1051 1092 l 1051 1007 q 1047 841 1051 917 q 1028 672 1043 765 l 1181 672 l 1181 501 l 711 501 l 711 350 l 494 350 l 494 501 l 35 501 l 35 672 l 811 672 q 838 919 835 793 l 172 919 l 172 1092 l 1051 1092 m 103 40 q 328 94 242 54 q 453 181 415 133 q 490 275 490 229 l 490 306 l 714 306 l 714 275 q 750 177 714 225 q 873 92 786 129 q 1103 40 960 54 l 1031 -124 q 767 -58 875 -107 q 601 64 660 -10 q 435 -59 542 -10 q 175 -124 328 -108 l 103 40 z "},"궁":{"ha":1214,"x_min":35,"x_max":1181,"o":"m 1053 1099 l 1053 993 q 1049 824 1053 896 q 1031 668 1046 751 l 1181 668 l 1181 497 l 714 497 l 714 365 q 964 285 874 350 q 1054 121 1054 221 q 935 -64 1054 3 q 607 -131 815 -131 q 279 -64 399 -131 q 160 121 160 3 q 249 285 160 221 q 499 365 338 349 l 499 497 l 35 497 l 35 668 l 813 668 q 839 926 836 782 l 172 926 l 172 1099 l 1053 1099 m 378 121 q 433 60 378 79 q 607 42 489 42 q 781 60 725 42 q 836 121 836 79 q 781 181 836 163 q 607 200 725 200 q 433 181 489 200 q 378 121 378 163 z "},"궂":{"ha":1214,"x_min":35,"x_max":1181,"o":"m 1051 1089 l 1051 1013 q 1048 847 1051 924 q 1029 678 1044 771 l 1181 678 l 1181 508 l 713 508 l 713 393 l 1051 393 l 1051 224 l 728 224 q 842 108 753 157 q 1103 42 932 58 l 1028 -121 q 769 -58 875 -106 q 604 64 664 -10 q 440 -58 546 -10 q 182 -121 335 -106 l 108 42 q 367 108 278 58 q 481 224 457 157 l 158 224 l 158 393 l 497 393 l 497 508 l 35 508 l 35 678 l 817 678 q 838 918 835 790 l 172 918 l 172 1089 l 1051 1089 z "},"궈":{"ha":1214,"x_min":17,"x_max":1129,"o":"m 1129 1139 l 1129 -126 l 913 -126 l 913 176 l 678 176 l 678 342 l 913 342 l 913 1139 l 1129 1139 m 17 564 q 503 575 338 567 q 535 876 532 729 l 118 876 l 118 1049 l 751 1049 l 751 963 q 747 779 751 864 q 722 589 742 694 l 833 601 l 844 449 q 528 411 689 422 l 528 -78 l 310 -78 l 310 399 q 43 394 168 394 l 17 564 z "},"궉":{"ha":1214,"x_min":22,"x_max":1131,"o":"m 1131 1139 l 1131 328 l 911 328 l 911 379 l 683 379 l 683 535 l 911 535 l 911 1139 l 1131 1139 m 22 714 q 513 726 343 717 q 533 914 532 839 l 138 914 l 138 1083 l 749 1083 l 749 1022 q 745 886 749 951 q 728 743 742 821 q 840 756 786 747 l 853 603 q 529 561 694 574 l 529 329 l 311 329 l 311 547 q 47 543 172 543 l 22 714 m 217 276 l 1131 276 l 1131 -129 l 911 -129 l 911 108 l 217 108 l 217 276 z "},"권":{"ha":1214,"x_min":26,"x_max":1156,"o":"m 1128 1139 l 1128 189 l 910 189 l 910 304 l 683 304 l 683 471 l 910 471 l 910 1139 l 1128 1139 m 26 672 q 511 685 344 675 q 533 913 528 794 l 143 913 l 143 1082 l 753 1082 l 753 1042 q 729 700 753 858 l 836 713 l 850 561 q 561 524 711 536 l 561 264 l 408 264 l 408 65 l 1156 65 l 1156 -108 l 192 -108 l 192 276 l 346 276 l 346 510 q 53 503 215 503 l 26 672 z "},"궐":{"ha":1214,"x_min":32,"x_max":1165,"o":"m 1131 1139 l 1131 439 l 911 439 l 911 468 l 683 468 l 683 606 l 911 606 l 911 1139 l 1131 1139 m 32 761 q 508 772 346 764 q 531 932 526 861 l 149 932 l 149 1101 l 743 1101 l 743 1046 q 740 921 743 981 q 722 789 736 861 q 849 803 803 797 l 863 658 q 525 617 697 629 l 525 439 l 308 439 l 308 604 q 57 600 175 600 l 32 761 m 226 401 l 1131 401 l 1131 71 l 443 71 l 443 32 l 1165 32 l 1165 -122 l 228 -122 l 228 211 l 914 211 l 914 247 l 226 247 l 226 401 z "},"궜":{"ha":1214,"x_min":21,"x_max":1215,"o":"m 1129 1139 l 1129 383 l 911 383 l 911 417 l 682 417 l 682 574 l 911 574 l 911 1139 l 1129 1139 m 21 743 q 514 756 344 746 q 532 925 529 849 l 136 925 l 136 1094 l 747 1094 l 747 1035 q 744 906 747 967 q 729 772 742 846 q 839 785 785 776 l 851 632 q 528 590 717 607 l 528 385 l 310 385 l 310 578 q 46 572 186 572 l 21 743 m 125 49 q 292 158 240 85 q 344 328 344 232 l 344 342 l 556 342 l 556 328 q 667 86 556 176 q 754 197 726 135 q 782 328 782 260 l 782 342 l 997 342 l 997 328 q 1215 49 997 110 l 1113 -110 q 886 81 953 -58 q 668 -124 817 -67 q 451 75 519 -68 q 229 -110 383 -58 l 125 49 z "},"궝":{"ha":1214,"x_min":31,"x_max":1135,"o":"m 1129 1139 l 1129 344 l 911 344 l 911 388 l 683 388 l 683 540 l 911 540 l 911 1139 l 1129 1139 m 31 713 q 514 724 317 713 q 539 915 535 825 l 143 915 l 143 1083 l 751 1083 l 751 1015 q 748 879 751 943 q 729 739 744 815 q 844 753 807 747 l 858 606 q 526 563 724 581 l 526 350 l 308 350 l 308 550 q 54 544 229 547 l 31 713 m 217 100 q 338 269 217 208 q 676 329 460 329 q 1014 269 893 329 q 1135 100 1135 210 q 1015 -69 1135 -10 q 676 -129 894 -129 q 338 -69 460 -129 q 217 100 217 -10 m 440 100 q 494 50 440 64 q 676 36 549 36 q 857 50 803 36 q 911 100 911 64 q 856 149 911 135 q 676 164 801 164 q 495 149 550 164 q 440 100 440 135 z "},"궤":{"ha":1214,"x_min":17,"x_max":1161,"o":"m 1161 1139 l 1161 -126 l 956 -126 l 956 1139 l 1161 1139 m 17 596 q 358 603 204 596 q 389 844 381 714 l 83 844 l 83 1015 l 596 1015 l 596 953 q 591 792 596 871 q 568 615 586 714 l 647 624 l 664 472 q 446 443 563 454 l 446 -29 l 240 -29 l 240 429 q 36 424 140 424 l 17 596 m 524 371 l 694 371 l 694 1121 l 897 1121 l 897 -74 l 694 -74 l 694 204 l 524 204 l 524 371 z "},"궷":{"ha":1214,"x_min":14,"x_max":1174,"o":"m 1144 1139 l 1144 251 l 939 251 l 939 1139 l 1144 1139 m 14 721 q 357 728 203 721 q 381 896 372 799 l 94 896 l 94 1065 l 590 1065 l 590 1011 q 586 880 590 943 q 568 742 582 817 q 639 749 596 743 l 651 599 q 446 569 561 581 l 446 286 l 240 286 l 240 554 q 35 549 140 549 l 14 721 m 176 39 q 481 124 392 58 q 569 274 569 189 l 569 289 l 789 289 l 789 274 q 876 123 789 188 q 1174 39 964 58 l 1097 -125 q 679 56 797 -90 q 249 -125 556 -93 l 176 39 m 504 533 l 686 533 l 686 1110 l 889 1110 l 889 331 l 686 331 l 686 379 l 504 379 l 504 533 z "},"궸":{"ha":1214,"x_min":14,"x_max":1201,"o":"m 1144 1139 l 1144 364 l 938 364 l 938 1139 l 1144 1139 m 14 738 q 357 744 203 738 q 381 910 372 815 l 94 910 l 94 1079 l 590 1079 l 590 1024 q 586 895 590 957 q 568 758 582 833 l 639 767 l 651 619 q 444 592 572 604 l 444 368 l 240 368 l 240 578 q 33 572 139 572 l 14 738 m 75 47 q 249 151 194 81 q 303 311 303 221 l 303 326 l 513 326 l 513 311 q 542 183 513 244 q 635 78 572 122 q 728 184 699 124 q 758 311 758 244 l 758 326 l 974 326 l 974 311 q 1027 147 974 217 q 1201 47 1081 76 l 1101 -110 q 863 76 932 -62 q 638 -124 790 -69 q 410 72 479 -71 q 175 -110 339 -60 l 75 47 m 504 563 l 686 563 l 686 1117 l 888 1117 l 888 372 l 686 372 l 686 408 l 504 408 l 504 563 z "},"귀":{"ha":1214,"x_min":31,"x_max":1128,"o":"m 1128 1139 l 1128 -126 l 910 -126 l 910 1139 l 1128 1139 m 31 571 q 499 581 307 571 q 529 885 526 736 l 126 885 l 126 1057 l 747 1057 l 747 974 q 742 788 747 874 q 719 593 738 701 l 850 606 l 865 447 q 542 413 714 424 l 542 -62 l 324 -62 l 324 401 q 56 397 185 397 l 31 571 z "},"귁":{"ha":1214,"x_min":32,"x_max":1106,"o":"m 1106 1139 l 1106 371 l 889 371 l 889 1139 l 1106 1139 m 32 665 q 493 676 303 665 q 522 913 517 793 l 135 913 l 135 1082 l 739 1082 l 739 1006 q 735 851 739 922 q 715 693 731 779 l 840 710 l 851 554 q 547 515 710 529 l 547 322 l 1106 322 l 1106 -128 l 889 -128 l 889 150 l 214 150 l 214 322 l 328 322 l 328 501 q 58 494 238 497 l 32 665 z "},"귄":{"ha":1214,"x_min":31,"x_max":1132,"o":"m 31 639 q 511 649 310 639 q 538 893 535 778 l 136 893 l 136 1064 l 754 1064 l 754 985 q 751 828 754 900 q 732 665 747 756 l 840 678 l 853 528 q 574 489 724 503 l 574 243 l 404 243 l 404 65 l 1132 65 l 1132 -108 l 188 -108 l 188 283 l 356 283 l 356 474 q 56 468 213 468 l 31 639 m 889 1139 l 1106 1139 l 1106 196 l 889 196 l 889 1139 z "},"귈":{"ha":1214,"x_min":31,"x_max":1140,"o":"m 1106 1139 l 1106 496 l 889 496 l 889 1139 l 1106 1139 m 31 732 q 508 742 310 732 q 532 926 526 829 l 146 926 l 146 1094 l 750 1094 l 750 1015 q 747 884 750 943 q 728 758 743 825 q 840 771 786 763 l 851 622 q 539 585 699 597 l 539 447 l 1106 447 l 1106 90 l 453 90 l 453 42 l 1140 42 l 1140 -122 l 235 -122 l 235 240 l 888 240 l 888 285 l 233 285 l 233 447 l 321 447 l 321 572 q 54 565 232 568 l 31 732 z "},"귐":{"ha":1214,"x_min":32,"x_max":1106,"o":"m 1106 1139 l 1106 408 l 889 408 l 889 1139 l 1106 1139 m 32 665 q 501 678 339 668 q 522 903 519 782 l 135 903 l 135 1074 l 739 1074 l 739 990 q 736 841 739 908 q 722 694 733 774 q 840 710 767 699 l 851 556 q 553 517 715 531 l 553 357 l 1106 357 l 1106 -115 l 246 -115 l 246 357 l 333 357 l 333 503 q 58 496 242 499 l 32 665 m 892 56 l 892 189 l 461 189 l 461 56 l 892 56 z "},"귑":{"ha":1214,"x_min":31,"x_max":1106,"o":"m 1106 1139 l 1106 419 l 889 419 l 889 1139 l 1106 1139 m 31 724 q 508 733 347 726 q 532 939 529 838 l 135 939 l 135 1111 l 750 1111 l 750 1021 q 747 881 750 942 q 728 747 743 819 l 836 758 l 849 606 q 535 569 713 583 l 535 411 l 317 411 l 317 557 q 57 551 235 554 l 31 724 m 221 368 l 438 368 l 438 288 l 889 288 l 889 368 l 1106 368 l 1106 -115 l 221 -115 l 221 368 m 889 54 l 889 128 l 438 128 l 438 54 l 889 54 z "},"귓":{"ha":1214,"x_min":33,"x_max":1183,"o":"m 1101 1139 l 1101 258 l 883 258 l 883 1139 l 1101 1139 m 33 671 q 504 681 308 671 q 528 918 525 799 l 147 918 l 147 1089 l 746 1089 l 746 1003 q 742 847 746 917 q 722 696 738 778 l 832 708 l 844 554 q 529 517 690 528 l 529 276 l 311 276 l 311 506 q 60 501 178 501 l 33 671 m 199 46 q 500 148 410 68 q 590 332 590 228 l 590 344 l 814 344 l 814 332 q 899 149 814 228 q 1183 46 983 69 l 1103 -124 q 701 88 817 -82 q 279 -124 579 -82 l 199 46 z "},"귕":{"ha":1214,"x_min":35,"x_max":1111,"o":"m 1103 1139 l 1103 376 l 885 376 l 885 1139 l 1103 1139 m 35 660 q 503 668 303 660 q 529 914 526 788 l 149 914 l 149 1083 l 747 1083 l 747 997 q 743 839 747 910 q 722 683 739 768 l 833 696 l 846 543 q 531 504 700 518 l 531 357 q 658 364 596 364 q 990 299 869 364 q 1111 117 1111 233 q 990 -64 1111 1 q 658 -129 869 -129 q 326 -65 447 -129 q 206 117 206 0 q 233 215 206 171 q 313 290 260 258 l 313 493 q 61 489 179 489 l 35 660 m 433 117 q 488 57 433 75 q 658 39 543 39 q 830 57 775 39 q 885 117 885 75 q 830 178 885 160 q 658 197 775 197 q 488 178 543 197 q 433 117 433 160 z "},"규":{"ha":1214,"x_min":35,"x_max":1181,"o":"m 1040 1074 l 1040 1000 q 1034 781 1040 886 q 1006 535 1028 675 l 1181 535 l 1181 361 l 928 361 l 928 -129 l 710 -129 l 710 361 l 486 361 l 486 -129 l 269 -129 l 269 361 l 35 361 l 35 535 l 786 535 q 824 900 821 725 l 164 900 l 164 1074 l 1040 1074 z "},"균":{"ha":1214,"x_min":35,"x_max":1181,"o":"m 1054 1083 l 1054 971 q 1050 788 1054 865 q 1031 621 1046 711 l 1181 621 l 1181 450 l 914 450 l 914 193 l 701 193 l 701 450 l 628 450 l 628 193 l 415 193 l 415 450 l 35 450 l 35 621 l 813 621 q 833 764 828 697 q 839 914 838 831 l 167 914 l 167 1083 l 1054 1083 m 146 315 l 363 315 l 363 65 l 1090 65 l 1090 -107 l 146 -107 l 146 315 z "},"귤":{"ha":1214,"x_min":35,"x_max":1181,"o":"m 1053 1094 l 1053 1006 q 1049 860 1053 924 q 1033 721 1046 796 l 1181 721 l 1181 550 l 911 550 l 911 457 l 1046 457 l 1046 96 l 376 96 l 376 46 l 1078 46 l 1078 -122 l 160 -122 l 160 240 l 829 240 l 829 290 l 158 290 l 158 457 l 300 457 l 300 550 l 35 550 l 35 721 l 815 721 q 838 925 835 814 l 172 925 l 172 1094 l 1053 1094 m 696 457 l 696 550 l 515 550 l 515 457 l 696 457 z "},"귬":{"ha":1214,"x_min":35,"x_max":1181,"o":"m 1050 1092 l 1050 988 q 1047 822 1050 893 q 1029 667 1043 750 l 1181 667 l 1181 496 l 911 496 l 911 357 l 1043 357 l 1043 -114 l 167 -114 l 167 357 l 300 357 l 300 496 l 35 496 l 35 667 l 811 667 q 836 921 833 781 l 167 921 l 167 1092 l 1050 1092 m 829 56 l 829 189 l 379 189 l 379 56 l 829 56 m 696 357 l 696 496 l 515 496 l 515 357 l 696 357 z "},"그":{"ha":1214,"x_min":35,"x_max":1181,"o":"m 1046 1032 l 1046 869 q 1038 559 1046 688 q 1001 263 1031 431 l 785 279 q 822 561 814 433 q 829 860 829 689 l 149 860 l 149 1032 l 1046 1032 m 35 204 l 1181 204 l 1181 28 l 35 28 l 35 204 z "},"극":{"ha":1214,"x_min":35,"x_max":1181,"o":"m 1053 1086 l 1053 997 q 1049 817 1053 899 q 1032 635 1046 736 l 1181 635 l 1181 464 l 35 464 l 35 635 l 814 635 q 839 914 836 775 l 172 914 l 172 1086 l 1053 1086 m 156 338 l 1053 338 l 1053 -126 l 836 -126 l 836 168 l 156 168 l 156 338 z "},"근":{"ha":1214,"x_min":35,"x_max":1181,"o":"m 1054 1071 l 1054 957 q 1050 768 1054 849 q 1028 592 1046 688 l 1181 592 l 1181 419 l 35 419 l 35 592 l 810 592 q 832 746 826 674 q 839 900 838 818 l 172 900 l 172 1071 l 1054 1071 m 175 329 l 392 329 l 392 65 l 1089 65 l 1089 -107 l 175 -107 l 175 329 z "},"귿":{"ha":1214,"x_min":35,"x_max":1181,"o":"m 1053 1085 l 1053 979 q 1049 801 1053 878 q 1029 636 1044 725 l 1181 636 l 1181 465 l 35 465 l 35 636 l 811 636 q 839 914 836 758 l 172 914 l 172 1085 l 1053 1085 m 167 365 l 1047 365 l 1047 196 l 383 196 l 383 56 l 1067 56 l 1067 -115 l 167 -115 l 167 365 z "},"글":{"ha":1214,"x_min":35,"x_max":1181,"o":"m 1053 1089 l 1053 1001 q 1049 852 1053 918 q 1032 708 1046 786 l 1181 708 l 1181 536 l 35 536 l 35 708 l 813 708 q 838 918 835 811 l 172 918 l 172 1089 l 1053 1089 m 158 472 l 1046 472 l 1046 97 l 376 97 l 376 46 l 1078 46 l 1078 -121 l 160 -121 l 160 254 l 829 254 l 829 307 l 158 307 l 158 472 z "},"긁":{"ha":1214,"x_min":35,"x_max":1181,"o":"m 1053 1088 l 1053 996 q 1049 834 1053 904 q 1028 675 1044 764 l 1181 675 l 1181 504 l 35 504 l 35 675 l 810 675 q 839 915 833 783 l 172 915 l 172 1088 l 1053 1088 m 149 428 l 576 428 l 576 78 l 360 78 l 360 36 q 546 42 486 38 q 656 60 606 46 l 676 -96 q 530 -117 613 -112 q 238 -121 447 -121 l 150 -121 l 150 226 l 369 226 l 369 269 l 149 269 l 149 428 m 636 428 l 1051 428 l 1051 -128 l 839 -128 l 839 257 l 636 257 l 636 428 z "},"긂":{"ha":1214,"x_min":35,"x_max":1181,"o":"m 567 433 l 567 88 l 358 88 l 358 36 q 484 40 438 38 q 576 51 531 43 l 590 -103 q 460 -118 528 -115 q 225 -121 393 -121 l 149 -121 l 149 231 l 356 231 l 356 278 l 147 278 l 147 433 l 567 433 m 35 678 l 811 678 q 839 915 833 785 l 172 915 l 172 1086 l 1053 1086 l 1053 996 q 1049 835 1053 904 q 1028 678 1044 765 l 1181 678 l 1181 508 l 35 508 l 35 678 m 626 433 l 1053 433 l 1053 -121 l 626 -121 l 626 433 m 872 36 l 872 275 l 807 275 l 807 36 l 872 36 z "},"긇":{"ha":1214,"x_min":35,"x_max":1181,"o":"m 753 386 l 753 468 l 964 468 l 964 386 l 1135 386 l 1135 233 l 583 233 l 583 386 l 753 386 m 35 679 l 811 679 q 839 915 833 788 l 172 915 l 172 1088 l 1053 1088 l 1053 996 q 1049 835 1053 906 q 1028 679 1044 765 l 1181 679 l 1181 510 l 35 510 l 35 679 m 142 429 l 544 429 l 544 89 l 344 89 l 344 42 q 487 47 436 43 q 588 58 538 50 l 604 -96 q 469 -111 539 -108 q 221 -114 399 -114 l 143 -114 l 143 235 l 342 235 l 342 274 l 142 274 l 142 429 m 626 42 q 691 165 626 119 q 858 211 756 211 q 1026 165 961 211 q 1090 42 1090 119 q 1026 -83 1090 -36 q 858 -131 961 -131 q 691 -83 756 -131 q 626 42 626 -36 m 808 42 q 858 8 808 8 q 907 42 907 8 q 894 66 907 60 q 858 72 882 72 q 822 66 835 72 q 808 42 808 60 z "},"금":{"ha":1214,"x_min":35,"x_max":1181,"o":"m 1053 1086 l 1053 982 q 1049 806 1053 881 q 1026 639 1044 731 l 1181 639 l 1181 468 l 35 468 l 35 639 l 808 639 q 839 915 836 768 l 172 915 l 172 1086 l 1053 1086 m 167 357 l 1043 357 l 1043 -114 l 167 -114 l 167 357 m 829 56 l 829 189 l 379 189 l 379 56 l 829 56 z "},"급":{"ha":1214,"x_min":35,"x_max":1181,"o":"m 378 419 l 378 308 l 832 308 l 832 419 l 1047 419 l 1047 -114 l 164 -114 l 164 419 l 378 419 m 35 657 l 811 657 q 839 919 836 774 l 172 919 l 172 1090 l 1053 1090 l 1053 986 q 1049 818 1053 889 q 1028 657 1044 747 l 1181 657 l 1181 485 l 35 485 l 35 657 m 832 58 l 832 140 l 378 140 l 378 58 l 832 58 z "},"긋":{"ha":1214,"x_min":36,"x_max":1175,"o":"m 1043 1082 l 1043 996 q 1038 805 1043 892 q 1013 607 1033 718 l 1175 607 l 1175 436 l 36 436 l 36 607 l 796 607 q 828 911 822 744 l 172 911 l 172 1082 l 1043 1082 m 96 44 q 329 103 240 60 q 455 204 418 147 q 492 321 492 261 l 492 353 l 708 353 l 708 321 q 746 204 708 261 q 872 103 783 147 q 1107 44 961 60 l 1031 -122 q 769 -51 876 -104 q 601 82 663 1 q 433 -51 540 1 q 171 -122 325 -104 l 96 44 z "},"긍":{"ha":1214,"x_min":33,"x_max":1179,"o":"m 1053 1082 l 1053 979 q 1049 800 1053 876 q 1026 632 1044 724 l 1179 632 l 1179 461 l 33 461 l 33 632 l 808 632 q 839 913 836 763 l 172 913 l 172 1082 l 1053 1082 m 160 125 q 280 311 160 244 q 607 378 400 378 q 934 311 814 378 q 1054 125 1054 244 q 934 -61 1054 6 q 607 -128 814 -128 q 280 -61 400 -128 q 160 125 160 6 m 378 125 q 433 63 378 82 q 607 44 489 44 q 781 63 725 44 q 836 125 836 82 q 781 188 836 169 q 607 206 726 206 q 433 188 489 206 q 378 125 378 169 z "},"긓":{"ha":1214,"x_min":35,"x_max":1181,"o":"m 494 410 l 494 492 l 711 492 l 711 410 l 1072 410 l 1072 251 l 135 251 l 135 410 l 494 410 m 35 708 l 813 708 q 838 918 835 811 l 172 918 l 172 1090 l 1053 1090 l 1053 1001 q 1049 852 1053 918 q 1032 708 1046 786 l 1181 708 l 1181 536 l 35 536 l 35 708 m 214 50 q 315 183 214 138 q 603 228 415 228 q 892 182 790 228 q 993 50 993 136 q 891 -83 993 -36 q 603 -129 789 -129 q 315 -83 417 -129 q 214 50 214 -36 m 443 50 q 479 24 443 31 q 603 17 515 17 q 725 24 689 17 q 761 50 761 31 q 725 75 761 68 q 603 82 689 82 q 479 75 515 82 q 443 50 443 68 z "},"긔":{"ha":1214,"x_min":35,"x_max":1092,"o":"m 756 1004 l 756 886 q 749 652 756 754 q 718 424 743 550 l 507 447 q 533 640 526 551 q 542 832 540 729 l 114 832 l 114 1004 l 756 1004 m 35 331 q 821 369 528 331 l 832 211 q 465 167 656 178 q 54 154 275 156 l 35 331 m 872 1139 l 1092 1139 l 1092 -126 l 872 -126 l 872 1139 z "},"기":{"ha":1214,"x_min":33,"x_max":1099,"o":"m 1099 1139 l 1099 -126 l 881 -126 l 881 1139 l 1099 1139 m 33 246 q 372 497 264 357 q 500 839 479 636 l 106 839 l 106 1011 l 721 1011 q 672 628 721 796 q 497 322 622 461 q 147 75 371 182 l 33 246 z "},"긱":{"ha":1214,"x_min":38,"x_max":1094,"o":"m 706 1071 q 558 639 706 810 q 121 393 411 468 l 38 561 q 342 697 235 610 q 471 900 449 785 l 118 900 l 118 1071 l 706 1071 m 222 361 l 1094 361 l 1094 -126 l 876 -126 l 876 190 l 222 190 l 222 361 m 876 1139 l 1094 1139 l 1094 408 l 876 408 l 876 1139 z "},"긴":{"ha":1214,"x_min":51,"x_max":1114,"o":"m 1090 1139 l 1090 219 l 872 219 l 872 1139 l 1090 1139 m 51 517 q 356 661 247 569 q 489 872 465 753 l 126 872 l 126 1047 l 722 1047 q 574 605 722 782 q 135 346 426 428 l 51 517 m 238 300 l 456 300 l 456 64 l 1114 64 l 1114 -110 l 238 -110 l 238 300 z "},"긷":{"ha":1214,"x_min":36,"x_max":1132,"o":"m 688 1071 q 544 646 688 815 q 122 400 401 476 l 36 567 q 326 702 221 617 q 454 897 431 788 l 107 897 l 107 1071 l 688 1071 m 263 388 l 1108 388 l 1108 217 l 482 217 l 482 57 l 1132 57 l 1132 -115 l 263 -115 l 263 388 m 890 1139 l 1108 1139 l 1108 439 l 890 439 l 890 1139 z "},"길":{"ha":1214,"x_min":53,"x_max":1119,"o":"m 1093 1139 l 1093 510 l 875 510 l 875 1139 l 1093 1139 m 53 656 q 362 759 268 690 q 469 928 456 828 l 122 928 l 122 1099 l 711 1099 q 651 796 711 918 q 463 597 590 674 q 126 482 335 521 l 53 656 m 236 463 l 1093 463 l 1093 100 l 457 100 l 457 53 l 1119 53 l 1119 -115 l 238 -115 l 238 253 l 874 253 l 874 297 l 236 297 l 236 463 z "},"긺":{"ha":1214,"x_min":54,"x_max":1094,"o":"m 1094 1139 l 1094 489 l 876 489 l 876 1139 l 1094 1139 m 54 639 q 469 924 433 707 l 119 924 l 119 1093 l 708 1093 q 567 681 708 833 q 128 468 425 528 l 54 639 m 176 438 l 617 438 l 617 93 l 383 93 l 383 49 q 625 69 519 50 l 640 -93 q 488 -111 564 -107 q 258 -115 411 -115 l 178 -115 l 178 240 l 410 240 l 410 278 l 176 278 l 176 438 m 665 438 l 1094 438 l 1094 -115 l 665 -115 l 665 438 m 913 39 l 913 282 l 847 282 l 847 39 l 913 39 z "},"김":{"ha":1214,"x_min":38,"x_max":1094,"o":"m 704 1071 q 555 644 704 814 q 119 401 406 474 l 38 571 q 339 705 231 618 q 469 901 447 792 l 114 901 l 114 1071 l 704 1071 m 247 389 l 1094 389 l 1094 -115 l 247 -115 l 247 389 m 881 56 l 881 219 l 463 219 l 463 56 l 881 56 m 876 1139 l 1094 1139 l 1094 439 l 876 439 l 876 1139 z "},"깁":{"ha":1214,"x_min":47,"x_max":1094,"o":"m 1094 1139 l 1094 453 l 876 453 l 876 1139 l 1094 1139 m 47 613 q 354 729 256 653 q 468 911 453 806 l 117 911 l 117 1082 l 707 1082 q 566 662 707 817 q 122 442 425 507 l 47 613 m 244 407 l 460 407 l 460 307 l 879 307 l 879 407 l 1094 407 l 1094 -115 l 244 -115 l 244 407 m 879 58 l 879 140 l 460 140 l 460 58 l 879 58 z "},"깃":{"ha":1214,"x_min":44,"x_max":1150,"o":"m 1093 1139 l 1093 308 l 875 308 l 875 1139 l 1093 1139 m 44 514 q 478 876 433 619 l 121 876 l 121 1049 l 708 1049 q 565 604 708 779 q 126 344 422 429 l 44 514 m 160 44 q 384 109 299 63 q 506 216 469 156 q 543 340 543 276 l 543 378 l 768 378 l 768 340 q 858 154 768 238 q 1150 44 947 71 l 1069 -125 q 816 -45 919 -103 q 656 97 713 13 q 494 -45 597 13 q 240 -125 390 -103 l 160 44 z "},"깄":{"ha":1214,"x_min":36,"x_max":1196,"o":"m 703 1071 q 553 644 703 814 q 118 401 404 474 l 36 571 q 338 705 229 618 q 468 901 446 792 l 113 901 l 113 1071 l 703 1071 m 75 40 q 247 163 194 82 q 300 349 300 244 l 300 390 l 510 390 l 510 349 q 539 201 510 271 q 632 81 568 132 q 726 203 697 133 q 756 349 756 274 l 756 390 l 971 390 l 971 349 q 1196 40 971 110 l 1090 -117 q 858 85 926 -61 q 633 -129 790 -68 q 407 82 478 -72 q 181 -117 338 -61 l 75 40 m 875 1139 l 1093 1139 l 1093 440 l 875 440 l 875 1139 z "},"깅":{"ha":1214,"x_min":35,"x_max":1099,"o":"m 1092 1139 l 1092 408 l 874 408 l 874 1139 l 1092 1139 m 35 543 q 334 684 225 594 q 467 889 443 774 l 114 889 l 114 1061 l 701 1061 q 552 626 701 801 q 118 375 403 451 l 35 543 m 224 132 q 277 272 224 213 q 429 362 331 331 q 661 393 528 393 q 893 362 794 393 q 1045 272 992 331 q 1099 132 1099 213 q 1045 -8 1099 51 q 893 -98 992 -67 q 661 -129 794 -129 q 429 -98 528 -129 q 277 -8 331 -67 q 224 132 224 51 m 440 132 q 494 63 440 85 q 661 42 549 42 q 828 63 774 42 q 882 132 882 85 q 828 201 882 181 q 661 222 774 222 q 494 201 547 222 q 440 132 440 181 z "},"깆":{"ha":1214,"x_min":46,"x_max":1151,"o":"m 703 1068 q 556 649 703 810 q 117 418 410 488 l 46 590 q 342 712 239 632 q 467 897 446 792 l 113 897 l 113 1068 l 703 1068 m 179 39 q 452 108 365 56 q 550 229 539 161 l 240 229 l 240 400 l 1097 400 l 1097 229 l 776 229 q 875 108 788 160 q 1151 39 963 56 l 1081 -124 q 663 47 783 -96 q 502 -65 606 -21 q 249 -124 399 -110 l 179 39 m 871 1139 l 1090 1139 l 1090 446 l 871 446 l 871 1139 z "},"깊":{"ha":1214,"x_min":58,"x_max":1114,"o":"m 726 1060 q 578 648 726 806 q 144 428 431 490 l 58 597 q 362 711 254 633 q 490 888 469 789 l 126 888 l 126 1060 l 726 1060 m 219 63 l 365 63 l 365 246 l 232 246 l 232 414 l 1100 414 l 1100 246 l 967 246 l 967 63 l 1114 63 l 1114 -108 l 219 -108 l 219 63 m 754 63 l 754 246 l 578 246 l 578 63 l 754 63 m 872 1139 l 1090 1139 l 1090 465 l 872 465 l 872 1139 z "},"까":{"ha":1214,"x_min":-1,"x_max":1197,"o":"m 1046 1139 l 1046 658 l 1197 658 l 1197 479 l 1046 479 l 1046 -126 l 829 -126 l 829 1139 l 1046 1139 m -1 250 q 118 426 76 339 q 177 608 160 513 q 199 839 194 704 l 63 839 l 63 1014 l 404 1014 q 390 651 404 793 q 324 379 375 510 q 167 128 272 249 l -1 250 m 349 171 q 467 369 425 271 q 527 578 508 468 q 550 839 546 688 l 449 839 l 449 1014 l 753 1014 q 737 626 753 783 q 670 324 721 468 q 518 50 619 181 l 349 171 z "},"깍":{"ha":1214,"x_min":3,"x_max":1194,"o":"m 1038 1138 l 1038 826 l 1194 826 l 1194 650 l 1038 650 l 1038 382 l 821 382 l 821 1138 l 1038 1138 m 3 575 q 143 711 99 642 q 201 883 188 781 l 67 883 l 67 1056 l 408 1056 q 385 803 408 908 q 304 608 363 697 q 139 442 246 519 l 3 575 m 182 333 l 1038 333 l 1038 -128 l 821 -128 l 821 160 l 182 160 l 182 333 m 354 532 q 496 690 450 610 q 556 883 542 769 l 453 883 l 453 1056 l 763 1056 q 740 792 763 904 q 660 586 717 679 q 506 408 604 493 l 354 532 z "},"깎":{"ha":1214,"x_min":3,"x_max":1194,"o":"m 1038 1138 l 1038 864 l 1194 864 l 1194 685 l 1038 685 l 1038 411 l 821 411 l 821 1138 l 1038 1138 m 3 588 q 142 724 97 654 q 201 897 188 794 l 67 897 l 67 1068 l 408 1068 q 385 815 408 921 q 304 621 363 710 q 139 454 246 532 l 3 588 m 147 364 l 574 364 l 574 -128 l 361 -128 l 361 193 l 147 193 l 147 364 m 354 543 q 496 702 450 622 q 556 897 542 782 l 453 897 l 453 1068 l 763 1068 q 740 805 763 917 q 660 600 717 693 q 506 422 604 507 l 354 543 m 619 364 l 1038 364 l 1038 -128 l 824 -128 l 824 193 l 619 193 l 619 364 z "},"깐":{"ha":1214,"x_min":8,"x_max":1194,"o":"m 407 1040 q 385 772 407 888 q 306 559 363 657 q 147 375 249 461 l 8 508 q 144 671 100 590 q 201 868 188 751 l 67 868 l 67 1040 l 407 1040 m 190 299 l 408 299 l 408 65 l 1078 65 l 1078 -108 l 190 -108 l 190 299 m 349 463 q 497 644 450 553 q 557 868 544 736 l 447 868 l 447 1040 l 761 1040 q 738 753 761 876 q 655 526 715 631 q 486 329 594 421 l 349 463 m 821 1138 l 1038 1138 l 1038 768 l 1194 768 l 1194 592 l 1038 592 l 1038 218 l 821 218 l 821 1138 z "},"깔":{"ha":1214,"x_min":6,"x_max":1194,"o":"m 1038 1139 l 1038 911 l 1194 911 l 1194 733 l 1038 733 l 1038 503 l 821 503 l 821 1139 l 1038 1139 m 6 631 q 138 756 94 693 q 194 913 181 819 l 61 913 l 61 1082 l 403 1082 q 381 840 403 940 q 303 657 360 740 q 143 497 247 574 l 6 631 m 176 457 l 1038 457 l 1038 97 l 392 97 l 392 53 l 1078 53 l 1078 -115 l 178 -115 l 178 250 l 822 250 l 822 292 l 176 292 l 176 457 m 360 606 q 495 743 451 675 q 553 913 539 811 l 444 913 l 444 1082 l 761 1082 q 739 835 761 939 q 661 644 717 731 q 507 479 606 557 l 360 606 z "},"깖":{"ha":1214,"x_min":7,"x_max":1194,"o":"m 1038 1139 l 1038 906 l 1194 906 l 1194 731 l 1038 731 l 1038 483 l 821 483 l 821 1139 l 1038 1139 m 7 636 q 138 758 96 697 q 194 910 181 819 l 61 910 l 61 1081 l 403 1081 q 381 841 403 940 q 302 660 358 742 q 143 503 246 578 l 7 636 m 124 432 l 550 432 l 550 89 l 336 89 l 336 44 q 564 64 474 47 l 581 -97 q 434 -114 507 -111 q 206 -117 361 -117 l 125 -117 l 125 236 l 339 236 l 339 274 l 124 274 l 124 432 m 360 597 q 497 737 453 667 q 554 910 540 807 l 442 910 l 442 1081 l 761 1081 q 739 829 761 935 q 662 637 717 724 q 507 472 607 550 l 360 597 m 607 432 l 1038 432 l 1038 -117 l 607 -117 l 607 432 m 853 40 l 853 275 l 792 275 l 792 40 l 853 40 z "},"깜":{"ha":1214,"x_min":4,"x_max":1194,"o":"m 408 1069 q 386 814 408 921 q 306 617 364 707 q 142 447 247 528 l 4 581 q 143 722 99 650 q 201 899 188 793 l 67 899 l 67 1069 l 408 1069 m 200 375 l 1038 375 l 1038 -115 l 200 -115 l 200 375 m 351 532 q 494 695 449 613 q 551 899 539 778 l 447 899 l 447 1069 l 756 1069 q 734 801 756 915 q 658 592 713 688 q 506 410 604 496 l 351 532 m 825 56 l 825 207 l 415 207 l 415 56 l 825 56 m 821 1138 l 1038 1138 l 1038 875 l 1194 875 l 1194 697 l 1038 697 l 1038 425 l 821 425 l 821 1138 z "},"깝":{"ha":1214,"x_min":4,"x_max":1194,"o":"m 408 1074 q 386 821 408 926 q 306 627 364 715 q 142 460 247 539 l 4 593 q 143 731 99 661 q 201 903 188 800 l 67 903 l 67 1074 l 408 1074 m 196 399 l 413 399 l 413 306 l 822 306 l 822 399 l 1038 399 l 1038 -115 l 196 -115 l 196 399 m 357 544 q 495 705 451 625 q 551 903 539 785 l 447 903 l 447 1074 l 756 1074 q 735 809 756 921 q 660 603 714 697 q 508 425 606 510 l 357 544 m 822 58 l 822 139 l 413 139 l 413 58 l 822 58 m 821 1138 l 1038 1138 l 1038 886 l 1194 886 l 1194 710 l 1038 710 l 1038 444 l 821 444 l 821 1138 z "},"깟":{"ha":1214,"x_min":8,"x_max":1194,"o":"m 401 1056 q 381 798 401 906 q 306 598 361 690 q 147 422 251 506 l 8 554 q 142 701 100 628 q 196 883 185 775 l 60 883 l 60 1056 l 401 1056 m 136 46 q 426 153 338 71 q 515 336 515 235 l 515 353 l 732 353 l 732 336 q 768 214 732 274 q 890 108 804 154 q 1113 46 975 63 l 1032 -124 q 783 -48 885 -103 q 625 88 682 7 q 217 -124 503 -82 l 136 46 m 350 511 q 493 678 447 594 q 551 883 539 763 l 442 883 l 442 1056 l 756 1056 q 734 784 756 899 q 658 573 713 669 q 506 390 604 476 l 350 511 m 821 1139 l 1038 1139 l 1038 819 l 1194 819 l 1194 644 l 1038 644 l 1038 294 l 821 294 l 821 1139 z "},"깠":{"ha":1214,"x_min":13,"x_max":1194,"o":"m 417 1064 q 394 811 417 917 q 314 617 372 706 q 149 449 256 528 l 13 583 q 149 721 106 651 q 207 893 193 790 l 74 893 l 74 1064 l 417 1064 m 60 47 q 231 169 179 88 q 282 356 282 250 l 282 378 l 494 378 l 494 356 q 524 208 494 278 q 615 89 553 139 q 709 211 679 140 q 739 356 739 282 l 739 378 l 956 378 l 956 356 q 1176 47 956 118 l 1068 -110 q 842 93 908 -53 q 617 -124 772 -61 q 390 89 458 -62 q 168 -110 322 -54 l 60 47 m 361 535 q 501 696 456 615 q 558 893 546 776 l 454 893 l 454 1064 l 767 1064 q 744 799 767 911 q 667 591 722 686 q 513 411 611 496 l 361 535 m 821 1139 l 1038 1139 l 1038 875 l 1194 875 l 1194 697 l 1038 697 l 1038 433 l 821 433 l 821 1139 z "},"깡":{"ha":1214,"x_min":4,"x_max":1194,"o":"m 408 1069 q 386 814 408 921 q 306 617 364 707 q 142 447 247 528 l 4 581 q 143 722 99 650 q 201 899 188 793 l 67 899 l 67 1069 l 408 1069 m 185 131 q 238 267 185 210 q 390 356 292 325 q 618 388 488 388 q 848 356 750 388 q 999 267 946 325 q 1053 131 1053 210 q 999 -7 1053 51 q 848 -97 946 -65 q 618 -128 750 -128 q 390 -97 488 -128 q 238 -7 292 -65 q 185 131 185 51 m 351 538 q 494 699 449 618 q 551 899 539 781 l 447 899 l 447 1069 l 756 1069 q 734 803 756 915 q 658 595 713 690 q 506 415 604 500 l 351 538 m 401 131 q 454 63 401 85 q 618 42 507 42 q 784 63 731 42 q 838 131 838 85 q 785 198 838 178 q 618 218 732 218 q 453 198 506 218 q 401 131 401 178 m 821 1138 l 1038 1138 l 1038 872 l 1194 872 l 1194 694 l 1038 694 l 1038 411 l 821 411 l 821 1138 z "},"깥":{"ha":1214,"x_min":6,"x_max":1194,"o":"m 403 1076 q 381 834 403 935 q 303 649 360 733 q 143 490 247 565 l 6 624 q 138 749 94 686 q 194 906 181 813 l 61 906 l 61 1076 l 403 1076 m 200 424 l 1046 424 l 1046 274 l 417 274 l 417 229 l 1035 229 l 1035 85 l 417 85 l 417 35 l 1068 35 l 1068 -115 l 200 -115 l 200 424 m 360 600 q 495 736 451 668 q 553 906 539 804 l 444 906 l 444 1076 l 761 1076 q 739 828 761 933 q 661 638 717 724 q 507 474 606 551 l 360 600 m 821 1138 l 1038 1138 l 1038 892 l 1194 892 l 1194 715 l 1038 715 l 1038 469 l 821 469 l 821 1138 z "},"깨":{"ha":1214,"x_min":3,"x_max":1164,"o":"m 1164 1139 l 1164 -126 l 957 -126 l 957 503 l 896 503 l 896 -74 l 693 -74 l 693 1121 l 896 1121 l 896 675 l 957 675 l 957 1139 l 1164 1139 m 3 250 q 119 515 83 386 q 164 824 156 644 l 56 824 l 56 996 l 347 996 q 310 525 347 721 q 169 158 272 329 l 3 250 m 296 183 q 417 476 382 331 q 457 824 451 621 l 383 824 l 383 996 l 643 996 q 606 485 643 696 q 464 93 569 275 l 296 183 z "},"깩":{"ha":1214,"x_min":3,"x_max":1144,"o":"m 1144 1139 l 1144 401 l 938 401 l 938 686 l 883 686 l 883 407 l 681 407 l 681 1119 l 883 1119 l 883 861 l 938 861 l 938 1139 l 1144 1139 m 3 574 q 106 716 75 647 q 147 888 138 785 l 51 888 l 51 1060 l 344 1060 q 333 814 344 911 q 281 629 321 717 q 161 458 242 542 l 3 574 m 225 353 l 1144 353 l 1144 -128 l 926 -128 l 926 183 l 225 183 l 225 353 m 285 510 q 401 681 365 597 q 446 888 436 764 l 379 888 l 379 1060 l 646 1060 q 631 792 646 901 q 574 586 617 682 q 450 401 532 490 l 285 510 z "},"깬":{"ha":1214,"x_min":6,"x_max":1172,"o":"m 1143 1139 l 1143 219 l 938 219 l 938 611 l 883 611 l 883 249 l 681 249 l 681 1117 l 883 1117 l 883 785 l 938 785 l 938 1139 l 1143 1139 m 6 531 q 113 685 81 610 q 153 871 144 760 l 57 871 l 57 1043 l 350 1043 q 338 788 350 889 q 285 594 325 686 q 164 414 244 503 l 6 531 m 222 314 l 440 314 l 440 65 l 1172 65 l 1172 -108 l 222 -108 l 222 314 m 299 471 q 407 652 375 564 q 446 871 439 740 l 379 871 l 379 1043 l 642 1043 q 630 767 642 878 q 579 557 618 656 q 463 367 540 458 l 299 471 z "},"깯":{"ha":1214,"x_min":3,"x_max":1164,"o":"m 1150 367 l 1150 197 l 438 197 l 438 57 l 1164 57 l 1164 -115 l 219 -115 l 219 367 l 1150 367 m 3 586 q 106 730 75 661 q 146 901 138 799 l 51 901 l 51 1072 l 344 1072 q 332 826 344 924 q 280 642 319 729 q 161 471 240 554 l 3 586 m 303 522 q 406 693 375 611 q 443 901 436 775 l 378 901 l 378 1072 l 642 1072 q 631 803 642 908 q 583 601 619 697 q 472 414 547 506 l 303 522 m 681 1121 l 883 1121 l 883 864 l 938 864 l 938 1139 l 1143 1139 l 1143 419 l 938 419 l 938 689 l 883 689 l 883 426 l 681 426 l 681 1121 z "},"깰":{"ha":1214,"x_min":10,"x_max":1174,"o":"m 1143 1139 l 1143 496 l 938 496 l 938 721 l 882 721 l 882 501 l 681 501 l 681 1119 l 882 1119 l 882 893 l 938 893 l 938 1139 l 1143 1139 m 10 650 q 108 770 76 714 q 149 910 139 826 l 58 910 l 58 1081 l 346 1081 q 333 854 346 943 q 280 687 321 765 q 157 531 239 608 l 10 650 m 265 456 l 1143 456 l 1143 96 l 489 96 l 489 53 l 1174 53 l 1174 -115 l 267 -115 l 267 250 l 921 250 l 921 289 l 265 289 l 265 456 m 297 599 q 403 740 371 672 q 446 910 436 808 l 376 910 l 376 1081 l 643 1081 q 631 833 643 929 q 578 650 618 736 q 454 481 538 564 l 297 599 z "},"깸":{"ha":1214,"x_min":3,"x_max":1144,"o":"m 1144 1139 l 1144 419 l 938 419 l 938 689 l 883 689 l 883 426 l 681 426 l 681 1121 l 883 1121 l 883 864 l 938 864 l 938 1139 l 1144 1139 m 3 586 q 106 730 75 661 q 147 901 138 799 l 51 901 l 51 1072 l 344 1072 q 333 826 344 924 q 281 642 321 729 q 161 471 242 554 l 3 586 m 260 371 l 1144 371 l 1144 -115 l 260 -115 l 260 371 m 303 522 q 406 693 375 611 q 443 901 436 775 l 379 901 l 379 1072 l 643 1072 q 632 803 643 910 q 584 601 621 697 q 472 414 547 506 l 303 522 m 931 56 l 931 203 l 474 203 l 474 56 l 931 56 z "},"깹":{"ha":1214,"x_min":10,"x_max":1143,"o":"m 1143 1139 l 1143 453 l 936 453 l 936 703 l 886 703 l 886 460 l 683 460 l 683 1114 l 886 1114 l 886 876 l 936 876 l 936 1139 l 1143 1139 m 10 600 q 117 744 85 675 q 160 915 150 814 l 64 915 l 64 1086 l 356 1086 q 343 839 356 936 q 290 654 331 742 q 167 483 249 567 l 10 600 m 258 407 l 474 407 l 474 315 l 926 315 l 926 407 l 1143 407 l 1143 -115 l 258 -115 l 258 407 m 322 554 q 417 719 390 640 q 451 915 444 797 l 386 915 l 386 1086 l 644 1086 q 637 823 644 919 q 597 635 629 726 q 493 454 564 543 l 322 554 m 926 58 l 926 149 l 474 149 l 474 58 l 926 58 z "},"깻":{"ha":1214,"x_min":13,"x_max":1201,"o":"m 1143 1139 l 1143 321 l 936 321 l 936 669 l 883 669 l 883 428 l 682 428 l 682 1117 l 883 1117 l 883 843 l 936 843 l 936 1139 l 1143 1139 m 13 543 q 112 696 82 622 q 150 881 142 769 l 57 881 l 57 1053 l 344 1053 q 334 797 344 894 q 287 608 324 699 q 171 431 250 518 l 13 543 m 206 47 q 435 113 347 65 q 559 224 522 161 q 596 351 596 286 l 596 379 l 813 379 l 813 351 q 850 224 813 286 q 974 113 888 161 q 1201 47 1061 65 l 1118 -124 q 866 -44 969 -101 q 703 97 763 13 q 541 -44 644 13 q 288 -124 438 -101 l 206 47 m 297 468 q 406 655 374 564 q 446 881 439 746 l 376 881 l 376 1053 l 642 1053 q 630 773 642 885 q 579 560 618 661 q 463 364 540 458 l 297 468 z "},"깼":{"ha":1214,"x_min":7,"x_max":1226,"o":"m 1143 1138 l 1143 425 l 936 425 l 936 682 l 885 682 l 885 438 l 682 438 l 682 1117 l 885 1117 l 885 857 l 936 857 l 936 1138 l 1143 1138 m 7 575 q 109 715 78 647 q 150 881 140 782 l 54 881 l 54 1053 l 347 1053 q 335 810 347 906 q 284 628 324 714 q 164 460 244 542 l 7 575 m 106 40 q 276 160 224 81 q 329 343 329 240 l 329 376 l 540 376 l 540 343 q 569 199 540 267 q 661 81 599 131 q 756 201 726 133 q 786 343 786 269 l 786 376 l 1001 376 l 1001 343 q 1226 40 1001 108 l 1119 -117 q 889 85 958 -62 q 663 -129 819 -69 q 438 79 507 -74 q 211 -118 367 -62 l 106 40 m 307 519 q 408 683 378 604 q 444 881 438 761 l 378 881 l 378 1053 l 642 1053 q 631 792 642 896 q 583 596 619 689 q 472 411 546 503 l 307 519 z "},"깽":{"ha":1214,"x_min":10,"x_max":1153,"o":"m 1146 1139 l 1146 383 l 939 383 l 939 672 l 889 672 l 889 421 l 686 421 l 686 1117 l 889 1117 l 889 847 l 939 847 l 939 1139 l 1146 1139 m 10 550 q 114 695 82 625 q 154 871 146 765 l 57 871 l 57 1043 l 350 1043 q 338 795 350 893 q 287 609 326 697 q 168 436 247 521 l 10 550 m 257 122 q 313 253 257 197 q 469 341 368 310 q 706 372 571 372 q 940 341 839 372 q 1097 253 1042 310 q 1153 122 1153 197 q 1097 -11 1153 46 q 940 -99 1042 -68 q 706 -129 839 -129 q 469 -99 571 -129 q 313 -11 368 -68 q 257 122 257 46 m 301 503 q 406 669 375 589 q 444 871 438 750 l 378 871 l 378 1043 l 642 1043 q 630 779 642 885 q 579 580 618 674 q 464 396 540 486 l 301 503 m 476 122 q 533 56 476 76 q 706 35 590 35 q 933 122 933 35 q 876 188 933 167 q 706 208 819 208 q 533 188 590 208 q 476 122 476 167 z "},"꺄":{"ha":1214,"x_min":-1,"x_max":1196,"o":"m 1046 1139 l 1046 839 l 1196 839 l 1196 663 l 1046 663 l 1046 465 l 1196 465 l 1196 286 l 1046 286 l 1046 -126 l 829 -126 l 829 1139 l 1046 1139 m -1 250 q 118 426 76 339 q 177 608 160 513 q 199 839 194 704 l 63 839 l 63 1014 l 404 1014 q 390 651 404 793 q 324 379 375 510 q 167 128 272 249 l -1 250 m 349 171 q 467 369 425 271 q 527 578 508 468 q 550 839 546 688 l 449 839 l 449 1014 l 753 1014 q 737 626 753 783 q 670 324 721 468 q 518 50 619 181 l 349 171 z "},"꺅":{"ha":1214,"x_min":3,"x_max":1186,"o":"m 1038 1138 l 1038 993 l 1186 993 l 1186 815 l 1038 815 l 1038 719 l 1186 719 l 1186 543 l 1038 543 l 1038 382 l 821 382 l 821 1138 l 1038 1138 m 3 575 q 143 711 99 642 q 201 883 188 781 l 67 883 l 67 1056 l 408 1056 q 385 803 408 908 q 304 608 363 697 q 139 442 246 519 l 3 575 m 182 333 l 1038 333 l 1038 -128 l 821 -128 l 821 160 l 182 160 l 182 333 m 354 532 q 496 690 450 610 q 556 883 542 769 l 453 883 l 453 1056 l 763 1056 q 740 791 763 903 q 661 586 717 679 q 506 408 606 493 l 354 532 z "},"꺆":{"ha":1214,"x_min":14,"x_max":1197,"o":"m 421 1071 q 399 818 421 924 q 324 624 378 713 q 169 457 269 536 l 14 594 q 142 728 100 663 q 197 888 183 793 l 74 888 l 74 1071 l 421 1071 m 131 369 l 586 369 l 586 -124 l 368 -124 l 368 199 l 131 199 l 131 369 m 392 549 q 511 705 472 632 q 563 888 550 778 l 467 888 l 467 1071 l 786 1071 q 738 699 786 846 q 568 425 690 553 l 392 549 m 631 369 l 1079 369 l 1079 -124 l 860 -124 l 860 199 l 631 199 l 631 369 m 867 1139 l 1081 1139 l 1081 996 l 1197 996 l 1197 815 l 1081 815 l 1081 713 l 1197 713 l 1197 532 l 1081 532 l 1081 419 l 867 419 l 867 1139 z "},"꺌":{"ha":1214,"x_min":6,"x_max":1183,"o":"m 1038 1139 l 1038 1032 l 1183 1032 l 1183 864 l 1038 864 l 1038 792 l 1183 792 l 1183 622 l 1038 622 l 1038 503 l 821 503 l 821 1139 l 1038 1139 m 6 631 q 138 756 94 693 q 194 913 181 819 l 61 913 l 61 1082 l 403 1082 q 381 840 403 940 q 303 657 360 740 q 143 497 247 574 l 6 631 m 176 457 l 1038 457 l 1038 97 l 393 97 l 393 53 l 1078 53 l 1078 -115 l 178 -115 l 178 250 l 822 250 l 822 292 l 176 292 l 176 457 m 360 606 q 495 743 451 675 q 553 913 539 811 l 444 913 l 444 1082 l 761 1082 q 739 835 761 939 q 661 644 717 731 q 507 479 606 557 l 360 606 z "},"꺍":{"ha":1214,"x_min":15,"x_max":1197,"o":"m 1079 451 l 1079 -131 l 851 -131 l 851 279 l 631 279 l 631 451 l 1079 451 m 15 650 q 142 765 100 708 q 199 904 183 821 l 74 904 l 74 1083 l 424 1083 q 401 846 424 944 q 324 666 379 747 q 168 511 268 585 l 15 650 m 124 238 l 368 238 l 368 286 l 124 286 l 124 451 l 585 451 l 585 92 l 343 92 l 343 42 q 513 49 442 43 q 657 67 583 54 l 675 -96 q 485 -120 581 -115 q 215 -125 390 -125 l 124 -125 l 124 238 m 406 617 q 517 749 481 688 q 565 904 553 811 l 467 904 l 467 1083 l 790 1083 q 772 840 790 942 q 708 656 753 739 q 581 494 663 572 l 406 617 m 867 1139 l 1081 1139 l 1081 1019 l 1197 1019 l 1197 847 l 1081 847 l 1081 760 l 1197 760 l 1197 586 l 1081 586 l 1081 503 l 867 503 l 867 1139 z "},"꺼":{"ha":1214,"x_min":0,"x_max":1094,"o":"m 1094 1139 l 1094 -126 l 876 -126 l 876 513 l 721 513 q 649 269 697 382 q 517 50 600 156 l 350 171 q 467 369 425 271 q 526 578 508 468 q 549 839 544 688 l 447 839 l 447 1014 l 754 1014 q 743 685 754 800 l 876 685 l 876 1139 l 1094 1139 m 0 250 q 119 426 78 339 q 178 608 161 513 q 200 839 196 704 l 64 839 l 64 1014 l 406 1014 q 392 651 406 793 q 326 379 378 510 q 169 128 275 249 l 0 250 z "},"꺽":{"ha":1214,"x_min":14,"x_max":1093,"o":"m 1093 333 l 1093 -128 l 875 -128 l 875 160 l 215 160 l 215 333 l 1093 333 m 14 567 q 152 711 108 638 q 208 892 196 785 l 76 892 l 76 1063 l 415 1063 q 394 805 415 913 q 315 606 372 697 q 151 433 257 515 l 14 567 m 367 524 q 507 690 463 607 q 564 892 551 772 l 457 892 l 457 1063 l 769 1063 q 756 836 769 933 l 875 836 l 875 1138 l 1093 1138 l 1093 382 l 875 382 l 875 665 l 711 665 q 517 401 653 519 l 367 524 z "},"꺾":{"ha":1214,"x_min":14,"x_max":1093,"o":"m 1093 1138 l 1093 411 l 875 411 l 875 674 l 710 674 q 518 413 653 529 l 368 533 q 507 697 463 615 q 564 897 551 779 l 454 897 l 454 1068 l 769 1068 q 756 847 769 943 l 875 847 l 875 1138 l 1093 1138 m 14 581 q 151 722 107 651 q 208 897 194 793 l 76 897 l 76 1068 l 415 1068 q 394 813 415 919 q 315 617 372 707 q 151 449 257 528 l 14 581 m 174 364 l 611 364 l 611 -128 l 394 -128 l 394 193 l 174 193 l 174 364 m 654 364 l 1093 364 l 1093 -128 l 878 -128 l 878 193 l 654 193 l 654 364 z "},"껀":{"ha":1214,"x_min":17,"x_max":1124,"o":"m 1093 1133 l 1093 214 l 875 214 l 875 624 l 722 624 q 517 347 663 469 l 375 478 q 522 654 478 564 q 578 876 567 744 l 471 876 l 471 1049 l 781 1049 q 765 796 781 901 l 875 796 l 875 1133 l 1093 1133 m 17 533 q 162 686 115 608 q 221 876 208 764 l 89 876 l 89 1049 l 428 1049 q 405 783 428 894 q 322 577 382 671 q 154 400 263 483 l 17 533 m 224 306 l 442 306 l 442 65 l 1124 65 l 1124 -108 l 224 -108 l 224 306 z "},"껄":{"ha":1214,"x_min":26,"x_max":1119,"o":"m 418 1093 q 397 856 418 954 q 322 676 376 758 q 164 521 267 594 l 26 653 q 154 773 113 713 q 210 922 196 833 l 76 922 l 76 1093 l 418 1093 m 225 450 l 1093 450 l 1093 88 l 443 88 l 443 47 l 1119 47 l 1119 -122 l 226 -122 l 226 242 l 875 242 l 875 282 l 225 282 l 225 450 m 382 611 q 514 751 472 681 q 568 922 556 821 l 458 922 l 458 1093 l 774 1093 q 763 890 774 972 l 875 890 l 875 1139 l 1093 1139 l 1093 496 l 875 496 l 875 721 l 717 721 q 529 486 664 594 l 382 611 z "},"껌":{"ha":1214,"x_min":14,"x_max":1093,"o":"m 415 1068 q 393 817 415 922 q 314 622 371 711 q 151 454 257 533 l 14 588 q 151 725 107 656 q 208 897 194 794 l 76 897 l 76 1068 l 415 1068 m 231 385 l 1093 385 l 1093 -115 l 231 -115 l 231 385 m 374 543 q 508 701 465 622 q 564 897 551 781 l 460 897 l 460 1068 l 769 1068 q 757 860 769 942 l 875 860 l 875 1138 l 1093 1138 l 1093 432 l 875 432 l 875 686 l 715 686 q 525 421 660 542 l 374 543 m 879 56 l 879 215 l 444 215 l 444 56 l 879 56 z "},"껍":{"ha":1214,"x_min":24,"x_max":1093,"o":"m 1093 1138 l 1093 458 l 875 458 l 875 689 l 719 689 q 539 438 665 553 l 385 557 q 519 716 476 636 q 572 913 561 796 l 467 913 l 467 1082 l 778 1082 q 765 863 778 963 l 875 863 l 875 1138 l 1093 1138 m 24 601 q 160 741 117 671 q 218 913 204 811 l 85 913 l 85 1082 l 424 1082 q 402 831 424 936 q 323 637 381 725 q 161 468 265 549 l 24 601 m 243 407 l 458 407 l 458 311 l 878 311 l 878 407 l 1093 407 l 1093 -115 l 243 -115 l 243 407 m 878 58 l 878 144 l 458 144 l 458 58 l 878 58 z "},"껏":{"ha":1214,"x_min":19,"x_max":1146,"o":"m 1092 1139 l 1092 294 l 874 294 l 874 667 l 721 667 q 531 397 667 518 l 376 517 q 515 682 471 600 q 571 885 558 764 l 464 885 l 464 1057 l 775 1057 q 763 839 775 925 l 874 839 l 874 1139 l 1092 1139 m 19 560 q 158 704 114 631 q 215 885 201 778 l 83 885 l 83 1057 l 421 1057 q 399 799 421 907 q 321 601 378 692 q 160 426 264 510 l 19 560 m 169 49 q 392 115 307 67 q 513 226 476 164 q 549 353 549 288 l 549 368 l 765 368 l 765 353 q 801 226 765 288 q 922 115 838 164 q 1146 49 1007 67 l 1063 -122 q 816 -43 918 -100 q 656 97 714 14 q 497 -43 599 14 q 250 -124 396 -100 l 169 49 z "},"껐":{"ha":1214,"x_min":13,"x_max":1193,"o":"m 414 1068 q 392 817 414 922 q 313 622 369 711 q 150 454 256 533 l 13 588 q 149 726 106 656 q 207 897 193 796 l 75 897 l 75 1068 l 414 1068 m 72 40 q 244 163 192 82 q 297 349 297 244 l 297 376 l 508 376 l 508 349 q 538 201 508 271 q 629 81 567 132 q 724 203 694 133 q 753 349 753 274 l 753 376 l 969 376 l 969 349 q 1193 40 969 110 l 1088 -117 q 857 86 924 -61 q 632 -129 785 -69 q 406 81 475 -71 q 179 -117 333 -62 l 72 40 m 372 543 q 507 701 464 622 q 563 897 550 781 l 457 897 l 457 1068 l 768 1068 q 756 857 768 939 l 872 857 l 872 1138 l 1090 1138 l 1090 425 l 872 425 l 872 683 l 713 683 q 524 421 658 539 l 372 543 z "},"껑":{"ha":1214,"x_min":11,"x_max":1103,"o":"m 1093 1138 l 1093 407 l 875 407 l 875 678 l 708 678 q 518 425 653 539 l 369 546 q 507 704 463 625 q 564 897 551 783 l 457 897 l 457 1068 l 769 1068 q 756 850 769 946 l 875 850 l 875 1138 l 1093 1138 m 11 585 q 149 724 104 654 q 208 897 194 794 l 76 897 l 76 1068 l 415 1068 q 393 815 415 921 q 313 619 371 708 q 149 451 254 531 l 11 585 m 239 132 q 293 268 239 210 q 445 358 347 326 q 671 390 543 390 q 897 358 799 390 q 1049 268 994 326 q 1103 132 1103 210 q 1049 -6 1103 53 q 897 -97 994 -65 q 671 -129 799 -129 q 445 -97 543 -129 q 293 -6 347 -65 q 239 132 239 53 m 454 132 q 671 38 454 38 q 888 132 888 38 q 671 226 888 226 q 454 132 454 226 z "},"껓":{"ha":1214,"x_min":15,"x_max":1157,"o":"m 414 1082 q 392 840 414 940 q 314 656 371 739 q 153 496 257 572 l 15 629 q 149 756 106 692 q 207 913 193 819 l 76 913 l 76 1082 l 414 1082 m 149 38 q 405 88 314 49 q 525 179 496 126 l 197 179 l 197 336 l 542 336 l 542 443 l 764 443 l 764 336 l 1106 336 l 1106 179 l 782 179 q 906 88 814 128 q 1157 38 997 49 l 1090 -124 q 822 -67 931 -111 q 653 46 713 -24 q 484 -67 593 -24 q 215 -124 375 -111 l 149 38 m 374 583 q 508 732 465 658 q 564 913 551 806 l 458 913 l 458 1082 l 768 1082 q 756 872 768 968 l 874 872 l 874 1138 l 1092 1138 l 1092 425 l 874 425 l 874 700 l 708 700 q 526 464 653 569 l 374 583 z "},"껕":{"ha":1214,"x_min":26,"x_max":1136,"o":"m 410 1089 q 391 853 410 950 q 322 674 372 756 q 175 515 271 592 l 26 651 q 142 769 106 713 q 192 910 179 826 l 74 910 l 74 1089 l 410 1089 m 199 450 l 1124 450 l 1124 292 l 417 292 l 417 242 l 1114 242 l 1114 97 l 417 97 l 417 43 l 1136 43 l 1136 -112 l 199 -112 l 199 450 m 388 608 q 494 749 460 686 q 540 910 529 813 l 435 910 l 435 1089 l 764 1089 q 756 911 764 993 l 903 911 l 903 1139 l 1119 1139 l 1119 503 l 903 503 l 903 736 l 719 736 q 563 483 672 600 l 388 608 z "},"께":{"ha":1214,"x_min":4,"x_max":1143,"o":"m 342 1000 q 306 505 342 710 q 171 122 271 300 l 4 210 q 119 492 86 353 q 157 825 151 631 l 54 825 l 54 1000 l 342 1000 m 288 161 q 406 460 374 310 q 442 825 438 610 l 378 825 l 378 1000 l 625 1000 q 615 676 625 794 l 688 676 l 688 1115 l 889 1115 l 889 -74 l 688 -74 l 688 504 l 597 504 q 451 72 557 257 l 288 161 m 936 1138 l 1143 1138 l 1143 -128 l 936 -128 l 936 1138 z "},"껙":{"ha":1214,"x_min":14,"x_max":1139,"o":"m 1139 1139 l 1139 396 l 933 396 l 933 1139 l 1139 1139 m 14 579 q 110 724 81 658 q 150 888 140 789 l 64 888 l 64 1060 l 346 1060 q 333 822 346 919 q 282 638 319 724 q 171 468 244 551 l 14 579 m 215 347 l 1139 347 l 1139 -128 l 921 -128 l 921 176 l 215 176 l 215 347 m 292 511 q 401 681 368 599 q 442 888 433 764 l 375 888 l 375 1060 l 638 1060 q 631 849 638 929 l 682 849 l 682 1117 l 885 1117 l 885 403 l 682 403 l 682 676 l 601 676 q 456 407 564 531 l 292 511 z "},"껜":{"ha":1214,"x_min":8,"x_max":1158,"o":"m 443 300 l 443 65 l 1158 65 l 1158 -108 l 226 -108 l 226 300 l 443 300 m 8 522 q 112 681 81 604 q 151 872 143 758 l 63 872 l 63 1044 l 346 1044 q 334 788 346 890 q 285 594 322 686 q 171 413 247 501 l 8 522 m 289 461 q 402 645 369 554 q 442 872 435 736 l 375 872 l 375 1044 l 636 1044 q 628 797 636 888 l 683 797 l 683 1115 l 886 1115 l 886 235 l 683 235 l 683 625 l 597 625 q 456 356 560 482 l 289 461 m 933 1138 l 1139 1138 l 1139 218 l 933 218 l 933 1138 z "},"껨":{"ha":1214,"x_min":8,"x_max":1139,"o":"m 1139 1138 l 1139 411 l 933 411 l 933 1138 l 1139 1138 m 8 565 q 112 717 81 644 q 151 899 143 790 l 64 899 l 64 1069 l 346 1069 q 334 819 346 918 q 284 631 322 719 q 169 457 246 542 l 8 565 m 260 371 l 1138 371 l 1138 -115 l 260 -115 l 260 371 m 292 515 q 402 689 369 604 q 442 899 435 774 l 375 899 l 375 1069 l 638 1069 q 629 840 638 924 l 683 840 l 683 1115 l 886 1115 l 886 414 l 683 414 l 683 668 l 597 668 q 454 410 558 532 l 292 515 m 924 56 l 924 203 l 475 203 l 475 56 l 924 56 z "},"껫":{"ha":1214,"x_min":8,"x_max":1189,"o":"m 1138 1138 l 1138 319 l 932 319 l 932 1138 l 1138 1138 m 8 554 q 110 705 79 632 q 151 888 142 778 l 63 888 l 63 1060 l 344 1060 q 333 809 344 908 q 283 620 321 710 q 168 444 244 531 l 8 554 m 193 60 q 420 124 333 78 q 543 231 507 171 q 579 354 579 290 l 579 379 l 804 379 l 804 354 q 841 231 804 292 q 963 124 878 171 q 1189 60 1049 78 l 1106 -110 q 853 -32 957 -89 q 692 108 750 25 q 530 -32 633 25 q 278 -110 426 -89 l 193 60 m 294 490 q 402 669 371 582 q 440 888 433 757 l 375 888 l 375 1060 l 635 1060 q 628 838 635 922 l 681 838 l 681 1115 l 882 1115 l 882 428 l 681 428 l 681 665 l 601 665 q 549 519 582 588 q 461 386 515 451 l 294 490 z "},"껭":{"ha":1214,"x_min":8,"x_max":1150,"o":"m 1138 1138 l 1138 388 l 933 388 l 933 1138 l 1138 1138 m 8 565 q 112 717 81 644 q 151 899 143 790 l 64 899 l 64 1069 l 346 1069 q 334 819 346 919 q 284 631 322 719 q 169 457 246 542 l 8 565 m 210 115 q 335 297 210 232 q 679 363 460 363 q 1024 297 899 363 q 1150 115 1150 232 q 1024 -66 1150 -1 q 679 -131 899 -131 q 335 -66 460 -131 q 210 115 210 -1 m 301 507 q 406 683 375 597 q 443 899 436 769 l 375 899 l 375 1069 l 636 1069 q 629 842 636 929 l 683 842 l 683 1117 l 886 1117 l 886 421 l 683 421 l 683 668 l 601 668 q 465 403 564 526 l 301 507 m 435 115 q 492 56 435 74 q 679 38 550 38 q 866 56 807 38 q 925 115 925 74 q 865 178 925 158 q 679 197 806 197 q 493 178 551 197 q 435 115 435 158 z "},"껴":{"ha":1214,"x_min":15,"x_max":1094,"o":"m 1094 1139 l 1094 -126 l 876 -126 l 876 333 l 674 333 q 528 67 619 189 l 357 182 q 503 476 460 329 q 556 838 547 622 l 458 838 l 458 1013 l 763 1013 q 760 847 763 953 l 876 847 l 876 1139 l 1094 1139 m 15 274 q 163 524 121 399 q 211 838 204 649 l 76 838 l 76 1013 l 418 1013 q 401 665 418 808 q 333 394 385 522 q 181 149 282 267 l 15 274 m 876 504 l 876 675 l 749 675 q 722 504 738 578 l 876 504 z "},"껸":{"ha":1214,"x_min":18,"x_max":1124,"o":"m 875 615 l 875 740 l 743 740 q 667 531 721 625 q 518 349 614 436 l 374 476 q 512 654 469 564 q 565 876 554 744 l 465 876 l 465 1049 l 767 1049 q 764 913 767 999 l 875 913 l 875 1133 l 1093 1133 l 1093 214 l 875 214 l 875 443 l 731 443 l 731 615 l 875 615 m 18 533 q 160 686 115 608 q 218 876 206 764 l 89 876 l 89 1049 l 425 1049 q 403 783 425 894 q 322 577 381 671 q 157 400 264 483 l 18 533 m 224 306 l 442 306 l 442 65 l 1124 65 l 1124 -108 l 224 -108 l 224 306 z "},"껼":{"ha":1214,"x_min":26,"x_max":1119,"o":"m 875 747 l 875 842 l 747 842 q 675 652 726 736 q 529 492 624 568 l 381 615 q 509 753 468 685 q 563 922 550 822 l 456 922 l 456 1093 l 767 1093 q 765 1003 767 1032 l 875 1003 l 875 1139 l 1093 1139 l 1093 496 l 875 496 l 875 586 l 738 586 l 738 747 l 875 747 m 26 658 q 154 776 113 717 q 210 922 196 835 l 76 922 l 76 1093 l 418 1093 q 397 858 418 956 q 322 679 376 760 q 164 525 267 599 l 26 658 m 225 450 l 1093 450 l 1093 88 l 443 88 l 443 47 l 1119 47 l 1119 -122 l 226 -122 l 226 242 l 875 242 l 875 282 l 225 282 l 225 450 z "},"꼇":{"ha":1214,"x_min":19,"x_max":1146,"o":"m 874 663 l 874 776 l 743 776 q 669 569 721 663 q 528 393 618 476 l 372 511 q 508 679 465 596 q 563 885 550 763 l 461 885 l 461 1057 l 765 1057 q 763 947 765 1017 l 874 947 l 874 1139 l 1092 1139 l 1092 288 l 874 288 l 874 489 l 731 489 l 731 663 l 874 663 m 19 560 q 158 704 114 631 q 215 885 201 778 l 83 885 l 83 1057 l 421 1057 q 399 799 421 907 q 321 601 378 692 q 160 426 264 510 l 19 560 m 169 46 q 392 108 307 63 q 513 214 476 154 q 549 336 549 274 l 549 350 l 765 350 l 765 336 q 854 153 765 235 q 1146 46 943 71 l 1064 -124 q 656 88 778 -82 q 497 -48 599 7 q 249 -124 396 -103 l 169 46 z "},"꼈":{"ha":1214,"x_min":13,"x_max":1193,"o":"m 872 699 l 872 794 l 735 794 q 661 595 713 685 q 518 422 610 506 l 367 543 q 499 703 457 624 q 553 897 542 782 l 457 897 l 457 1068 l 757 1068 q 754 965 757 1032 l 872 965 l 872 1138 l 1090 1138 l 1090 425 l 872 425 l 872 526 l 726 526 l 726 699 l 872 699 m 13 588 q 149 726 106 656 q 207 897 193 796 l 75 897 l 75 1068 l 414 1068 q 392 817 414 922 q 313 622 369 711 q 150 454 256 533 l 13 588 m 72 40 q 244 163 192 82 q 297 349 297 244 l 297 376 l 508 376 l 508 349 q 538 201 508 271 q 629 81 567 132 q 724 203 694 133 q 753 349 753 274 l 753 376 l 969 376 l 969 349 q 1193 40 969 110 l 1088 -117 q 857 86 924 -61 q 632 -129 785 -69 q 406 81 475 -71 q 179 -117 333 -62 l 72 40 z "},"꼉":{"ha":1214,"x_min":11,"x_max":1103,"o":"m 1093 1138 l 1093 407 l 875 407 l 875 536 l 732 536 l 732 711 l 875 711 l 875 803 l 747 803 q 669 599 724 690 q 518 425 615 507 l 369 546 q 507 704 463 625 q 564 897 551 783 l 457 897 l 457 1068 l 769 1068 q 768 976 769 1006 l 875 976 l 875 1138 l 1093 1138 m 11 585 q 149 724 104 654 q 208 897 194 794 l 76 897 l 76 1068 l 415 1068 q 393 815 415 921 q 313 619 371 708 q 149 451 254 531 l 11 585 m 239 132 q 293 268 239 210 q 445 358 347 326 q 671 390 543 390 q 897 358 799 390 q 1049 268 994 326 q 1103 132 1103 210 q 1049 -6 1103 53 q 897 -97 994 -65 q 671 -129 799 -129 q 445 -97 543 -129 q 293 -6 347 -65 q 239 132 239 53 m 454 132 q 671 38 454 38 q 888 132 888 38 q 671 226 888 226 q 454 132 454 226 z "},"꼍":{"ha":1214,"x_min":22,"x_max":1114,"o":"m 1096 432 l 1096 275 l 458 275 l 458 235 l 1079 235 l 1079 85 l 458 85 l 458 42 l 1114 42 l 1114 -115 l 240 -115 l 240 432 l 1096 432 m 22 615 q 157 751 114 683 q 213 919 200 819 l 88 919 l 88 1089 l 419 1089 q 399 839 419 942 q 322 649 378 736 q 161 483 265 563 l 22 615 m 364 574 q 501 728 458 650 q 556 919 544 806 l 458 919 l 458 1089 l 758 1089 q 757 993 758 1024 l 875 993 l 875 1138 l 1093 1138 l 1093 476 l 875 476 l 875 554 l 726 554 l 726 724 l 875 724 l 875 825 l 739 825 q 665 624 717 713 q 518 456 613 536 l 364 574 z "},"꼐":{"ha":1214,"x_min":4,"x_max":1143,"o":"m 342 1000 q 306 505 342 710 q 171 122 271 300 l 4 210 q 119 492 86 353 q 157 825 151 631 l 54 825 l 54 1000 l 342 1000 m 288 161 q 406 460 374 310 q 442 825 438 610 l 378 825 l 378 1000 l 625 1000 q 622 824 625 881 l 688 824 l 688 1115 l 889 1115 l 889 -74 l 688 -74 l 688 332 l 560 332 q 451 72 521 192 l 288 161 m 688 504 l 688 651 l 614 651 q 597 504 607 574 l 688 504 m 936 1138 l 1143 1138 l 1143 -128 l 936 -128 l 936 1138 z "},"꼬":{"ha":1214,"x_min":33,"x_max":1179,"o":"m 526 1035 l 526 956 q 522 788 526 861 q 498 609 518 715 q 436 372 478 503 l 222 408 q 308 863 303 646 l 114 863 l 114 1035 l 526 1035 m 33 204 l 519 204 l 519 568 l 733 568 l 733 204 l 1179 204 l 1179 29 l 33 29 l 33 204 m 613 1035 l 1072 1035 l 1072 954 q 1066 683 1072 811 q 1035 381 1060 556 l 821 403 q 858 863 856 636 l 613 863 l 613 1035 z "},"꼭":{"ha":1214,"x_min":38,"x_max":1176,"o":"m 1076 1088 l 1076 997 q 1069 816 1076 896 q 1036 640 1063 736 l 825 663 q 864 917 861 790 l 611 917 l 611 1088 l 1076 1088 m 38 578 l 519 578 l 519 779 l 733 779 l 733 578 l 1176 578 l 1176 406 l 38 406 l 38 578 m 124 1088 l 521 1088 l 521 1026 q 509 839 521 929 q 453 639 497 749 l 243 667 q 306 917 293 796 l 124 917 l 124 1088 m 158 324 l 1036 324 l 1036 -121 l 818 -121 l 818 153 l 158 153 l 158 324 z "},"꼰":{"ha":1214,"x_min":38,"x_max":1176,"o":"m 1076 1082 l 1076 988 q 1069 798 1076 881 q 1036 614 1063 715 l 825 638 q 854 778 846 714 q 865 913 863 843 l 611 913 l 611 1082 l 1076 1082 m 38 539 l 519 539 l 519 751 l 733 751 l 733 539 l 1176 539 l 1176 368 l 38 368 l 38 539 m 124 1082 l 521 1082 l 521 1013 q 508 815 521 908 q 447 610 496 722 l 239 644 q 307 913 297 788 l 124 913 l 124 1082 m 178 296 l 396 296 l 396 65 l 1054 65 l 1054 -107 l 178 -107 l 178 296 z "},"꼲":{"ha":1214,"x_min":38,"x_max":1176,"o":"m 738 369 l 738 436 l 949 436 l 949 369 l 1135 369 l 1135 215 l 550 215 l 550 369 l 738 369 m 38 640 l 519 640 l 519 815 l 733 815 l 733 640 l 1176 640 l 1176 468 l 38 468 l 38 640 m 124 1097 l 521 1097 l 521 1019 q 509 850 521 928 q 451 683 497 772 l 242 718 q 306 926 296 835 l 124 926 l 124 1097 m 151 375 l 363 375 l 363 83 q 551 119 463 92 l 575 -51 q 418 -85 499 -76 q 231 -94 338 -94 l 151 -94 l 151 375 m 608 36 q 674 155 608 110 q 842 200 740 200 q 1009 155 943 200 q 1075 36 1075 110 q 1009 -83 1075 -37 q 842 -129 943 -129 q 674 -83 740 -129 q 608 36 608 -37 m 611 1097 l 1076 1097 l 1076 1015 q 1069 849 1076 924 q 1038 690 1063 775 l 826 713 q 864 926 860 828 l 611 926 l 611 1097 m 790 36 q 842 8 790 8 q 893 36 893 8 q 842 61 893 61 q 790 36 790 61 z "},"꼳":{"ha":1214,"x_min":38,"x_max":1176,"o":"m 1076 1088 l 1076 1000 q 1069 824 1076 903 q 1036 651 1063 744 l 825 674 q 864 917 858 792 l 611 917 l 611 1088 l 1076 1088 m 38 593 l 519 593 l 519 789 l 733 789 l 733 593 l 1176 593 l 1176 421 l 38 421 l 38 593 m 124 1088 l 521 1088 l 521 1028 q 509 844 521 933 q 453 649 497 756 l 243 678 q 306 917 293 804 l 124 917 l 124 1088 m 164 328 l 1040 328 l 1040 157 l 381 157 l 381 57 l 1057 57 l 1057 -114 l 164 -114 l 164 328 z "},"꼴":{"ha":1214,"x_min":38,"x_max":1176,"o":"m 1076 1108 l 1076 1026 q 1069 865 1076 938 q 1038 706 1063 792 l 826 729 q 864 936 856 828 l 611 936 l 611 1108 l 1076 1108 m 38 667 l 517 667 l 517 821 l 731 821 l 731 667 l 1176 667 l 1176 497 l 38 497 l 38 667 m 124 1108 l 521 1108 l 521 1032 q 509 864 521 940 q 451 700 497 788 l 242 732 q 306 936 293 839 l 124 936 l 124 1108 m 183 451 l 1029 451 l 1029 89 l 399 89 l 399 46 l 1071 46 l 1071 -122 l 185 -122 l 185 243 l 815 243 l 815 285 l 183 285 l 183 451 z "},"꼼":{"ha":1214,"x_min":38,"x_max":1176,"o":"m 1075 1093 l 1075 1003 q 1068 821 1075 901 q 1035 644 1061 740 l 824 667 q 864 924 861 796 l 610 924 l 610 1093 l 1075 1093 m 38 594 l 519 594 l 519 786 l 733 786 l 733 594 l 1176 594 l 1176 421 l 38 421 l 38 594 m 124 1093 l 521 1093 l 521 1032 q 509 844 521 935 q 453 644 497 754 l 243 672 q 306 924 293 803 l 124 924 l 124 1093 m 171 342 l 1036 342 l 1036 -114 l 171 -114 l 171 342 m 821 56 l 821 174 l 385 174 l 385 56 l 821 56 z "},"꼽":{"ha":1214,"x_min":38,"x_max":1176,"o":"m 1075 1100 l 1075 1008 q 1068 826 1075 907 q 1035 650 1061 746 l 824 672 q 864 929 861 801 l 610 929 l 610 1100 l 1075 1100 m 38 601 l 519 601 l 519 786 l 733 786 l 733 601 l 1176 601 l 1176 431 l 38 431 l 38 601 m 124 1100 l 521 1100 l 521 1038 q 509 849 521 939 q 453 649 497 758 l 243 678 q 306 929 296 817 l 124 929 l 124 1100 m 172 379 l 388 379 l 388 296 l 821 296 l 821 379 l 1036 379 l 1036 -115 l 172 -115 l 172 379 m 821 58 l 821 131 l 388 131 l 388 58 l 821 58 z "},"꼿":{"ha":1214,"x_min":38,"x_max":1176,"o":"m 1075 1085 l 1075 996 q 1068 814 1075 894 q 1035 638 1061 733 l 824 660 q 864 915 861 788 l 610 915 l 610 1085 l 1075 1085 m 38 576 l 519 576 l 519 781 l 733 781 l 733 576 l 1176 576 l 1176 403 l 38 403 l 38 576 m 101 46 q 406 149 314 68 q 499 332 499 231 l 499 353 l 714 353 l 714 332 q 806 149 714 231 q 1113 46 899 68 l 1036 -122 q 774 -49 882 -101 q 607 85 667 4 q 178 -122 481 -82 l 101 46 m 124 1085 l 521 1085 l 521 1024 q 509 836 521 926 q 453 636 497 746 l 243 665 q 306 915 292 793 l 124 915 l 124 1085 z "},"꽁":{"ha":1214,"x_min":38,"x_max":1176,"o":"m 604 357 q 930 293 811 357 q 1049 114 1049 229 q 930 -65 1049 0 q 604 -129 811 -129 q 278 -65 397 -129 q 160 114 160 0 q 278 293 160 229 q 604 357 397 357 m 38 578 l 519 578 l 519 781 l 733 781 l 733 578 l 1176 578 l 1176 404 l 38 404 l 38 578 m 124 1089 l 521 1089 l 521 1026 q 509 839 521 929 q 453 639 497 749 l 243 667 q 306 918 293 797 l 124 918 l 124 1089 m 383 114 q 437 56 383 74 q 604 39 490 39 q 772 56 718 39 q 825 114 825 74 q 772 173 825 156 q 604 190 719 190 q 436 173 489 190 q 383 114 383 156 m 610 1089 l 1075 1089 l 1075 997 q 1068 816 1075 896 q 1035 640 1061 736 l 824 663 q 864 918 861 789 l 610 918 l 610 1089 z "},"꽂":{"ha":1214,"x_min":38,"x_max":1176,"o":"m 1075 1094 l 1075 1004 q 1068 826 1075 906 q 1035 651 1061 746 l 824 674 q 864 924 861 806 l 610 924 l 610 1094 l 1075 1094 m 38 608 l 519 608 l 519 797 l 733 797 l 733 608 l 1176 608 l 1176 438 l 38 438 l 38 608 m 111 44 q 333 101 249 60 q 456 200 417 142 l 164 200 l 164 368 l 1050 368 l 1050 200 l 754 200 q 1101 44 840 74 l 1022 -124 q 768 -50 872 -103 q 606 83 664 3 q 444 -50 547 3 q 190 -124 340 -103 l 111 44 m 124 1094 l 521 1094 l 521 1033 q 509 847 521 936 q 453 650 497 758 l 243 678 q 306 924 293 804 l 124 924 l 124 1094 z "},"꽃":{"ha":1214,"x_min":38,"x_max":1176,"o":"m 1076 1101 l 1076 1017 q 1069 851 1076 925 q 1038 689 1063 776 l 826 713 q 864 929 860 829 l 610 929 l 610 1101 l 1076 1101 m 38 647 l 519 647 l 519 806 l 733 806 l 733 647 l 1176 647 l 1176 476 l 38 476 l 38 647 m 122 39 q 369 93 282 51 q 485 189 457 135 l 172 189 l 172 354 l 497 354 l 497 443 l 717 443 l 717 354 l 1042 354 l 1042 189 l 729 189 q 844 92 757 133 q 1092 39 931 51 l 1022 -124 q 607 43 731 -99 q 445 -67 549 -24 q 192 -124 342 -111 l 122 39 m 124 1101 l 521 1101 l 521 1024 q 509 851 521 929 q 451 683 497 774 l 240 717 q 306 929 296 833 l 124 929 l 124 1101 z "},"꽅":{"ha":1214,"x_min":38,"x_max":1176,"o":"m 1076 1108 l 1076 1026 q 1069 865 1076 938 q 1038 706 1063 792 l 826 729 q 864 936 856 828 l 611 936 l 611 1108 l 1076 1108 m 38 660 l 517 660 l 517 815 l 731 815 l 731 660 l 1176 660 l 1176 489 l 38 489 l 38 660 m 124 1108 l 521 1108 l 521 1032 q 509 864 521 940 q 451 700 497 788 l 242 732 q 306 936 293 839 l 124 936 l 124 1108 m 171 424 l 1047 424 l 1047 269 l 389 269 l 389 231 l 1019 231 l 1019 82 l 389 82 l 389 40 l 1058 40 l 1058 -117 l 171 -117 l 171 424 z "},"꽈":{"ha":1214,"x_min":32,"x_max":1194,"o":"m 360 1010 l 360 929 q 356 765 360 839 q 333 600 351 692 l 529 600 l 529 292 q 800 321 697 304 l 811 161 q 448 117 638 128 q 47 106 258 106 l 32 279 q 332 283 224 279 l 332 593 q 290 428 318 519 l 93 468 q 157 835 151 654 l 53 835 l 53 1010 l 360 1010 m 413 1010 l 786 1010 l 786 897 q 781 671 786 771 q 753 450 775 571 l 554 478 q 583 835 581 638 l 413 835 l 413 1010 m 850 1138 l 1068 1138 l 1068 638 l 1194 638 l 1194 460 l 1068 460 l 1068 -128 l 850 -128 l 850 1138 z "},"꽉":{"ha":1214,"x_min":31,"x_max":1194,"o":"m 363 1063 l 363 960 q 360 857 363 900 q 351 768 358 814 l 521 768 l 521 557 q 797 579 674 564 l 810 425 q 454 387 638 396 q 47 378 271 378 l 31 547 q 326 550 222 547 l 326 661 q 319 638 324 653 q 310 614 314 624 l 111 643 q 148 772 138 714 q 161 892 158 831 l 67 892 l 67 1063 l 363 1063 m 176 311 l 1074 311 l 1074 -128 l 856 -128 l 856 139 l 176 139 l 176 311 m 414 1063 l 771 1063 l 771 971 q 765 796 771 874 q 733 628 758 718 l 529 650 q 563 892 560 768 l 414 892 l 414 1063 m 856 1138 l 1074 1138 l 1074 826 l 1194 826 l 1194 650 l 1074 650 l 1074 357 l 856 357 l 856 1138 z "},"꽐":{"ha":1214,"x_min":28,"x_max":1194,"o":"m 363 1082 l 363 990 q 360 892 363 933 q 350 804 358 850 l 521 804 l 521 633 q 808 657 696 643 l 822 510 q 459 470 646 479 q 44 461 272 461 l 28 625 q 326 628 221 625 l 326 713 q 313 675 318 688 l 114 703 q 160 913 154 807 l 67 913 l 67 1082 l 363 1082 m 179 418 l 1074 418 l 1074 76 l 400 76 l 400 39 l 1107 39 l 1107 -122 l 181 -122 l 181 224 l 854 224 l 854 261 l 179 261 l 179 418 m 414 1082 l 771 1082 l 771 997 q 765 838 771 910 q 735 682 758 765 l 531 707 q 563 913 557 806 l 414 913 l 414 1082 m 856 1139 l 1074 1139 l 1074 881 l 1194 881 l 1194 704 l 1074 704 l 1074 460 l 856 460 l 856 1139 z "},"꽜":{"ha":1214,"x_min":31,"x_max":1194,"o":"m 363 1071 l 363 969 q 360 865 363 908 q 351 774 358 821 l 521 774 l 521 574 q 797 596 674 581 l 810 447 q 458 408 639 417 q 46 400 278 400 l 31 564 q 326 567 222 564 l 326 672 q 311 629 321 653 l 113 657 q 148 784 138 726 q 160 900 158 842 l 67 900 l 67 1071 l 363 1071 m 72 49 q 239 158 188 85 q 290 328 290 231 l 290 342 l 503 342 l 503 328 q 531 192 503 256 q 621 83 560 129 q 717 194 686 131 q 747 328 747 258 l 747 342 l 963 342 l 963 328 q 1181 49 963 110 l 1076 -110 q 850 79 917 -58 q 624 -124 779 -67 q 397 78 468 -68 q 175 -110 326 -60 l 72 49 m 414 1071 l 771 1071 l 771 981 q 765 808 771 885 q 739 642 760 732 l 535 664 q 563 900 560 776 l 414 900 l 414 1071 m 856 1138 l 1074 1138 l 1074 851 l 1194 851 l 1194 674 l 1074 674 l 1074 388 l 856 388 l 856 1138 z "},"꽝":{"ha":1214,"x_min":31,"x_max":1194,"o":"m 633 357 q 962 294 843 357 q 1081 118 1081 231 q 961 -60 1081 4 q 633 -124 842 -124 q 305 -60 425 -124 q 185 118 185 4 q 304 294 185 231 q 633 357 424 357 m 31 563 q 326 567 219 563 l 326 672 q 311 629 321 653 l 113 657 q 148 784 138 726 q 160 900 158 842 l 67 900 l 67 1071 l 363 1071 l 363 969 q 360 867 363 910 q 351 779 358 825 l 521 779 l 521 575 q 797 603 660 583 l 810 450 q 451 406 638 417 q 47 393 264 394 l 31 563 m 404 118 q 459 58 404 76 q 633 40 514 40 q 808 58 753 40 q 863 118 863 76 q 808 178 863 160 q 633 196 753 196 q 459 178 514 196 q 404 118 404 160 m 414 1071 l 771 1071 l 771 982 q 765 808 771 885 q 733 643 758 732 l 529 665 q 563 900 560 781 l 414 900 l 414 1071 m 856 1138 l 1074 1138 l 1074 836 l 1194 836 l 1194 660 l 1074 660 l 1074 369 l 856 369 l 856 1138 z "},"꽤":{"ha":1214,"x_min":14,"x_max":1153,"o":"m 14 321 q 247 324 161 321 l 247 521 l 233 476 l 49 504 q 108 828 103 669 l 35 828 l 35 1003 l 296 1003 l 296 917 q 292 758 296 824 q 269 608 288 692 l 425 608 l 425 329 q 642 347 553 336 l 654 196 q 39 149 428 149 l 14 321 m 342 1003 l 642 1003 l 642 896 q 637 682 642 776 q 614 474 632 588 l 432 499 q 457 828 454 650 l 342 828 l 342 1003 m 688 1121 l 890 1121 l 890 665 l 946 665 l 946 1139 l 1153 1139 l 1153 -126 l 946 -126 l 946 493 l 890 493 l 890 -74 l 688 -74 l 688 1121 z "},"꽥":{"ha":1214,"x_min":17,"x_max":1150,"o":"m 17 557 q 260 560 171 557 l 260 664 l 243 625 l 72 675 q 126 889 119 786 l 47 889 l 47 1061 l 307 1061 l 307 975 q 304 865 307 913 q 290 764 301 817 l 439 764 l 439 567 q 653 586 586 578 l 668 433 q 40 388 433 390 l 17 557 m 257 328 l 1150 328 l 1150 -128 l 932 -128 l 932 154 l 257 154 l 257 328 m 349 1061 l 647 1061 l 647 968 q 643 796 647 872 q 621 629 639 719 l 442 647 q 467 889 464 765 l 349 889 l 349 1061 m 697 1110 l 899 1110 l 899 838 l 943 838 l 943 1138 l 1150 1138 l 1150 369 l 943 369 l 943 665 l 899 665 l 899 374 l 697 374 l 697 1110 z "},"꽸":{"ha":1214,"x_min":17,"x_max":1208,"o":"m 17 558 q 258 561 83 558 l 258 661 q 243 625 256 654 l 71 675 q 125 889 118 786 l 46 889 l 46 1061 l 306 1061 l 306 976 q 303 865 306 914 q 289 764 300 817 l 438 764 l 438 569 q 651 588 565 576 l 667 436 q 39 389 435 392 l 17 558 m 88 21 q 258 131 206 57 q 311 301 311 206 l 311 315 l 524 315 l 524 301 q 553 165 524 229 q 644 56 582 101 q 740 169 708 104 q 771 301 771 233 l 771 315 l 983 315 l 983 301 q 1208 21 983 86 l 1106 -135 q 872 57 942 -83 q 646 -149 801 -92 q 421 53 489 -93 q 192 -135 350 -83 l 88 21 m 347 1061 l 647 1061 l 647 969 q 642 796 647 872 q 619 629 638 719 l 440 647 q 467 889 461 749 l 347 889 l 347 1061 m 696 1111 l 897 1111 l 897 839 l 942 839 l 942 1138 l 1149 1138 l 1149 357 l 942 357 l 942 665 l 897 665 l 897 367 l 696 367 l 696 1111 z "},"꽹":{"ha":1214,"x_min":17,"x_max":1156,"o":"m 1150 1138 l 1150 357 l 943 357 l 943 665 l 899 665 l 899 399 l 696 399 l 696 1111 l 899 1111 l 899 838 l 943 838 l 943 1138 l 1150 1138 m 17 563 q 260 565 169 563 l 260 667 l 243 628 l 72 678 q 126 892 119 789 l 47 892 l 47 1063 l 307 1063 l 307 979 q 304 868 307 917 q 290 767 301 819 l 439 767 l 439 575 q 651 599 571 585 l 668 446 q 40 393 436 393 l 17 563 m 231 111 q 353 290 231 226 q 692 353 475 353 q 1033 290 910 353 q 1156 111 1156 226 q 1032 -66 1156 -3 q 692 -129 908 -129 q 353 -66 476 -129 q 231 111 231 -3 m 349 1063 l 647 1063 l 647 971 q 643 799 647 875 q 621 632 639 722 l 442 650 q 467 892 464 768 l 349 892 l 349 1063 m 453 111 q 511 51 453 69 q 692 32 569 32 q 874 51 815 32 q 932 111 932 69 q 875 174 932 156 q 692 192 818 192 q 510 174 567 192 q 453 111 453 156 z "},"꾀":{"ha":1214,"x_min":46,"x_max":1111,"o":"m 372 1010 l 372 907 q 360 665 372 772 q 303 418 349 558 l 108 460 q 158 654 144 567 q 174 835 171 742 l 67 835 l 67 1010 l 372 1010 m 46 279 q 360 282 249 279 l 360 615 l 558 615 l 558 290 q 844 317 714 299 l 856 158 q 479 116 674 126 q 61 106 285 106 l 46 279 m 432 1010 l 811 1010 l 811 896 q 806 667 811 768 q 776 443 800 567 l 581 472 q 606 654 600 569 q 614 835 613 739 l 432 835 l 432 1010 m 893 1138 l 1111 1138 l 1111 -128 l 893 -128 l 893 1138 z "},"꾄":{"ha":1214,"x_min":46,"x_max":1133,"o":"m 46 515 q 357 518 246 515 l 357 704 q 324 601 340 642 l 126 629 q 167 759 156 701 q 181 879 178 817 l 82 879 l 82 1050 l 378 1050 l 378 947 q 376 841 378 885 q 367 751 374 797 l 554 751 l 554 525 q 825 547 706 532 l 839 396 q 476 354 663 364 q 61 344 290 344 l 46 515 m 221 275 l 440 275 l 440 65 l 1133 65 l 1133 -108 l 221 -108 l 221 275 m 435 1050 l 801 1050 l 801 957 q 796 783 801 860 q 769 615 790 706 l 575 638 q 603 879 597 749 l 435 879 l 435 1050 m 885 1138 l 1101 1138 l 1101 207 l 885 207 l 885 1138 z "},"꾈":{"ha":1214,"x_min":35,"x_max":1132,"o":"m 375 1088 l 375 994 q 365 819 375 883 l 551 819 l 551 635 q 828 657 704 642 l 842 510 q 476 472 663 481 q 60 461 289 463 l 35 625 q 353 628 240 625 l 353 756 q 326 674 340 708 l 131 700 q 176 918 172 810 l 79 918 l 79 1088 l 375 1088 m 218 424 l 1103 424 l 1103 82 l 439 82 l 439 40 l 1132 40 l 1132 -122 l 219 -122 l 219 229 l 885 229 l 885 268 l 218 268 l 218 424 m 435 1088 l 799 1088 l 799 1003 q 793 839 799 913 q 764 681 788 765 l 569 704 q 597 918 594 815 l 435 918 l 435 1088 m 885 1139 l 1103 1139 l 1103 465 l 885 465 l 885 1139 z "},"꾐":{"ha":1214,"x_min":46,"x_max":1103,"o":"m 1103 1139 l 1103 383 l 885 383 l 885 1139 l 1103 1139 m 46 568 q 357 571 246 568 l 357 719 q 331 635 346 675 l 133 661 q 179 893 176 779 l 82 893 l 82 1064 l 379 1064 l 379 965 q 371 789 379 853 l 556 789 l 556 579 q 831 603 690 585 l 842 450 q 477 408 664 418 q 63 399 290 399 l 46 568 m 221 331 l 1103 331 l 1103 -115 l 221 -115 l 221 331 m 435 1064 l 801 1064 l 801 976 q 796 809 801 883 q 767 647 790 735 l 574 669 q 603 893 600 783 l 435 893 l 435 1064 m 889 56 l 889 160 l 436 160 l 436 56 l 889 56 z "},"꾑":{"ha":1214,"x_min":46,"x_max":1103,"o":"m 442 368 l 442 281 l 888 281 l 888 368 l 1103 368 l 1103 -115 l 226 -115 l 226 368 l 442 368 m 46 588 q 357 590 246 588 l 357 728 q 331 643 346 683 l 133 668 q 168 791 158 736 q 179 901 178 846 l 82 901 l 82 1072 l 379 1072 l 379 974 q 371 797 379 861 l 556 797 l 556 597 q 831 621 721 607 l 842 468 q 477 425 664 435 q 63 415 290 415 l 46 588 m 435 1072 l 801 1072 l 801 985 q 796 817 801 892 q 767 656 790 742 l 574 678 q 603 901 600 792 l 435 901 l 435 1072 m 888 54 l 888 121 l 442 121 l 442 54 l 888 54 m 885 1139 l 1103 1139 l 1103 408 l 885 408 l 885 1139 z "},"꾕":{"ha":1214,"x_min":46,"x_max":1108,"o":"m 661 353 q 989 290 869 353 q 1108 111 1108 226 q 989 -65 1108 -1 q 661 -129 869 -129 q 333 -65 451 -129 q 214 111 214 -1 q 333 290 214 226 q 661 353 451 353 m 46 558 q 357 561 246 558 l 357 717 q 329 629 344 667 l 133 656 q 179 888 176 774 l 82 888 l 82 1060 l 379 1060 l 379 960 q 369 782 379 846 l 556 782 l 556 569 q 831 594 725 579 l 842 442 q 477 399 664 408 q 63 389 290 389 l 46 558 m 433 111 q 488 53 433 71 q 661 35 543 35 q 834 53 779 35 q 889 111 889 71 q 835 172 889 154 q 661 190 781 190 q 488 172 542 190 q 433 111 433 154 m 435 1060 l 801 1060 l 801 971 q 796 803 801 878 q 767 643 790 729 l 574 665 q 603 888 600 779 l 435 888 l 435 1060 m 885 1139 l 1103 1139 l 1103 364 l 885 364 l 885 1139 z "},"꾜":{"ha":1214,"x_min":33,"x_max":1179,"o":"m 501 1035 l 501 954 q 492 757 501 842 q 443 556 482 672 l 572 556 l 572 204 l 649 204 l 649 556 l 856 556 q 879 860 876 710 l 596 860 l 596 1035 l 1093 1035 l 1093 953 q 1084 681 1093 814 q 1042 367 1075 549 l 860 388 l 860 204 l 1179 204 l 1179 29 l 33 29 l 33 204 l 363 204 l 363 378 l 164 438 q 253 664 228 563 q 285 860 279 765 l 101 860 l 101 1035 l 501 1035 z "},"꾸":{"ha":1214,"x_min":33,"x_max":1179,"o":"m 283 565 q 328 897 325 729 l 124 897 l 124 1068 l 543 1068 l 543 967 q 536 764 543 853 q 503 565 529 675 l 807 565 q 842 897 839 719 l 624 897 l 624 1068 l 1056 1068 l 1056 963 q 1051 760 1056 849 q 1025 565 1046 672 l 1179 565 l 1179 390 l 707 390 l 707 -124 l 489 -124 l 489 390 l 33 390 l 33 565 l 283 565 z "},"꾹":{"ha":1214,"x_min":33,"x_max":1179,"o":"m 554 1094 l 554 1004 q 547 826 554 904 q 510 651 539 747 l 794 651 q 836 922 831 783 l 619 922 l 619 1094 l 1046 1094 l 1046 997 q 1040 822 1046 899 q 1011 651 1035 744 l 1179 651 l 1179 479 l 711 479 l 711 333 l 1028 333 l 1028 -128 l 811 -128 l 811 163 l 172 163 l 172 333 l 496 333 l 496 479 l 33 479 l 33 651 l 293 651 q 342 922 336 785 l 129 922 l 129 1094 l 554 1094 z "},"꾼":{"ha":1214,"x_min":33,"x_max":1179,"o":"m 288 615 q 328 767 317 699 q 342 907 339 836 l 129 907 l 129 1078 l 554 1078 l 554 986 q 546 799 554 881 q 506 615 538 717 l 789 615 q 824 766 814 697 q 836 907 833 835 l 619 907 l 619 1078 l 1046 1078 l 1046 982 q 1040 797 1046 878 q 1007 615 1033 715 l 1179 615 l 1179 444 l 744 444 l 744 190 l 526 190 l 526 444 l 33 444 l 33 615 l 288 615 m 178 311 l 396 311 l 396 65 l 1054 65 l 1054 -107 l 178 -107 l 178 311 z "},"꿀":{"ha":1214,"x_min":33,"x_max":1179,"o":"m 301 707 q 332 820 324 768 q 343 932 340 872 l 129 932 l 129 1104 l 554 1104 l 554 996 q 549 842 554 907 q 524 707 544 778 l 799 707 q 835 932 829 818 l 619 932 l 619 1104 l 1046 1104 l 1046 1015 q 1041 858 1046 928 q 1015 707 1036 789 l 1179 707 l 1179 535 l 714 535 l 714 460 l 1039 460 l 1039 93 l 379 93 l 379 46 l 1068 46 l 1068 -122 l 163 -122 l 163 247 l 821 247 l 821 294 l 161 294 l 161 460 l 499 460 l 499 535 l 33 535 l 33 707 l 301 707 z "},"꿇":{"ha":1214,"x_min":33,"x_max":1179,"o":"m 301 711 q 332 824 324 772 q 343 936 340 876 l 129 936 l 129 1108 l 554 1108 l 554 1000 q 549 847 554 911 q 524 711 544 782 l 799 711 q 835 936 829 822 l 619 936 l 619 1108 l 1046 1108 l 1046 1019 q 1041 863 1046 932 q 1015 711 1036 793 l 1179 711 l 1179 539 l 704 539 l 704 404 l 557 404 l 557 88 l 335 88 l 335 42 q 490 47 435 43 q 594 60 544 50 l 613 -96 q 472 -111 544 -108 q 211 -114 399 -114 l 128 -114 l 128 232 l 350 232 l 350 274 l 126 274 l 126 429 l 485 429 l 485 539 l 33 539 l 33 711 l 301 711 m 593 376 l 761 376 l 761 468 l 971 468 l 971 376 l 1142 376 l 1142 224 l 593 224 l 593 376 m 636 39 q 701 159 636 113 q 865 206 765 206 q 1032 159 967 206 q 1097 39 1097 113 q 1032 -83 1097 -36 q 865 -129 967 -129 q 701 -83 765 -129 q 636 39 636 -36 m 818 39 q 831 15 818 21 q 865 8 843 8 q 914 39 914 8 q 865 67 914 67 q 818 39 818 67 z "},"꿈":{"ha":1214,"x_min":33,"x_max":1179,"o":"m 556 1086 l 556 997 q 549 828 556 903 q 518 665 543 754 l 800 665 q 835 915 832 788 l 619 915 l 619 1086 l 1046 1086 l 1046 992 q 1041 824 1046 897 q 1017 665 1036 751 l 1179 665 l 1179 494 l 711 494 l 711 361 l 1036 361 l 1036 -114 l 171 -114 l 171 361 l 496 361 l 496 494 l 33 494 l 33 665 l 300 665 q 343 915 338 786 l 131 915 l 131 1086 l 556 1086 m 821 56 l 821 193 l 385 193 l 385 56 l 821 56 z "},"꿉":{"ha":1214,"x_min":35,"x_max":1181,"o":"m 556 1093 l 556 1008 q 549 842 556 917 q 515 681 542 768 l 797 681 q 835 922 832 803 l 619 922 l 619 1093 l 1046 1093 l 1046 1003 q 1041 839 1046 911 q 1015 681 1036 767 l 1181 681 l 1181 510 l 708 510 l 708 354 l 492 354 l 492 510 l 35 510 l 35 681 l 297 681 q 343 922 339 807 l 131 922 l 131 1093 l 556 1093 m 158 414 l 374 414 l 374 308 l 826 308 l 826 414 l 1043 414 l 1043 -114 l 158 -114 l 158 414 m 826 57 l 826 140 l 374 140 l 374 57 l 826 57 z "},"꿋":{"ha":1214,"x_min":35,"x_max":1181,"o":"m 299 656 q 343 910 338 776 l 131 910 l 131 1081 l 556 1081 l 556 992 q 549 819 556 894 q 517 656 543 744 l 799 656 q 836 910 831 774 l 619 910 l 619 1081 l 1046 1081 l 1046 985 q 1041 816 1046 889 q 1015 656 1036 743 l 1181 656 l 1181 483 l 711 483 l 711 333 l 494 333 l 494 483 l 35 483 l 35 656 l 299 656 m 101 39 q 328 92 242 53 q 453 179 415 131 q 490 274 490 228 l 490 290 l 714 290 l 714 274 q 750 176 714 224 q 874 90 786 128 q 1106 39 961 53 l 1036 -124 q 771 -60 879 -108 q 601 63 663 -12 q 433 -61 540 -12 q 171 -124 325 -110 l 101 39 z "},"꿍":{"ha":1214,"x_min":33,"x_max":1179,"o":"m 556 1082 l 556 993 q 549 821 556 896 q 517 656 543 746 l 799 656 q 836 911 831 774 l 619 911 l 619 1082 l 1046 1082 l 1046 986 q 1041 817 1046 890 q 1015 656 1036 743 l 1179 656 l 1179 485 l 711 485 l 711 371 q 958 292 869 356 q 1047 128 1047 228 q 928 -57 1047 10 q 604 -124 810 -124 q 280 -57 399 -124 q 161 128 161 10 q 249 292 161 228 q 496 371 338 356 l 496 485 l 33 485 l 33 656 l 299 656 q 343 911 338 778 l 131 911 l 131 1082 l 556 1082 m 378 128 q 433 65 378 85 q 604 46 488 46 q 776 65 721 46 q 831 128 831 85 q 776 189 831 171 q 604 207 722 207 q 433 189 488 207 q 378 128 378 171 z "},"꿎":{"ha":1214,"x_min":33,"x_max":1179,"o":"m 303 678 q 343 919 338 794 l 131 919 l 131 1092 l 556 1092 l 556 1001 q 549 836 556 908 q 519 678 543 764 l 803 678 q 835 919 832 797 l 619 919 l 619 1092 l 1046 1092 l 1046 996 q 1041 832 1046 903 q 1018 678 1036 761 l 1179 678 l 1179 508 l 713 508 l 713 379 l 1050 379 l 1050 210 l 749 210 q 872 103 786 147 q 1101 44 958 60 l 1022 -124 q 768 -50 872 -103 q 606 83 664 3 q 444 -50 547 3 q 190 -124 340 -103 l 111 44 q 340 103 254 60 q 463 210 425 147 l 164 210 l 164 379 l 497 379 l 497 508 l 33 508 l 33 678 l 303 678 z "},"꿔":{"ha":1214,"x_min":18,"x_max":1126,"o":"m 1126 1138 l 1126 -128 l 910 -128 l 910 169 l 665 169 l 665 336 l 910 336 l 910 1138 l 1126 1138 m 163 550 q 195 711 186 638 q 206 864 204 785 l 82 864 l 82 1038 l 413 1038 l 413 929 q 406 738 413 821 q 376 554 400 654 q 553 561 438 556 q 582 717 574 646 q 592 864 590 789 l 469 864 l 469 1038 l 799 1038 l 799 929 q 794 748 799 826 q 769 578 789 669 l 849 588 l 863 429 q 557 393 729 407 l 557 -121 l 339 -121 l 339 381 q 44 375 201 375 l 18 549 l 163 550 z "},"꿘":{"ha":1214,"x_min":33,"x_max":1176,"o":"m 431 1074 l 431 976 q 425 806 431 879 q 396 649 419 732 q 597 653 497 649 q 617 899 614 768 l 482 899 l 482 1075 l 832 1075 l 832 978 q 829 817 832 888 q 814 664 826 746 l 876 669 l 888 511 q 544 479 731 490 l 544 211 l 399 211 l 399 39 l 1176 39 l 1176 -136 l 175 -136 l 175 258 l 319 258 l 319 472 l 188 471 l 57 472 l 33 647 l 178 647 q 218 897 215 771 l 90 897 l 90 1074 l 431 1074 m 688 424 l 944 424 l 944 1140 l 1153 1140 l 1153 158 l 944 158 l 944 274 l 688 274 l 688 424 z "},"꿜":{"ha":1214,"x_min":32,"x_max":1144,"o":"m 1115 1139 l 1115 453 l 899 453 l 899 475 l 683 475 l 683 618 l 899 618 l 899 1139 l 1115 1139 m 175 774 q 207 929 199 846 l 81 929 l 81 1097 l 415 1097 l 415 1011 q 411 890 415 943 q 390 778 407 836 l 544 785 q 572 929 568 863 l 460 929 l 460 1097 l 779 1097 l 779 1018 q 776 906 779 956 q 760 800 772 856 l 847 808 l 861 661 q 526 625 719 639 l 526 451 l 308 451 l 308 614 q 56 607 225 610 l 32 772 l 175 774 m 213 413 l 1115 413 l 1115 75 l 432 75 l 432 35 l 1144 35 l 1144 -122 l 214 -122 l 214 219 l 899 219 l 899 260 l 213 260 l 213 413 z "},"꿨":{"ha":1214,"x_min":31,"x_max":1201,"o":"m 1114 1139 l 1114 383 l 897 383 l 897 410 l 682 410 l 682 560 l 897 560 l 897 1139 l 1114 1139 m 171 719 q 206 914 203 818 l 79 914 l 79 1085 l 415 1085 l 415 990 q 410 850 415 910 q 386 725 406 790 q 539 732 436 726 q 571 914 567 826 l 460 914 l 460 1085 l 778 1085 l 778 999 q 774 869 778 926 q 756 749 771 813 l 846 760 l 861 611 q 524 569 696 582 l 524 388 l 306 388 l 306 557 q 56 551 228 554 l 31 718 l 171 719 m 76 46 q 249 160 196 83 q 303 336 303 236 l 303 343 l 514 343 l 514 336 q 543 196 514 261 q 636 82 572 131 q 730 197 700 131 q 760 336 760 264 l 760 343 l 975 343 l 975 336 q 1201 46 975 110 l 1100 -111 q 863 85 933 -58 q 636 -125 790 -68 q 411 81 479 -68 q 178 -111 340 -60 l 76 46 z "},"꿩":{"ha":1214,"x_min":32,"x_max":1122,"o":"m 1115 1138 l 1115 350 l 899 350 l 899 394 l 682 394 l 682 549 l 899 549 l 899 1138 l 1115 1138 m 172 718 q 207 914 204 817 l 81 914 l 81 1085 l 415 1085 l 415 990 q 410 850 415 910 q 386 724 406 790 q 540 731 438 725 q 574 914 569 824 l 460 914 l 460 1085 l 781 1085 l 781 999 q 776 868 781 925 q 757 746 772 811 l 844 756 l 858 608 q 526 569 706 583 l 526 357 l 308 357 l 308 556 q 56 550 226 553 l 32 717 l 172 718 m 207 104 q 328 276 207 215 q 664 336 449 336 q 1001 276 881 336 q 1122 104 1122 215 q 1001 -68 1122 -7 q 664 -129 881 -129 q 328 -68 449 -129 q 207 104 207 -7 m 431 104 q 486 48 431 65 q 664 31 542 31 q 844 48 789 31 q 900 104 900 65 q 844 160 900 143 q 664 176 789 176 q 486 160 542 176 q 431 104 431 143 z "},"꿰":{"ha":1214,"x_min":13,"x_max":1161,"o":"m 1161 1139 l 1161 -126 l 956 -126 l 956 1139 l 1161 1139 m 104 581 q 146 850 143 717 l 63 850 l 63 1021 l 336 1021 l 336 926 q 331 751 336 828 q 301 585 325 675 l 400 589 q 436 850 431 713 l 372 850 l 372 1021 l 625 1021 l 625 925 q 620 760 625 832 q 597 604 615 688 l 650 611 l 665 464 q 449 429 571 443 l 449 -32 l 243 -32 l 243 415 q 33 411 126 411 l 13 581 l 104 581 m 515 369 l 696 369 l 696 1121 l 899 1121 l 899 -74 l 696 -74 l 696 204 l 515 204 l 515 369 z "},"꿱":{"ha":1214,"x_min":14,"x_max":1147,"o":"m 1147 1138 l 1147 350 l 940 350 l 940 1138 l 1147 1138 m 111 708 q 136 888 131 783 l 57 888 l 57 1058 l 317 1058 l 317 956 q 313 827 317 882 q 297 713 310 772 q 408 718 372 715 q 433 888 428 788 l 350 888 l 350 1058 l 614 1058 l 614 956 q 611 837 614 886 q 597 733 608 788 q 644 739 628 736 l 661 593 q 460 561 576 572 l 460 356 l 254 356 l 254 546 q 35 542 132 542 l 14 708 l 111 708 m 185 307 l 1147 307 l 1147 -128 l 929 -128 l 929 136 l 185 136 l 185 307 m 525 540 l 690 540 l 690 1117 l 893 1117 l 893 354 l 690 354 l 690 394 l 525 394 l 525 540 z "},"꿴":{"ha":1214,"x_min":14,"x_max":1172,"o":"m 1146 1138 l 1146 188 l 940 188 l 940 1138 l 1146 1138 m 104 672 q 135 876 129 771 l 57 876 l 57 1047 l 317 1047 l 317 961 q 313 816 317 881 q 290 676 308 751 l 401 681 q 431 876 425 778 l 350 876 l 350 1047 l 613 1047 l 613 961 q 609 826 613 886 q 590 697 606 767 l 644 704 l 661 557 q 460 526 572 538 l 460 324 l 253 324 l 253 513 q 35 508 132 508 l 14 672 l 104 672 m 215 265 l 433 265 l 433 65 l 1172 65 l 1172 -108 l 215 -108 l 215 265 m 524 490 l 690 490 l 690 1115 l 893 1115 l 893 210 l 690 210 l 690 338 l 524 338 l 524 490 z "},"꿸":{"ha":1214,"x_min":14,"x_max":1175,"o":"m 1146 1138 l 1146 438 l 940 438 l 940 1138 l 1146 1138 m 114 772 q 135 914 132 843 l 57 914 l 57 1082 l 317 1082 l 317 993 q 314 879 317 928 q 300 778 311 831 l 411 782 q 431 914 428 851 l 350 914 l 350 1082 l 613 1082 l 613 990 q 610 887 613 931 q 600 796 608 843 l 644 800 l 660 657 q 460 631 554 638 l 460 444 l 253 444 l 253 615 q 35 610 92 610 l 14 772 l 114 772 m 204 404 l 1146 404 l 1146 72 l 421 72 l 421 35 l 1175 35 l 1175 -122 l 206 -122 l 206 215 l 932 215 l 932 250 l 204 250 l 204 404 m 524 615 l 690 615 l 690 1118 l 893 1118 l 893 443 l 690 443 l 690 469 l 524 469 l 524 615 z "},"뀀":{"ha":1214,"x_min":14,"x_max":1147,"o":"m 1147 1138 l 1147 363 l 940 363 l 940 1138 l 1147 1138 m 110 721 q 135 901 132 808 l 57 901 l 57 1071 l 317 1071 l 317 972 q 313 842 317 897 q 296 725 310 786 l 407 729 q 432 901 426 808 l 350 901 l 350 1071 l 614 1071 l 614 985 q 611 861 614 915 q 596 746 608 807 q 644 751 629 749 l 661 606 q 460 574 561 583 l 460 365 l 254 365 l 254 560 q 35 554 144 554 l 14 721 l 110 721 m 201 321 l 1147 321 l 1147 -115 l 201 -115 l 201 321 m 933 56 l 933 150 l 415 150 l 415 56 l 933 56 m 525 549 l 690 549 l 690 1115 l 893 1115 l 893 367 l 690 367 l 690 401 l 525 401 l 525 549 z "},"뀁":{"ha":1214,"x_min":14,"x_max":1147,"o":"m 1147 1138 l 1147 382 l 940 382 l 940 1138 l 1147 1138 m 113 732 q 136 910 133 817 l 57 910 l 57 1079 l 317 1079 l 317 978 q 314 849 317 903 q 299 736 311 796 l 410 740 q 433 910 431 822 l 350 910 l 350 1079 l 614 1079 l 614 975 q 611 857 614 906 q 599 757 608 808 q 644 763 629 760 l 661 615 q 460 585 572 596 l 460 392 l 254 392 l 254 571 q 35 565 144 565 l 14 732 l 113 732 m 197 344 l 414 344 l 414 274 l 932 274 l 932 344 l 1147 344 l 1147 -115 l 197 -115 l 197 344 m 932 54 l 932 114 l 414 114 l 414 54 l 932 54 m 525 565 l 690 565 l 690 1115 l 893 1115 l 893 386 l 690 386 l 690 415 l 525 415 l 525 565 z "},"뀄":{"ha":1214,"x_min":14,"x_max":1211,"o":"m 524 325 l 524 310 q 552 180 524 242 q 643 74 581 118 q 736 183 706 121 q 767 310 767 244 l 767 325 l 981 325 l 981 310 q 1035 142 981 213 q 1211 40 1089 71 l 1111 -117 q 869 72 940 -68 q 644 -129 800 -75 q 421 68 488 -76 q 182 -117 349 -67 l 82 40 q 257 147 203 75 q 311 310 311 218 l 311 325 l 524 325 m 110 721 q 135 901 129 797 l 57 901 l 57 1071 l 315 1071 l 315 972 q 312 842 315 897 q 294 725 308 786 l 406 729 q 431 901 425 808 l 349 901 l 349 1071 l 613 1071 l 613 985 q 610 861 613 915 q 594 746 607 807 q 644 751 625 749 l 660 606 q 460 574 581 589 l 460 365 l 253 365 l 253 560 q 33 554 143 554 l 14 721 l 110 721 m 524 549 l 690 549 l 690 1117 l 892 1117 l 892 367 l 690 367 l 690 401 l 524 401 l 524 549 m 939 1138 l 1146 1138 l 1146 363 l 939 363 l 939 1138 z "},"뀌":{"ha":1214,"x_min":29,"x_max":1128,"o":"m 1128 1138 l 1128 -128 l 910 -128 l 910 1138 l 1128 1138 m 167 551 q 203 720 193 643 q 214 881 213 797 l 88 881 l 88 1054 l 425 1054 l 425 946 q 419 745 425 832 q 386 556 413 658 q 556 563 442 557 q 586 726 578 651 q 596 881 594 801 l 475 881 l 475 1054 l 808 1054 l 808 947 q 803 758 808 840 q 776 581 797 676 l 853 589 l 867 431 q 568 394 736 408 l 568 -87 l 350 -87 l 350 382 q 54 376 211 376 l 29 550 l 167 551 z "},"뀐":{"ha":1214,"x_min":31,"x_max":1136,"o":"m 1111 1139 l 1111 196 l 893 196 l 893 1139 l 1111 1139 m 171 615 q 203 748 194 688 q 214 876 213 808 l 103 876 l 103 1049 l 424 1049 l 424 936 q 418 768 424 838 q 389 621 413 699 q 544 628 438 622 q 573 755 565 697 q 582 876 581 813 l 465 876 l 465 1049 l 794 1049 l 794 939 q 790 783 794 847 q 768 647 786 718 l 840 656 l 853 504 q 567 465 721 481 l 567 254 l 396 254 l 396 65 l 1136 65 l 1136 -108 l 179 -108 l 179 304 l 350 304 l 350 450 q 56 443 174 443 l 31 614 l 171 615 z "},"뀔":{"ha":1214,"x_min":31,"x_max":1149,"o":"m 422 1075 l 422 972 q 418 835 422 893 q 399 714 414 778 q 550 721 451 715 q 576 904 574 815 l 472 904 l 472 1075 l 789 1075 l 789 983 q 785 855 789 910 q 769 739 782 800 l 840 747 l 851 601 q 558 563 717 576 l 558 443 l 1111 443 l 1111 88 l 443 88 l 443 42 l 1149 42 l 1149 -122 l 224 -122 l 224 239 l 892 239 l 892 281 l 222 281 l 222 443 l 340 443 l 340 547 q 54 542 206 542 l 31 707 l 182 708 q 213 904 207 796 l 101 904 l 101 1075 l 422 1075 m 893 1138 l 1111 1138 l 1111 482 l 893 482 l 893 1138 z "},"뀜":{"ha":1214,"x_min":32,"x_max":1111,"o":"m 1111 1139 l 1111 396 l 893 396 l 893 1139 l 1111 1139 m 179 663 q 214 889 211 772 l 104 889 l 104 1061 l 425 1061 l 425 951 q 420 801 425 864 q 397 667 415 738 l 447 669 q 550 675 514 672 q 582 889 579 779 l 467 889 l 467 1061 l 794 1061 l 794 954 q 791 816 794 874 q 774 693 788 758 l 843 701 l 856 549 q 560 511 711 524 l 560 351 l 1111 351 l 1111 -115 l 221 -115 l 221 351 l 342 351 l 342 497 q 58 490 215 490 l 32 661 l 179 663 m 897 56 l 897 183 l 436 183 l 436 56 l 897 56 z "},"뀝":{"ha":1214,"x_min":32,"x_max":1111,"o":"m 1111 1138 l 1111 444 l 893 444 l 893 1138 l 1111 1138 m 179 669 q 214 897 211 778 l 104 897 l 104 1068 l 425 1068 l 425 960 q 420 808 425 872 q 397 674 415 744 l 550 681 q 582 897 579 786 l 467 897 l 467 1068 l 794 1068 l 794 963 q 791 824 794 882 q 772 700 788 765 l 843 708 l 856 553 q 564 517 729 531 l 564 350 l 399 350 l 399 290 l 896 290 l 896 396 l 1111 396 l 1111 -115 l 183 -115 l 183 396 l 347 396 l 347 503 q 58 497 210 497 l 32 668 l 179 669 m 896 56 l 896 131 l 399 131 l 399 56 l 896 56 z "},"뀨":{"ha":1214,"x_min":33,"x_max":1179,"o":"m 283 568 q 328 897 325 731 l 124 897 l 124 1068 l 543 1068 l 543 967 q 536 765 543 853 q 503 568 529 676 l 807 568 q 842 897 839 721 l 624 897 l 624 1068 l 1056 1068 l 1056 963 q 1051 761 1056 849 q 1025 568 1046 674 l 1179 568 l 1179 393 l 926 393 l 926 -129 l 708 -129 l 708 393 l 494 393 l 494 -129 l 276 -129 l 276 393 l 33 393 l 33 568 l 283 568 z "},"뀰":{"ha":1214,"x_min":33,"x_max":1179,"o":"m 303 472 l 303 560 l 33 560 l 33 729 l 292 729 q 311 935 308 826 l 138 935 l 138 1110 l 547 1110 l 547 1013 q 544 867 547 931 q 529 729 542 803 l 813 729 q 829 935 826 832 l 626 935 l 626 1110 l 1065 1110 l 1065 1042 q 1049 729 1065 864 l 1179 729 l 1179 560 l 908 560 l 908 472 l 1049 472 l 1049 106 l 388 106 l 388 51 l 1063 51 l 1063 -121 l 163 -121 l 163 253 l 824 253 l 824 304 l 161 304 l 161 472 l 303 472 m 686 472 l 686 560 l 528 560 l 528 472 l 686 472 z "},"뀼":{"ha":1214,"x_min":35,"x_max":1174,"o":"m 549 1100 l 549 1003 q 544 834 549 908 q 524 674 540 760 l 807 674 q 829 928 826 807 l 628 928 l 628 1100 l 1065 1100 l 1065 1032 q 1061 860 1065 943 q 1043 674 1057 778 l 1174 674 l 1174 508 l 908 508 l 908 319 l 690 319 l 690 508 l 517 508 l 517 318 l 300 318 l 300 508 l 35 508 l 35 674 l 285 674 q 314 928 311 804 l 136 928 l 136 1100 l 549 1100 m 57 35 q 230 118 175 60 q 285 253 285 176 l 285 269 l 497 269 l 497 253 q 523 150 497 199 q 601 68 549 101 q 682 151 656 103 q 708 253 708 200 l 708 269 l 925 269 l 925 253 q 979 115 925 172 q 1153 35 1033 57 l 1053 -124 q 817 38 888 -82 q 603 -133 747 -89 q 389 33 454 -89 q 157 -124 318 -82 l 57 35 z "},"끄":{"ha":1214,"x_min":33,"x_max":1179,"o":"m 542 1040 l 542 951 q 537 768 542 847 q 511 573 532 689 q 444 310 490 457 l 235 346 q 304 625 285 500 q 326 867 324 750 l 114 867 l 114 1040 l 542 1040 m 33 217 l 1179 217 l 1179 40 l 33 40 l 33 217 m 613 1040 l 1072 1040 l 1072 950 q 1064 651 1072 792 q 1021 311 1056 510 l 806 335 q 858 867 856 600 l 613 867 l 613 1040 z "},"끅":{"ha":1214,"x_min":33,"x_max":1179,"o":"m 565 1094 l 565 1000 q 557 807 565 892 q 515 618 549 722 l 797 618 q 831 773 822 701 q 843 922 840 844 l 629 922 l 629 1094 l 1054 1094 l 1054 994 q 1048 803 1054 886 q 1015 618 1042 719 l 1179 618 l 1179 447 l 33 447 l 33 618 l 294 618 q 338 779 325 707 q 351 922 350 851 l 142 922 l 142 1094 l 565 1094 m 157 347 l 1044 347 l 1044 -128 l 826 -128 l 826 178 l 157 178 l 157 347 z "},"끈":{"ha":1214,"x_min":33,"x_max":1179,"o":"m 289 581 q 351 910 343 743 l 142 910 l 142 1081 l 565 1081 l 565 1006 q 556 799 565 892 q 510 581 547 706 l 793 581 q 843 910 838 749 l 632 910 l 632 1081 l 1057 1081 l 1057 1010 q 1049 803 1057 899 q 1011 581 1042 708 l 1179 581 l 1179 408 l 33 408 l 33 581 l 289 581 m 169 324 l 386 324 l 386 65 l 1075 65 l 1075 -107 l 169 -107 l 169 324 z "},"끊":{"ha":1214,"x_min":33,"x_max":1179,"o":"m 311 678 q 343 804 335 746 q 353 931 351 863 l 142 931 l 142 1104 l 565 1104 l 565 989 q 560 823 565 892 q 535 678 556 754 l 808 678 q 843 931 840 800 l 632 931 l 632 1104 l 1057 1104 l 1057 1008 q 1052 839 1057 913 q 1026 678 1047 765 l 1179 678 l 1179 508 l 33 508 l 33 678 l 311 678 m 151 397 l 363 397 l 363 83 q 551 119 463 92 l 575 -51 q 418 -85 499 -76 q 231 -94 338 -94 l 151 -94 l 151 397 m 549 394 l 738 394 l 738 468 l 949 468 l 949 394 l 1135 394 l 1135 240 l 549 240 l 549 394 m 608 44 q 674 169 608 121 q 842 218 740 218 q 1009 169 943 218 q 1075 44 1075 121 q 1010 -83 1075 -35 q 842 -131 944 -131 q 674 -83 739 -131 q 608 44 608 -35 m 790 44 q 842 13 790 13 q 893 44 893 13 q 880 68 893 63 q 842 74 867 74 q 803 68 817 74 q 790 44 790 63 z "},"끌":{"ha":1214,"x_min":33,"x_max":1179,"o":"m 299 700 q 331 819 322 765 q 343 936 340 874 l 129 936 l 129 1108 l 554 1108 l 554 1000 q 549 840 554 907 q 521 700 543 774 l 794 700 q 835 936 829 814 l 619 936 l 619 1108 l 1046 1108 l 1046 1019 q 1040 858 1046 929 q 1013 700 1035 786 l 1179 700 l 1179 528 l 33 528 l 33 700 l 299 700 m 161 471 l 1039 471 l 1039 106 l 379 106 l 379 53 l 1068 53 l 1068 -115 l 163 -115 l 163 258 l 821 258 l 821 307 l 161 307 l 161 471 z "},"끎":{"ha":1214,"x_min":33,"x_max":1179,"o":"m 297 668 q 335 803 325 743 q 347 931 346 863 l 133 931 l 133 1103 l 558 1103 l 558 992 q 552 819 558 892 q 521 668 546 747 l 794 668 q 838 931 835 803 l 624 931 l 624 1103 l 1050 1103 l 1050 1011 q 1044 838 1050 915 q 1014 668 1038 761 l 1179 668 l 1179 499 l 33 499 l 33 668 l 297 668 m 147 431 l 567 431 l 567 92 l 350 92 l 350 42 q 481 47 433 43 q 576 58 529 50 l 590 -96 q 460 -112 528 -110 q 226 -115 393 -115 l 149 -115 l 149 235 l 365 235 l 365 275 l 147 275 l 147 431 m 626 431 l 1053 431 l 1053 -115 l 626 -115 l 626 431 m 872 42 l 872 274 l 807 274 l 807 42 l 872 42 z "},"끓":{"ha":1214,"x_min":33,"x_max":1179,"o":"m 306 679 q 341 809 332 750 q 351 936 350 868 l 140 936 l 140 1108 l 564 1108 l 564 996 q 558 827 564 897 q 529 679 553 757 l 803 679 q 842 936 839 810 l 631 936 l 631 1108 l 1056 1108 l 1056 1015 q 1050 846 1056 921 q 1021 679 1044 771 l 1179 679 l 1179 510 l 33 510 l 33 679 l 306 679 m 126 433 l 557 433 l 557 90 l 335 90 l 335 44 q 490 49 435 46 q 594 63 544 53 l 613 -96 q 472 -111 544 -108 q 213 -114 400 -114 l 128 -114 l 128 233 l 350 233 l 350 275 l 126 275 l 126 433 m 593 393 l 761 393 l 761 476 l 971 476 l 971 393 l 1142 393 l 1142 240 l 593 240 l 593 393 m 638 46 q 702 171 638 122 q 867 219 767 219 q 1033 171 968 219 q 1099 46 1099 122 q 1033 -81 1099 -33 q 867 -129 968 -129 q 702 -81 767 -129 q 638 46 638 -33 m 819 46 q 867 14 819 14 q 915 46 915 14 q 903 69 915 64 q 867 75 890 75 q 831 69 843 75 q 819 46 819 64 z "},"끔":{"ha":1214,"x_min":33,"x_max":1179,"o":"m 303 644 q 351 925 349 786 l 142 925 l 142 1096 l 565 1096 l 565 1003 q 558 821 565 900 q 522 644 551 742 l 804 644 q 843 925 838 775 l 629 925 l 629 1096 l 1054 1096 l 1054 996 q 1049 817 1054 894 q 1021 644 1043 739 l 1179 644 l 1179 472 l 33 472 l 33 644 l 303 644 m 167 368 l 1043 368 l 1043 -107 l 167 -107 l 167 368 m 829 63 l 829 200 l 379 200 l 379 63 l 829 63 z "},"끕":{"ha":1214,"x_min":33,"x_max":1179,"o":"m 308 669 q 351 929 349 801 l 142 929 l 142 1103 l 565 1103 l 565 1008 q 559 836 565 911 q 528 669 553 761 l 810 669 q 833 800 826 739 q 843 929 840 861 l 629 929 l 629 1103 l 1054 1103 l 1054 1001 q 1049 831 1054 904 q 1025 669 1044 757 l 1179 669 l 1179 500 l 33 500 l 33 669 l 308 669 m 163 424 l 376 424 l 376 313 l 831 313 l 831 424 l 1046 424 l 1046 -115 l 163 -115 l 163 424 m 831 58 l 831 146 l 376 146 l 376 58 l 831 58 z "},"끗":{"ha":1214,"x_min":33,"x_max":1179,"o":"m 292 615 q 351 917 344 772 l 142 917 l 142 1089 l 565 1089 l 565 1015 q 557 819 565 908 q 514 615 549 731 l 800 615 q 843 917 838 768 l 632 917 l 632 1089 l 1057 1089 l 1057 1017 q 1051 822 1057 911 q 1018 615 1044 733 l 1179 615 l 1179 444 l 33 444 l 33 615 l 292 615 m 101 44 q 406 148 314 67 q 499 331 499 229 l 499 357 l 714 357 l 714 331 q 806 148 714 229 q 1113 44 899 67 l 1033 -124 q 607 83 732 -83 q 181 -124 481 -83 l 101 44 z "},"끙":{"ha":1214,"x_min":33,"x_max":1179,"o":"m 297 621 q 351 917 349 772 l 142 917 l 142 1089 l 565 1089 l 565 996 q 558 806 565 889 q 518 621 550 722 l 800 621 q 831 772 822 701 q 843 917 840 842 l 629 917 l 629 1089 l 1054 1089 l 1054 989 q 1048 801 1054 883 q 1018 621 1042 719 l 1179 621 l 1179 450 l 33 450 l 33 621 l 297 621 m 160 128 q 215 264 160 206 q 371 353 271 322 q 604 385 471 385 q 838 353 738 385 q 993 264 938 322 q 1049 128 1049 206 q 993 -8 1049 50 q 837 -99 938 -67 q 604 -131 736 -131 q 372 -99 472 -131 q 215 -8 271 -67 q 160 128 160 50 m 382 128 q 604 43 382 43 q 771 63 715 43 q 826 128 826 83 q 772 192 826 172 q 604 211 717 211 q 438 192 493 211 q 382 128 382 172 z "},"끝":{"ha":1214,"x_min":33,"x_max":1179,"o":"m 306 686 q 351 929 346 808 l 142 929 l 142 1100 l 565 1100 l 565 1014 q 558 848 565 922 q 525 686 551 774 l 806 686 q 834 810 826 753 q 843 929 842 867 l 629 929 l 629 1100 l 1054 1100 l 1054 994 q 1049 832 1054 900 q 1024 686 1044 764 l 1179 686 l 1179 515 l 33 515 l 33 686 l 306 686 m 171 456 l 1047 456 l 1047 299 l 389 299 l 389 249 l 1019 249 l 1019 97 l 389 97 l 389 46 l 1058 46 l 1058 -115 l 171 -115 l 171 456 z "},"끼":{"ha":1214,"x_min":24,"x_max":1096,"o":"m 1096 1139 l 1096 -126 l 878 -126 l 878 1139 l 1096 1139 m 24 271 q 176 524 132 399 q 226 839 219 650 l 92 839 l 92 1014 l 433 1014 q 416 663 433 807 q 346 391 399 519 q 189 144 293 263 l 24 271 m 379 183 q 526 477 483 331 q 576 839 569 624 l 479 839 l 479 1014 l 785 1014 q 767 638 785 797 q 698 335 749 478 q 553 67 647 193 l 379 183 z "},"끽":{"ha":1214,"x_min":28,"x_max":1093,"o":"m 1093 333 l 1093 -128 l 875 -128 l 875 160 l 215 160 l 215 333 l 1093 333 m 28 565 q 165 707 121 635 q 222 883 208 779 l 90 883 l 90 1056 l 429 1056 q 408 800 429 907 q 329 603 386 693 q 168 431 272 513 l 28 565 m 397 524 q 529 685 488 606 q 582 883 571 765 l 469 883 l 469 1056 l 786 1056 q 767 789 786 900 q 698 583 749 678 q 554 403 647 489 l 397 524 m 875 1138 l 1093 1138 l 1093 382 l 875 382 l 875 1138 z "},"낀":{"ha":1214,"x_min":24,"x_max":1124,"o":"m 1093 1133 l 1093 221 l 875 221 l 875 1133 l 1093 1133 m 24 515 q 166 672 121 592 q 224 868 211 753 l 89 868 l 89 1040 l 432 1040 q 410 771 432 885 q 329 562 388 657 q 164 382 271 467 l 24 515 m 224 299 l 442 299 l 442 65 l 1124 65 l 1124 -108 l 224 -108 l 224 299 m 389 465 q 531 643 489 553 q 585 868 574 733 l 472 868 l 472 1040 l 789 1040 q 770 752 789 871 q 697 531 751 633 q 536 335 642 428 l 389 465 z "},"낄":{"ha":1214,"x_min":26,"x_max":1126,"o":"m 429 1082 q 406 839 429 940 q 325 653 383 738 q 161 494 267 569 l 26 631 q 161 756 117 693 q 219 913 206 819 l 85 913 l 85 1082 l 429 1082 m 225 457 l 1092 457 l 1092 96 l 442 96 l 442 53 l 1126 53 l 1126 -115 l 226 -115 l 226 250 l 878 250 l 878 290 l 225 290 l 225 457 m 389 606 q 523 743 481 675 q 576 913 565 811 l 468 913 l 468 1082 l 785 1082 q 765 833 785 936 q 690 643 744 729 q 536 478 636 557 l 389 606 m 875 1139 l 1092 1139 l 1092 503 l 875 503 l 875 1139 z "},"낌":{"ha":1214,"x_min":26,"x_max":1093,"o":"m 426 1069 q 404 816 426 922 q 325 621 382 710 q 164 451 268 532 l 26 585 q 163 725 119 654 q 221 899 207 796 l 89 899 l 89 1069 l 426 1069 m 231 375 l 1093 375 l 1093 -115 l 231 -115 l 231 375 m 389 544 q 526 703 482 624 q 582 899 569 783 l 468 899 l 468 1069 l 786 1069 q 765 806 786 917 q 692 603 744 696 q 542 425 639 510 l 389 544 m 879 56 l 879 207 l 443 207 l 443 56 l 879 56 m 875 1138 l 1093 1138 l 1093 425 l 875 425 l 875 1138 z "},"낍":{"ha":1214,"x_min":28,"x_max":1093,"o":"m 1093 1138 l 1093 458 l 875 458 l 875 1138 l 1093 1138 m 28 594 q 170 735 124 664 q 231 913 217 807 l 99 913 l 99 1082 l 436 1082 q 413 826 436 933 q 331 629 390 718 q 164 461 271 540 l 28 594 m 239 407 l 454 407 l 454 307 l 878 307 l 878 407 l 1093 407 l 1093 -115 l 239 -115 l 239 407 m 390 550 q 530 712 486 631 q 586 913 574 793 l 479 913 l 479 1082 l 789 1082 q 769 816 789 928 q 695 610 749 704 q 544 431 642 515 l 390 550 m 878 58 l 878 142 l 454 142 l 454 58 l 878 58 z "},"낏":{"ha":1214,"x_min":26,"x_max":1175,"o":"m 1090 1139 l 1090 294 l 872 294 l 872 1139 l 1090 1139 m 26 560 q 164 703 119 631 q 222 883 208 776 l 90 883 l 90 1056 l 428 1056 q 406 799 428 907 q 326 601 383 692 q 165 428 269 510 l 26 560 m 175 46 q 472 153 382 71 q 563 339 563 235 l 563 353 l 786 353 l 786 339 q 876 153 786 235 q 1175 46 967 71 l 1093 -124 q 675 93 796 -81 q 256 -124 551 -81 l 175 46 m 390 519 q 523 683 481 601 q 578 883 565 764 l 471 883 l 471 1056 l 781 1056 q 761 790 781 901 q 690 583 742 678 q 544 400 639 488 l 390 519 z "},"낑":{"ha":1214,"x_min":31,"x_max":1104,"o":"m 1093 1138 l 1093 407 l 875 407 l 875 1138 l 1093 1138 m 31 586 q 170 726 125 656 q 229 899 215 796 l 97 899 l 97 1069 l 435 1069 q 412 816 435 922 q 331 621 389 710 q 168 453 274 532 l 31 586 m 208 124 q 263 258 208 200 q 419 346 318 315 q 656 376 521 376 q 892 346 790 376 q 1049 258 993 315 q 1104 124 1104 200 q 1049 -12 1104 46 q 893 -100 994 -69 q 656 -131 792 -131 q 419 -100 519 -131 q 263 -12 318 -69 q 208 124 208 46 m 394 544 q 528 703 486 624 q 583 899 571 782 l 476 899 l 476 1069 l 788 1069 q 767 808 788 918 q 695 603 747 697 q 549 425 643 510 l 394 544 m 428 124 q 485 58 428 79 q 656 38 542 38 q 828 58 771 38 q 885 124 885 79 q 828 188 885 168 q 656 208 771 208 q 485 188 542 208 q 428 124 428 168 z "},"나":{"ha":1214,"x_min":65,"x_max":1197,"o":"m 1035 1140 l 1035 675 l 1197 675 l 1197 497 l 1035 497 l 1035 -125 l 817 -125 l 817 1140 l 1035 1140 m 65 1019 l 282 1019 l 282 358 q 754 408 536 365 l 775 232 q 179 178 518 178 l 65 178 l 65 1019 z "},"낙":{"ha":1214,"x_min":79,"x_max":1193,"o":"m 1036 1139 l 1036 857 l 1193 857 l 1193 678 l 1036 678 l 1036 408 l 819 408 l 819 1139 l 1036 1139 m 79 1068 l 296 1068 l 296 635 q 736 679 531 642 l 761 508 q 189 457 503 457 l 79 457 l 79 1068 m 190 358 l 1036 358 l 1036 -128 l 819 -128 l 819 188 l 190 188 l 190 358 z "},"낚":{"ha":1214,"x_min":79,"x_max":1193,"o":"m 1036 1139 l 1036 869 l 1193 869 l 1193 692 l 1036 692 l 1036 433 l 819 433 l 819 1139 l 1036 1139 m 79 1069 l 296 1069 l 296 664 q 726 711 531 671 l 751 535 q 188 485 493 485 l 79 485 l 79 1069 m 168 385 l 574 385 l 574 -128 l 358 -128 l 358 213 l 168 213 l 168 385 m 625 385 l 1036 385 l 1036 -128 l 821 -128 l 821 213 l 625 213 l 625 385 z "},"난":{"ha":1214,"x_min":79,"x_max":1193,"o":"m 296 1058 l 296 604 q 739 650 535 611 l 764 476 q 190 425 506 425 l 79 425 l 79 1058 l 296 1058 m 206 314 l 424 314 l 424 65 l 1075 65 l 1075 -108 l 206 -108 l 206 314 m 819 1138 l 1036 1138 l 1036 794 l 1193 794 l 1193 613 l 1036 613 l 1036 232 l 819 232 l 819 1138 z "},"낟":{"ha":1214,"x_min":79,"x_max":1193,"o":"m 1036 1139 l 1036 881 l 1193 881 l 1193 703 l 1036 703 l 1036 439 l 819 439 l 819 1139 l 1036 1139 m 79 1069 l 296 1069 l 296 650 q 731 696 518 657 l 756 522 q 189 472 506 472 l 79 472 l 79 1069 m 199 386 l 1044 386 l 1044 215 l 417 215 l 417 57 l 1068 57 l 1068 -115 l 199 -115 l 199 386 z "},"날":{"ha":1214,"x_min":79,"x_max":1193,"o":"m 1036 1139 l 1036 917 l 1193 917 l 1193 742 l 1036 742 l 1036 521 l 819 521 l 819 1139 l 1036 1139 m 79 1082 l 296 1082 l 296 719 q 731 765 518 726 l 756 592 q 189 540 507 540 l 79 540 l 79 1082 m 185 475 l 1036 475 l 1036 103 l 404 103 l 404 56 l 1068 56 l 1068 -115 l 186 -115 l 186 261 l 819 261 l 819 306 l 185 306 l 185 475 z "},"낡":{"ha":1214,"x_min":79,"x_max":1192,"o":"m 1036 1139 l 1036 896 l 1192 896 l 1192 721 l 1036 721 l 1036 483 l 819 483 l 819 1139 l 1036 1139 m 79 1082 l 296 1082 l 296 699 q 731 746 524 708 l 756 571 q 189 521 497 521 l 79 521 l 79 1082 m 139 439 l 569 439 l 569 90 l 350 90 l 350 44 q 535 51 476 46 q 644 69 594 56 l 665 -89 q 524 -111 603 -107 q 229 -115 444 -115 l 140 -115 l 140 239 l 358 239 l 358 278 l 139 278 l 139 439 m 619 439 l 1036 439 l 1036 -128 l 822 -128 l 822 269 l 619 269 l 619 439 z "},"낢":{"ha":1214,"x_min":79,"x_max":1193,"o":"m 1036 1139 l 1036 896 l 1193 896 l 1193 721 l 1036 721 l 1036 483 l 819 483 l 819 1139 l 1036 1139 m 79 1082 l 296 1082 l 296 706 q 731 751 518 713 l 756 574 q 189 524 507 524 l 79 524 l 79 1082 m 129 433 l 549 433 l 549 92 l 340 92 l 340 49 q 565 67 471 50 l 582 -93 q 433 -111 507 -107 q 211 -115 358 -115 l 131 -115 l 131 239 l 338 239 l 338 275 l 129 275 l 129 433 m 606 433 l 1036 433 l 1036 -115 l 606 -115 l 606 433 m 851 42 l 851 276 l 790 276 l 790 42 l 851 42 z "},"남":{"ha":1214,"x_min":79,"x_max":1193,"o":"m 1036 1139 l 1036 885 l 1193 885 l 1193 708 l 1036 708 l 1036 426 l 819 426 l 819 1139 l 1036 1139 m 79 1081 l 296 1081 l 296 651 q 736 697 533 658 l 761 525 q 189 474 511 474 l 79 474 l 79 1081 m 199 375 l 1036 375 l 1036 -115 l 199 -115 l 199 375 m 824 56 l 824 207 l 414 207 l 414 56 l 824 56 z "},"납":{"ha":1214,"x_min":79,"x_max":1193,"o":"m 1036 1139 l 1036 893 l 1193 893 l 1193 717 l 1036 717 l 1036 471 l 819 471 l 819 1139 l 1036 1139 m 79 1086 l 296 1086 l 296 672 q 736 719 536 679 l 761 544 q 189 494 500 494 l 79 494 l 79 1086 m 190 414 l 407 414 l 407 311 l 821 311 l 821 414 l 1036 414 l 1036 -115 l 190 -115 l 190 414 m 821 57 l 821 144 l 407 144 l 407 57 l 821 57 z "}}}
